<svg width="51" height="52" viewBox="0 0 51 52" fill="none" xmlns="http://www.w3.org/2000/svg">
<g filter="url(#filter0_d_47_96)">
<circle cx="25.3064" cy="26.0564" r="24" fill="black"/>
<circle cx="25.3064" cy="26.0564" r="23.8782" stroke="#A6992A" stroke-width="0.243655"/>
</g>
<path d="M8.09574 30.1002C7.86703 30.1002 7.70589 30.0134 7.61232 29.8396C7.51875 29.6709 7.47197 29.4723 7.47197 29.244C7.47197 29.0405 7.50056 28.8395 7.55774 28.6409C7.62012 28.4424 7.69289 28.291 7.77606 28.1867C7.63571 28.3456 7.46157 28.5268 7.25365 28.7303C7.04572 28.9338 6.81701 29.1298 6.5675 29.3185C6.31799 29.5071 6.06068 29.6634 5.79558 29.7875C5.53047 29.9116 5.26797 29.9737 5.00806 29.9737C4.93009 29.9737 4.85212 29.9662 4.77415 29.9513C4.70137 29.9414 4.6286 29.9215 4.55583 29.8918C4.3635 29.8173 4.22055 29.6858 4.12698 29.4971C4.03342 29.3036 3.98663 29.0728 3.98663 28.8047C3.98663 28.5218 4.03602 28.219 4.13478 27.8964C4.23874 27.5688 4.38949 27.2362 4.58702 26.8987C4.68058 26.7349 4.78454 26.5736 4.8989 26.4147C5.01846 26.2509 5.14581 26.0971 5.28096 25.9531C5.11982 25.8836 4.97168 25.8067 4.83653 25.7223C4.70137 25.633 4.58702 25.5362 4.49345 25.4319C4.43107 25.3624 4.38429 25.2805 4.3531 25.1862C4.32191 25.0919 4.30632 25.0001 4.30632 24.9108C4.30632 24.7519 4.3453 24.6477 4.42328 24.598C4.44927 24.5583 4.48045 24.5385 4.51684 24.5385C4.56362 24.5385 4.58702 24.5658 4.58702 24.6204C4.58702 24.6551 4.57662 24.6924 4.55583 24.7321C4.52984 24.7966 4.51684 24.8562 4.51684 24.9108C4.51684 24.9902 4.53763 25.0646 4.57922 25.1341C4.6208 25.1986 4.67019 25.2607 4.72736 25.3203C4.8937 25.5089 5.12242 25.6652 5.41352 25.7893C5.7462 25.4419 6.11006 25.1217 6.50512 24.8289C6.90538 24.531 7.33422 24.2928 7.79165 24.1141C8.24909 23.9354 8.72991 23.8461 9.23413 23.8461C9.65518 23.8461 9.98526 23.9354 10.2244 24.1141C10.4635 24.2878 10.583 24.5137 10.583 24.7916C10.583 24.9256 10.5415 25.0721 10.4583 25.2309C10.3751 25.3848 10.24 25.5362 10.0528 25.6851C9.8657 25.829 9.61619 25.9556 9.30431 26.0648C8.99762 26.169 8.61556 26.241 8.15812 26.2807C7.99698 26.2956 7.85143 26.308 7.72148 26.3179C7.59672 26.3229 7.46157 26.3254 7.31603 26.3254C7.04572 26.3254 6.78322 26.308 6.52851 26.2733C6.279 26.2385 6.02949 26.1839 5.77998 26.1095C5.68642 26.2336 5.56686 26.4023 5.42131 26.6158C5.28096 26.8292 5.14061 27.0575 5.00027 27.3007C4.85992 27.544 4.74296 27.7748 4.64939 27.9932C4.56622 28.2016 4.50385 28.3927 4.46226 28.5665C4.42068 28.7352 4.39988 28.8866 4.39988 29.0206C4.39988 29.2639 4.45966 29.4475 4.57922 29.5716C4.69878 29.6907 4.85992 29.7503 5.06264 29.7503C5.26017 29.7503 5.48369 29.6957 5.7332 29.5865C5.98791 29.4773 6.25301 29.3135 6.52851 29.0951C6.80401 28.8767 7.07171 28.631 7.33162 28.358C7.59672 28.085 7.83844 27.807 8.05676 27.5241C8.27508 27.2412 8.45181 26.9806 8.58697 26.7423C8.67533 26.5835 8.7611 26.4718 8.84427 26.4073C8.92744 26.3378 8.99762 26.3031 9.0548 26.3031C9.11198 26.3031 9.15616 26.3254 9.18735 26.3701C9.21854 26.4098 9.23413 26.4644 9.23413 26.5339C9.23413 26.6728 9.16915 26.8118 9.0392 26.9508C8.89365 27.1047 8.75071 27.2933 8.61036 27.5167C8.47001 27.74 8.34525 27.9758 8.23609 28.224C8.12693 28.4722 8.04896 28.7154 8.00218 28.9536C7.98658 29.033 7.97619 29.1075 7.97099 29.177C7.96579 29.2465 7.96319 29.3085 7.96319 29.3631C7.96319 29.5468 7.99178 29.6783 8.04896 29.7577C8.11134 29.8372 8.19191 29.8769 8.29067 29.8769C8.41023 29.8769 8.54798 29.8247 8.70392 29.7205C8.85987 29.6163 9.01061 29.4773 9.15616 29.3036C9.28091 29.1447 9.40047 28.976 9.51483 28.7973C9.63439 28.6186 9.74355 28.4324 9.84231 28.2389C9.8579 28.2041 9.8787 28.1793 9.90469 28.1644C9.93588 28.1446 9.95667 28.1346 9.96707 28.1346C9.99306 28.1346 10.0061 28.1495 10.0061 28.1793C10.0061 28.1992 9.99825 28.2289 9.98266 28.2686C9.93588 28.3679 9.8735 28.487 9.79553 28.626C9.71756 28.765 9.63179 28.909 9.53822 29.0579C9.44465 29.2018 9.34849 29.3358 9.24973 29.4599C9.11457 29.6287 8.94304 29.7776 8.73511 29.9066C8.53239 30.0357 8.31926 30.1002 8.09574 30.1002ZM7.24585 26.1467C7.51615 26.1467 7.81764 26.1318 8.15032 26.102C8.58177 26.0673 8.95603 25.9854 9.27312 25.8563C9.5902 25.7273 9.83451 25.5635 10.0061 25.3649C10.1776 25.1664 10.2634 24.9455 10.2634 24.7023C10.2634 24.4839 10.1672 24.3176 9.97486 24.2034C9.78773 24.0893 9.54862 24.0322 9.25752 24.0322C8.7741 24.0322 8.33226 24.124 7.932 24.3077C7.53695 24.4864 7.17308 24.7221 6.8404 25.015C6.51292 25.3078 6.20103 25.623 5.90474 25.9606C6.29979 26.0847 6.74683 26.1467 7.24585 26.1467Z" fill="#A6992A"/>
<path d="M10.2542 29.6461C10.0358 29.6461 9.88769 29.5915 9.80972 29.4823C9.73175 29.3681 9.69276 29.2341 9.69276 29.0802C9.69276 28.9214 9.71615 28.7576 9.76294 28.5888C9.80972 28.42 9.85131 28.2786 9.88769 28.1644C9.97086 27.8864 10.0748 27.5911 10.1996 27.2784C10.3295 26.9607 10.4699 26.6505 10.6206 26.3477C10.7766 26.04 10.9299 25.7645 11.0807 25.5213C11.2002 25.3277 11.3276 25.1838 11.4627 25.0894C11.6031 24.9902 11.7252 24.9405 11.8292 24.9405C11.9124 24.9405 11.9773 24.9703 12.0241 25.0299C12.0761 25.0845 12.1021 25.1689 12.1021 25.283C12.1021 25.3624 12.0865 25.4568 12.0553 25.566C12.0293 25.6752 11.9825 25.7992 11.915 25.9382C11.733 26.3254 11.5147 26.7126 11.26 27.0997C11.0105 27.4869 10.6934 27.8492 10.3087 28.1867C10.2879 28.2513 10.2594 28.3282 10.223 28.4176C10.1918 28.5019 10.1632 28.5888 10.1372 28.6781C10.106 28.8122 10.0904 28.9263 10.0904 29.0206C10.0904 29.1745 10.1216 29.2912 10.184 29.3706C10.2516 29.445 10.3321 29.4823 10.4257 29.4823C10.5089 29.4823 10.5972 29.455 10.6908 29.4004C10.7844 29.3408 10.8727 29.2564 10.9559 29.1472C11.0807 28.9735 11.1924 28.7973 11.2912 28.6186C11.3951 28.4349 11.4731 28.2935 11.5251 28.1942C11.5563 28.1396 11.5901 28.1123 11.6265 28.1123C11.6525 28.1123 11.6654 28.1272 11.6654 28.157C11.6654 28.1818 11.6577 28.2091 11.6421 28.2389C11.5953 28.3381 11.5329 28.4672 11.4549 28.626C11.3822 28.7799 11.2886 28.9363 11.1742 29.0951C11.0651 29.249 10.9325 29.3805 10.7766 29.4897C10.6258 29.5939 10.4517 29.6461 10.2542 29.6461ZM10.3711 27.9485C10.5582 27.7648 10.7402 27.5539 10.9169 27.3156C11.0937 27.0724 11.2574 26.8218 11.4081 26.5636C11.5641 26.3006 11.694 26.0524 11.798 25.8191C11.8344 25.7446 11.863 25.6627 11.8838 25.5734C11.9098 25.4841 11.9228 25.4096 11.9228 25.35C11.9228 25.2805 11.9046 25.2458 11.8682 25.2458C11.8474 25.2458 11.8162 25.2657 11.7746 25.3054C11.733 25.3401 11.6784 25.4022 11.6109 25.4915C11.5121 25.6156 11.4029 25.7844 11.2834 25.9978C11.169 26.2112 11.0521 26.4396 10.9325 26.6828C10.813 26.926 10.7038 27.1618 10.605 27.3901C10.5063 27.6134 10.4283 27.7996 10.3711 27.9485Z" fill="#A6992A"/>
<path d="M12.0778 29.6535C11.8855 29.6535 11.7114 29.5939 11.5554 29.4748C11.4047 29.3557 11.3293 29.1745 11.3293 28.9313C11.3293 28.7079 11.3865 28.4697 11.5009 28.2165C11.6152 27.9584 11.7608 27.7326 11.9375 27.539C12.0882 27.3702 12.2572 27.2312 12.4443 27.122C12.6314 27.0128 12.8082 26.9582 12.9745 26.9582C13.0889 26.9582 13.1876 26.988 13.2708 27.0476C13.3592 27.1121 13.4034 27.2039 13.4034 27.3231C13.4034 27.4472 13.354 27.5837 13.2552 27.7326C13.1565 27.8815 13.0161 28.0205 12.8342 28.1495C12.7562 28.2041 12.6574 28.2562 12.5379 28.3059C12.4183 28.3555 12.2988 28.3977 12.1792 28.4324C12.0597 28.4622 11.9609 28.4771 11.8829 28.4771C11.8569 28.5367 11.8309 28.6161 11.8049 28.7154C11.7842 28.8146 11.7738 28.9164 11.7738 29.0206C11.7738 29.1447 11.7997 29.2564 11.8517 29.3557C11.9037 29.455 11.9999 29.5046 12.1402 29.5046C12.3118 29.5046 12.4677 29.4574 12.6081 29.3631C12.7484 29.2688 12.8732 29.1522 12.9823 29.0132C13.0915 28.8692 13.1824 28.7253 13.2552 28.5814C13.3332 28.4374 13.3956 28.3158 13.4424 28.2165C13.4735 28.147 13.5151 28.1123 13.5671 28.1123C13.5931 28.1123 13.6061 28.1247 13.6061 28.1495C13.6061 28.1694 13.5983 28.1942 13.5827 28.224C13.5099 28.3729 13.432 28.5317 13.3488 28.7005C13.2656 28.8643 13.1669 29.0206 13.0525 29.1695C12.9381 29.3135 12.8004 29.4301 12.6392 29.5195C12.4833 29.6088 12.2962 29.6535 12.0778 29.6535ZM11.9375 28.3431C12.0103 28.3431 12.1324 28.3183 12.304 28.2686C12.4755 28.214 12.6314 28.1297 12.7718 28.0155C12.9069 27.9013 13.0109 27.7772 13.0837 27.6432C13.1565 27.5042 13.1928 27.3876 13.1928 27.2933C13.1928 27.1841 13.1513 27.1295 13.0681 27.1295C13.0057 27.1295 12.9199 27.1692 12.8108 27.2486C12.7016 27.328 12.5665 27.4621 12.4053 27.6507C12.3066 27.7698 12.213 27.8989 12.1246 28.0378C12.0363 28.1768 11.9739 28.2786 11.9375 28.3431Z" fill="#A6992A"/>
<path d="M13.6376 29.6535C13.3829 29.6535 13.201 29.5915 13.0918 29.4674C12.9879 29.3383 12.9359 29.2043 12.9359 29.0653C12.9359 28.9511 12.9645 28.8469 13.0217 28.7526C13.084 28.6583 13.1568 28.6087 13.24 28.6037C13.344 28.4101 13.4557 28.1992 13.5753 27.9708C13.7 27.7425 13.8144 27.5216 13.9183 27.3082C13.9911 27.1642 14.0821 27.0253 14.1912 26.8912C14.3056 26.7572 14.4304 26.6803 14.5655 26.6604H14.6435C14.6851 26.6604 14.7215 26.6629 14.7526 26.6679C14.789 26.6728 14.8254 26.6828 14.8618 26.6977C14.919 26.7225 14.9476 26.7597 14.9476 26.8093C14.9476 26.8391 14.9294 26.854 14.893 26.854C14.8774 26.854 14.8566 26.8466 14.8306 26.8317C14.7682 26.8069 14.7137 26.7945 14.6669 26.7945C14.6357 26.7945 14.6071 26.8019 14.5811 26.8168C14.4823 26.8664 14.4122 26.9359 14.3706 27.0253C14.3342 27.1146 14.316 27.2089 14.316 27.3082C14.316 27.3876 14.3238 27.4695 14.3394 27.5539C14.3602 27.6333 14.3836 27.7053 14.4096 27.7698C14.4667 27.9088 14.5265 28.0453 14.5889 28.1793C14.6565 28.3133 14.6903 28.4573 14.6903 28.6111C14.6903 28.76 14.6383 28.9189 14.5343 29.0876C14.4304 29.2514 14.2978 29.383 14.1367 29.4823L14.1912 29.4897C14.2172 29.4947 14.2354 29.4971 14.2458 29.4971C14.2562 29.4971 14.264 29.4971 14.2692 29.4971C14.3888 29.4971 14.5005 29.4649 14.6045 29.4004C14.7137 29.3309 14.8098 29.2465 14.893 29.1472C14.9762 29.0479 15.0697 28.909 15.1737 28.7303C15.2828 28.5516 15.3868 28.363 15.4856 28.1644C15.5012 28.1396 15.5194 28.1272 15.5402 28.1272C15.5661 28.1272 15.5843 28.1371 15.5947 28.157C15.6103 28.1719 15.6129 28.1917 15.6025 28.2165C15.535 28.3555 15.457 28.5069 15.3686 28.6707C15.2854 28.8295 15.1893 28.9834 15.0801 29.1323C14.971 29.2763 14.8436 29.3954 14.6981 29.4897C14.5577 29.579 14.3992 29.6237 14.2224 29.6237C14.1808 29.6237 14.1367 29.6212 14.0899 29.6163C14.0431 29.6113 13.9963 29.6014 13.9495 29.5865C13.8976 29.6063 13.843 29.6212 13.7858 29.6312C13.7338 29.6461 13.6844 29.6535 13.6376 29.6535ZM13.8716 29.4301C13.9599 29.3606 14.0379 29.2589 14.1055 29.1249C14.1782 28.9909 14.2146 28.8146 14.2146 28.5962C14.2146 28.4027 14.1938 28.1967 14.1523 27.9783C14.1107 27.7599 14.0899 27.5663 14.0899 27.3975C14.0899 27.3628 14.0899 27.333 14.0899 27.3082C14.0951 27.2784 14.1003 27.2511 14.1055 27.2263C14.0379 27.3603 13.9599 27.5167 13.8716 27.6953C13.7832 27.8691 13.6948 28.0378 13.6065 28.2016C13.5181 28.3654 13.4427 28.5044 13.3803 28.6186C13.3803 28.6186 13.3933 28.6211 13.4193 28.626C13.4505 28.626 13.4791 28.6434 13.5051 28.6781C13.5311 28.7079 13.5415 28.77 13.5363 28.8643C13.5311 28.9884 13.5597 29.105 13.6221 29.2142C13.6896 29.3185 13.7728 29.3904 13.8716 29.4301ZM13.5753 29.5344C13.6065 29.5344 13.635 29.5319 13.661 29.5269C13.687 29.517 13.7104 29.5096 13.7312 29.5046C13.6532 29.45 13.5831 29.378 13.5207 29.2887C13.4635 29.1944 13.4297 29.0752 13.4193 28.9313C13.3258 29.0256 13.279 29.1274 13.279 29.2366C13.279 29.316 13.305 29.3855 13.3569 29.445C13.4089 29.5046 13.4817 29.5344 13.5753 29.5344Z" fill="#A6992A"/>
<path d="M15.6402 29.6535C15.3855 29.6535 15.2036 29.5915 15.0944 29.4674C14.9905 29.3383 14.9385 29.2043 14.9385 29.0653C14.9385 28.9511 14.9671 28.8469 15.0243 28.7526C15.0866 28.6583 15.1594 28.6087 15.2426 28.6037C15.3465 28.4101 15.4583 28.1992 15.5779 27.9708C15.7026 27.7425 15.817 27.5216 15.9209 27.3082C15.9937 27.1642 16.0847 27.0253 16.1938 26.8912C16.3082 26.7572 16.433 26.6803 16.5681 26.6604H16.6461C16.6877 26.6604 16.724 26.6629 16.7552 26.6679C16.7916 26.6728 16.828 26.6828 16.8644 26.6977C16.9216 26.7225 16.9502 26.7597 16.9502 26.8093C16.9502 26.8391 16.932 26.854 16.8956 26.854C16.88 26.854 16.8592 26.8466 16.8332 26.8317C16.7708 26.8069 16.7162 26.7945 16.6695 26.7945C16.6383 26.7945 16.6097 26.8019 16.5837 26.8168C16.4849 26.8664 16.4148 26.9359 16.3732 27.0253C16.3368 27.1146 16.3186 27.2089 16.3186 27.3082C16.3186 27.3876 16.3264 27.4695 16.342 27.5539C16.3628 27.6333 16.3862 27.7053 16.4122 27.7698C16.4693 27.9088 16.5291 28.0453 16.5915 28.1793C16.6591 28.3133 16.6929 28.4573 16.6929 28.6111C16.6929 28.76 16.6409 28.9189 16.5369 29.0876C16.433 29.2514 16.3004 29.383 16.1393 29.4823L16.1938 29.4897C16.2198 29.4947 16.238 29.4971 16.2484 29.4971C16.2588 29.4971 16.2666 29.4971 16.2718 29.4971C16.3914 29.4971 16.5031 29.4649 16.6071 29.4004C16.7162 29.3309 16.8124 29.2465 16.8956 29.1472C16.9788 29.0479 17.0723 28.909 17.1763 28.7303C17.2854 28.5516 17.3894 28.363 17.4882 28.1644C17.5038 28.1396 17.522 28.1272 17.5428 28.1272C17.5687 28.1272 17.5869 28.1371 17.5973 28.157C17.6129 28.1719 17.6155 28.1917 17.6051 28.2165C17.5376 28.3555 17.4596 28.5069 17.3712 28.6707C17.288 28.8295 17.1919 28.9834 17.0827 29.1323C16.9736 29.2763 16.8462 29.3954 16.7007 29.4897C16.5603 29.579 16.4018 29.6237 16.225 29.6237C16.1834 29.6237 16.1393 29.6212 16.0925 29.6163C16.0457 29.6113 15.9989 29.6014 15.9521 29.5865C15.9001 29.6063 15.8456 29.6212 15.7884 29.6312C15.7364 29.6461 15.687 29.6535 15.6402 29.6535ZM15.8742 29.4301C15.9625 29.3606 16.0405 29.2589 16.1081 29.1249C16.1808 28.9909 16.2172 28.8146 16.2172 28.5962C16.2172 28.4027 16.1964 28.1967 16.1549 27.9783C16.1133 27.7599 16.0925 27.5663 16.0925 27.3975C16.0925 27.3628 16.0925 27.333 16.0925 27.3082C16.0977 27.2784 16.1029 27.2511 16.1081 27.2263C16.0405 27.3603 15.9625 27.5167 15.8742 27.6953C15.7858 27.8691 15.6974 28.0378 15.6091 28.2016C15.5207 28.3654 15.4453 28.5044 15.3829 28.6186C15.3829 28.6186 15.3959 28.6211 15.4219 28.626C15.4531 28.626 15.4817 28.6434 15.5077 28.6781C15.5337 28.7079 15.5441 28.77 15.5389 28.8643C15.5337 28.9884 15.5623 29.105 15.6246 29.2142C15.6922 29.3185 15.7754 29.3904 15.8742 29.4301ZM15.5779 29.5344C15.6091 29.5344 15.6376 29.5319 15.6636 29.5269C15.6896 29.517 15.713 29.5096 15.7338 29.5046C15.6558 29.45 15.5857 29.378 15.5233 29.2887C15.4661 29.1944 15.4323 29.0752 15.4219 28.9313C15.3284 29.0256 15.2816 29.1274 15.2816 29.2366C15.2816 29.316 15.3076 29.3855 15.3595 29.445C15.4115 29.5046 15.4843 29.5344 15.5779 29.5344Z" fill="#A6992A"/>
<path d="M19.1477 29.6461C19.0905 29.651 19.0255 29.6386 18.9528 29.6088C18.88 29.579 18.815 29.5244 18.7578 29.445C18.7058 29.3656 18.6799 29.2539 18.6799 29.11C18.6799 28.9909 18.7032 28.8469 18.75 28.6781C18.6877 28.7725 18.6071 28.8891 18.5083 29.0281C18.4096 29.1621 18.303 29.2812 18.1886 29.3855C18.0899 29.4748 17.9963 29.5393 17.9079 29.579C17.8196 29.6188 17.739 29.6386 17.6662 29.6386C17.5311 29.6386 17.4219 29.5815 17.3387 29.4674C17.2556 29.3482 17.214 29.1944 17.214 29.0057C17.214 28.8072 17.266 28.5814 17.3699 28.3282C17.4739 28.0751 17.6428 27.812 17.8767 27.539C18.0275 27.3653 18.2094 27.2263 18.4226 27.122C18.6409 27.0128 18.854 26.9582 19.0619 26.9582C19.1815 26.9582 19.2958 26.9781 19.405 27.0178C19.5142 27.0526 19.6103 27.1121 19.6935 27.1965C19.7299 27.2312 19.7481 27.271 19.7481 27.3156C19.7481 27.3454 19.7351 27.3702 19.7091 27.3901C19.6831 27.4099 19.6493 27.4149 19.6077 27.405C19.5505 27.2312 19.4284 27.1444 19.2413 27.1444C19.1529 27.1444 19.0515 27.1717 18.9372 27.2263C18.7604 27.3156 18.5759 27.4621 18.3836 27.6656C18.1964 27.8691 18.0327 28.08 17.8923 28.2984C17.8716 28.3282 17.8378 28.3853 17.791 28.4697C17.7494 28.5541 17.7078 28.6484 17.6662 28.7526C17.6246 28.8568 17.5961 28.9586 17.5805 29.0579C17.5753 29.0876 17.5727 29.11 17.5727 29.1249C17.5727 29.1348 17.5727 29.1522 17.5727 29.177C17.5727 29.3408 17.6376 29.4227 17.7676 29.4227C17.9235 29.4227 18.1003 29.3135 18.2978 29.0951C18.4329 28.9363 18.5551 28.77 18.6643 28.5962C18.7734 28.4225 18.8852 28.2364 18.9995 28.0378C19.0775 27.9038 19.1503 27.7921 19.2179 27.7028C19.2854 27.6134 19.3816 27.5688 19.5064 27.5688C19.5635 27.5688 19.6207 27.5762 19.6779 27.5911C19.7351 27.606 19.7949 27.6085 19.8572 27.5986C19.8156 27.6383 19.7585 27.7127 19.6857 27.8219C19.6181 27.9311 19.5453 28.0552 19.4674 28.1942C19.3894 28.3332 19.3192 28.4746 19.2568 28.6186C19.1945 28.7625 19.1503 28.8866 19.1243 28.9909C19.1191 29.0206 19.1113 29.0628 19.1009 29.1174C19.0957 29.172 19.0931 29.2117 19.0931 29.2366C19.0931 29.3755 19.1347 29.445 19.2179 29.445C19.301 29.445 19.3894 29.3979 19.483 29.3036C19.5817 29.2093 19.6779 29.0926 19.7715 28.9536C19.865 28.8146 19.9508 28.6757 20.0288 28.5367C20.1067 28.3927 20.1691 28.2761 20.2159 28.1867C20.2367 28.1371 20.2679 28.1123 20.3095 28.1123C20.3355 28.1123 20.3485 28.1297 20.3485 28.1644C20.3485 28.1793 20.3407 28.2066 20.3251 28.2463C20.2627 28.3704 20.1873 28.5119 20.0989 28.6707C20.0106 28.8246 19.9144 28.976 19.8104 29.1249C19.7065 29.2688 19.5973 29.3904 19.483 29.4897C19.3738 29.584 19.262 29.6361 19.1477 29.6461Z" fill="#A6992A"/>
<path d="M19.464 29.6833C19.6511 29.3209 19.8304 28.9636 20.002 28.6111C20.1787 28.2538 20.358 27.9137 20.54 27.5911C20.6439 27.4124 20.7297 27.2883 20.7973 27.2188C20.8701 27.1444 20.9662 27.1072 21.0858 27.1072C21.1274 27.1072 21.1715 27.1146 21.2183 27.1295C21.2651 27.1394 21.3119 27.1444 21.3587 27.1444C21.3899 27.1444 21.4133 27.1419 21.4288 27.1369C21.3561 27.1766 21.2625 27.2759 21.1481 27.4348C21.0338 27.5886 20.9168 27.7673 20.7973 27.9708C20.6777 28.1743 20.5712 28.3654 20.4776 28.5441C20.5764 28.43 20.6777 28.3158 20.7817 28.2016C20.8908 28.0875 21.0104 27.9783 21.1404 27.874C21.2651 27.7698 21.4133 27.6631 21.5848 27.5539C21.7615 27.4397 21.9331 27.3454 22.0994 27.271C22.2657 27.1965 22.3983 27.1593 22.4971 27.1593C22.5334 27.1593 22.5594 27.1618 22.575 27.1667C22.575 27.1667 22.5464 27.2164 22.4893 27.3156C22.4321 27.4099 22.3593 27.5365 22.2709 27.6953C22.1878 27.8492 22.102 28.0155 22.0136 28.1942C21.9253 28.3679 21.8447 28.5367 21.7719 28.7005C21.7043 28.8593 21.6602 28.9933 21.6394 29.1025C21.6238 29.1671 21.616 29.2266 21.616 29.2812C21.616 29.3606 21.6316 29.4128 21.6628 29.4376C21.694 29.4624 21.7277 29.4748 21.7641 29.4748C21.8629 29.4748 21.9669 29.4252 22.076 29.3259C22.1852 29.2217 22.2891 29.0951 22.3879 28.9462C22.4919 28.7973 22.5828 28.6533 22.6608 28.5143C22.744 28.3704 22.8037 28.2612 22.8401 28.1867C22.8609 28.147 22.8765 28.1247 22.8869 28.1197C22.8973 28.1098 22.9129 28.1048 22.9337 28.1048C22.9649 28.1048 22.9805 28.1247 22.9805 28.1644C22.9805 28.1892 22.9727 28.2165 22.9571 28.2463C22.8947 28.3605 22.8193 28.497 22.731 28.6558C22.6478 28.8146 22.5516 28.971 22.4425 29.1249C22.3333 29.2738 22.2138 29.4004 22.0838 29.5046C21.9539 29.6039 21.8135 29.6535 21.6628 29.6535C21.5588 29.6535 21.4496 29.6188 21.3353 29.5493C21.2261 29.4798 21.1715 29.3507 21.1715 29.1621C21.1715 29.1075 21.1767 29.0504 21.1871 28.9909C21.1975 28.9263 21.2157 28.8568 21.2417 28.7824C21.2833 28.6831 21.3327 28.5764 21.3899 28.4622C21.447 28.3481 21.5406 28.1917 21.6706 27.9932C21.7069 27.9386 21.7277 27.8964 21.7329 27.8666C21.7433 27.8368 21.7485 27.812 21.7485 27.7921C21.7485 27.7326 21.7199 27.7028 21.6628 27.7028C21.616 27.7028 21.5458 27.7276 21.4522 27.7772C21.3639 27.8269 21.2521 27.9137 21.117 28.0378C20.987 28.157 20.8311 28.3257 20.6491 28.5441C20.4724 28.7625 20.2671 29.0852 20.0332 29.512C19.9968 29.5766 19.9552 29.6113 19.9084 29.6163C19.8668 29.6212 19.807 29.6262 19.7291 29.6312C19.6771 29.6361 19.6277 29.6386 19.5809 29.6386C19.5341 29.6436 19.4951 29.6585 19.464 29.6833Z" fill="#A6992A"/>
<path d="M24.5472 29.6237C24.4069 29.6237 24.2899 29.5567 24.1964 29.4227C24.1704 29.383 24.147 29.3309 24.1262 29.2663C24.1054 29.2018 24.095 29.1298 24.095 29.0504C24.095 29.0057 24.0976 28.9611 24.1028 28.9164C24.108 28.8668 24.1184 28.8171 24.134 28.7675C24.0612 28.8767 23.9754 28.9983 23.8767 29.1323C23.7831 29.2614 23.6739 29.3755 23.5492 29.4748C23.4296 29.5691 23.2945 29.6163 23.1437 29.6163C23.0918 29.6163 23.0372 29.6088 22.98 29.5939C22.8397 29.5542 22.7383 29.4847 22.6759 29.3855C22.6187 29.2862 22.5901 29.1671 22.5901 29.0281C22.5901 28.8742 22.6213 28.7054 22.6837 28.5218C22.7513 28.3381 22.8345 28.1594 22.9332 27.9857C23.0372 27.812 23.1437 27.6631 23.2529 27.539C23.4088 27.3653 23.5882 27.2263 23.7909 27.122C23.9936 27.0178 24.199 26.9657 24.4069 26.9657C24.594 26.9657 24.7707 27.0128 24.9371 27.1072C25.0151 26.9682 25.0982 26.8143 25.1866 26.6455C25.275 26.4718 25.3633 26.3006 25.4517 26.1318C25.5401 25.963 25.618 25.8092 25.6856 25.6702C25.7532 25.5262 25.8052 25.417 25.8416 25.3426C25.9195 25.1689 25.9923 25.0597 26.0599 25.015C26.1327 24.9654 26.2184 24.9405 26.3172 24.9405C26.3744 24.9405 26.4367 24.948 26.5043 24.9629C26.5771 24.9728 26.6473 24.9753 26.7148 24.9703C26.6837 25.0001 26.6187 25.087 26.5199 25.2309C26.4263 25.3699 26.3146 25.5486 26.1846 25.767C26.0547 25.9854 25.9143 26.2261 25.7636 26.4892C25.618 26.7473 25.4725 27.0104 25.3269 27.2784C25.1866 27.5415 25.054 27.7921 24.9293 28.0304C24.8097 28.2637 24.7136 28.4647 24.6408 28.6335C24.62 28.6732 24.5888 28.7551 24.5472 28.8792C24.5108 28.9983 24.4927 29.1025 24.4927 29.1919C24.4927 29.2564 24.5082 29.3135 24.5394 29.3631C24.5706 29.4078 24.6226 29.4301 24.6954 29.4301C24.7941 29.4301 24.8929 29.383 24.9917 29.2887C25.0956 29.1894 25.1944 29.0703 25.288 28.9313C25.3815 28.7873 25.4647 28.6484 25.5375 28.5143C25.6102 28.3754 25.6648 28.2662 25.7012 28.1867C25.7272 28.1321 25.7584 28.1048 25.7948 28.1048C25.826 28.1048 25.8416 28.1272 25.8416 28.1719C25.8416 28.1768 25.8416 28.1867 25.8416 28.2016C25.8416 28.2116 25.8364 28.224 25.826 28.2389C25.7792 28.3431 25.7142 28.4722 25.631 28.626C25.5531 28.7799 25.4595 28.9338 25.3503 29.0876C25.2412 29.2415 25.119 29.3706 24.9839 29.4748C24.8487 29.5741 24.7032 29.6237 24.5472 29.6237ZM23.1983 29.4004C23.2711 29.4004 23.3621 29.3631 23.4712 29.2887C23.5804 29.2093 23.6973 29.0852 23.8221 28.9164C23.9676 28.7179 24.134 28.4697 24.3211 28.1719C24.5082 27.874 24.6928 27.5588 24.8747 27.2263C24.8071 27.1667 24.7292 27.1369 24.6408 27.1369C24.4952 27.1369 24.3315 27.2015 24.1496 27.3305C23.9728 27.4596 23.7987 27.6234 23.6272 27.8219C23.4608 28.0205 23.3205 28.2215 23.2061 28.425C23.1281 28.564 23.071 28.6906 23.0346 28.8047C23.0034 28.9189 22.9878 29.0182 22.9878 29.1025C22.9878 29.3011 23.058 29.4004 23.1983 29.4004Z" fill="#A6992A"/>
<path d="M26.6302 29.6312C26.5314 29.6312 26.4326 29.5939 26.3339 29.5195C26.2351 29.4401 26.1857 29.3135 26.1857 29.1398C26.1857 29.0057 26.2195 28.8519 26.2871 28.6781C26.3495 28.5094 26.4326 28.3456 26.5366 28.1867C26.6458 28.0279 26.7237 27.8989 26.7705 27.7996C26.7861 27.7599 26.7939 27.7251 26.7939 27.6953C26.7939 27.606 26.7341 27.5415 26.6146 27.5018C26.5002 27.4621 26.3495 27.4397 26.1623 27.4348L26.0688 27.6805C26.0116 27.8393 25.931 28.0254 25.8271 28.2389C25.7283 28.4523 25.6165 28.6583 25.4918 28.8568C25.3722 29.0554 25.2475 29.2142 25.1175 29.3333C25.1071 29.3433 25.0941 29.3482 25.0785 29.3482C25.0577 29.3482 25.0447 29.3358 25.0395 29.311C25.0292 29.2862 25.0395 29.2564 25.0707 29.2217C25.2735 28.9636 25.4554 28.6781 25.6165 28.3654C25.7777 28.0478 25.9128 27.7251 26.022 27.3975C26.1364 27.0699 26.2195 26.7672 26.2715 26.4892C26.2871 26.4098 26.3157 26.3527 26.3573 26.3179C26.3989 26.2782 26.443 26.2584 26.4898 26.2584C26.5574 26.2584 26.6198 26.2906 26.677 26.3552C26.7341 26.4147 26.7627 26.5016 26.7627 26.6158C26.7627 26.6356 26.7601 26.658 26.7549 26.6828C26.7549 26.7076 26.7523 26.7324 26.7471 26.7572C26.7263 26.8615 26.664 26.9607 26.56 27.055C26.4612 27.1444 26.3807 27.2114 26.3183 27.2561C26.3703 27.261 26.4248 27.266 26.482 27.271C26.5392 27.271 26.6016 27.271 26.6692 27.271C26.9135 27.271 27.1552 27.2561 27.3943 27.2263C27.4047 27.2561 27.4099 27.2784 27.4099 27.2933C27.4099 27.3578 27.3891 27.4397 27.3475 27.539C27.3111 27.6383 27.2721 27.7276 27.2306 27.807C27.2098 27.8517 27.1682 27.9336 27.1058 28.0527C27.0434 28.1669 26.9758 28.2984 26.9031 28.4473C26.8303 28.5913 26.7679 28.7352 26.7159 28.8792C26.6692 29.0182 26.6458 29.1373 26.6458 29.2366C26.6458 29.3656 26.6977 29.4301 26.8017 29.4301C26.8797 29.4301 26.9654 29.383 27.059 29.2887C27.1526 29.1894 27.2435 29.0703 27.3319 28.9313C27.4255 28.7873 27.5087 28.6484 27.5814 28.5143C27.6594 28.3754 27.7192 28.2662 27.7608 28.1867C27.7816 28.1371 27.8101 28.1123 27.8465 28.1123C27.8673 28.1123 27.8777 28.1297 27.8777 28.1644C27.8777 28.1843 27.8699 28.214 27.8543 28.2538C27.7971 28.3679 27.7296 28.497 27.6516 28.6409C27.5736 28.7849 27.4853 28.9263 27.3865 29.0653C27.2929 29.2043 27.189 29.3259 27.0746 29.4301C26.9655 29.5294 26.8459 29.5939 26.7159 29.6237C26.7003 29.6287 26.6718 29.6312 26.6302 29.6312Z" fill="#A6992A"/>
<path d="M29.4195 29.6461C29.3624 29.651 29.2974 29.6386 29.2246 29.6088C29.1518 29.579 29.0869 29.5244 29.0297 29.445C28.9777 29.3656 28.9517 29.2539 28.9517 29.11C28.9517 28.9909 28.9751 28.8469 29.0219 28.6781C28.9595 28.7725 28.8789 28.8891 28.7802 29.0281C28.6814 29.1621 28.5749 29.2812 28.4605 29.3855C28.3617 29.4748 28.2682 29.5393 28.1798 29.579C28.0914 29.6188 28.0109 29.6386 27.9381 29.6386C27.8029 29.6386 27.6938 29.5815 27.6106 29.4674C27.5274 29.3482 27.4859 29.1944 27.4859 29.0057C27.4859 28.8072 27.5378 28.5814 27.6418 28.3282C27.7458 28.0751 27.9147 27.812 28.1486 27.539C28.2994 27.3653 28.4813 27.2263 28.6944 27.122C28.9127 27.0128 29.1259 26.9582 29.3338 26.9582C29.4533 26.9582 29.5677 26.9781 29.6769 27.0178C29.786 27.0526 29.8822 27.1121 29.9654 27.1965C30.0017 27.2312 30.0199 27.271 30.0199 27.3156C30.0199 27.3454 30.0069 27.3702 29.9809 27.3901C29.955 27.4099 29.9212 27.4149 29.8796 27.405C29.8224 27.2312 29.7002 27.1444 29.5131 27.1444C29.4247 27.1444 29.3234 27.1717 29.209 27.2263C29.0323 27.3156 28.8478 27.4621 28.6554 27.6656C28.4683 27.8691 28.3046 28.08 28.1642 28.2984C28.1434 28.3282 28.1096 28.3853 28.0628 28.4697C28.0213 28.5541 27.9797 28.6484 27.9381 28.7526C27.8965 28.8568 27.8679 28.9586 27.8523 29.0579C27.8471 29.0876 27.8445 29.11 27.8445 29.1249C27.8445 29.1348 27.8445 29.1522 27.8445 29.177C27.8445 29.3408 27.9095 29.4227 28.0394 29.4227C28.1954 29.4227 28.3721 29.3135 28.5697 29.0951C28.7048 28.9363 28.827 28.77 28.9361 28.5962C29.0453 28.4225 29.157 28.2364 29.2714 28.0378C29.3494 27.9038 29.4221 27.7921 29.4897 27.7028C29.5573 27.6134 29.6535 27.5688 29.7782 27.5688C29.8354 27.5688 29.8926 27.5762 29.9498 27.5911C30.0069 27.606 30.0667 27.6085 30.1291 27.5986C30.0875 27.6383 30.0303 27.7127 29.9576 27.8219C29.89 27.9311 29.8172 28.0552 29.7392 28.1942C29.6613 28.3332 29.5911 28.4746 29.5287 28.6186C29.4663 28.7625 29.4221 28.8866 29.3962 28.9909C29.391 29.0206 29.3832 29.0628 29.3728 29.1174C29.3676 29.172 29.365 29.2117 29.365 29.2366C29.365 29.3755 29.4066 29.445 29.4897 29.445C29.5729 29.445 29.6613 29.3979 29.7548 29.3036C29.8536 29.2093 29.9498 29.0926 30.0433 28.9536C30.1369 28.8146 30.2227 28.6757 30.3006 28.5367C30.3786 28.3927 30.441 28.2761 30.4878 28.1867C30.5086 28.1371 30.5397 28.1123 30.5813 28.1123C30.6073 28.1123 30.6203 28.1297 30.6203 28.1644C30.6203 28.1793 30.6125 28.2066 30.5969 28.2463C30.5345 28.3704 30.4592 28.5119 30.3708 28.6707C30.2824 28.8246 30.1863 28.976 30.0823 29.1249C29.9783 29.2688 29.8692 29.3904 29.7548 29.4897C29.6457 29.584 29.5339 29.6361 29.4195 29.6461Z" fill="#A6992A"/>
<path d="M39.036 29.9364C38.8905 29.9364 38.7449 29.9042 38.5994 29.8396C38.459 29.7751 38.3265 29.6808 38.2017 29.5567C38.0198 29.378 37.8613 29.1646 37.7261 28.9164C37.5961 28.6633 37.4844 28.4051 37.3908 28.1421C37.2973 27.874 37.2245 27.6308 37.1725 27.4124C37.1205 27.1891 37.0841 27.0178 37.0633 26.8987C36.871 27.2511 36.6709 27.601 36.463 27.9485C36.2602 28.291 36.0003 28.6285 35.6832 28.9611C35.3817 29.2738 35.0517 29.5096 34.693 29.6684C34.3343 29.8322 33.9627 29.9141 33.578 29.9141C33.4584 29.9141 33.3363 29.9066 33.2115 29.8918C32.8685 29.852 32.6164 29.7577 32.4552 29.6088C32.2941 29.4599 32.2135 29.3011 32.2135 29.1323C32.2135 28.9487 32.2993 28.7824 32.4708 28.6335C32.6423 28.4846 32.8867 28.4101 33.2037 28.4101C33.3077 28.4101 33.4195 28.42 33.539 28.4399C33.6586 28.4597 33.7833 28.492 33.9133 28.5367C33.9705 28.5565 33.999 28.5789 33.999 28.6037C33.999 28.6235 33.9783 28.6335 33.9367 28.6335C33.9107 28.6335 33.8899 28.631 33.8743 28.626C33.7028 28.5665 33.5494 28.5367 33.4143 28.5367C33.1959 28.5367 33.0296 28.5987 32.9152 28.7228C32.8009 28.8419 32.7437 28.9735 32.7437 29.1174C32.7437 29.2564 32.8061 29.3855 32.9308 29.5046C33.0556 29.6237 33.2479 29.6833 33.5078 29.6833C33.8353 29.6833 34.1368 29.6113 34.4123 29.4674C34.6878 29.3185 34.9451 29.1174 35.1842 28.8643C35.4233 28.6062 35.6521 28.3158 35.8704 27.9932C36.0887 27.6656 36.3018 27.3256 36.5097 26.9731C36.858 26.3825 37.1725 25.8464 37.4532 25.3649C37.7391 24.8785 38.0406 24.4665 38.3577 24.129C38.2173 24.1141 38.0744 24.1042 37.9288 24.0992C37.7833 24.0942 37.6351 24.0918 37.4844 24.0918C37.1569 24.0918 36.8164 24.1091 36.463 24.1439C36.1147 24.1737 35.7768 24.2233 35.4493 24.2928C35.0075 24.3821 34.628 24.5161 34.3109 24.6948C33.9939 24.8686 33.7417 25.0646 33.5546 25.283C33.3727 25.4965 33.2583 25.7124 33.2115 25.9308C33.1959 26.0102 33.1881 26.0871 33.1881 26.1616C33.1881 26.4147 33.2765 26.6108 33.4532 26.7498C33.63 26.8888 33.8327 26.9582 34.0614 26.9582C34.207 26.9582 34.3525 26.9309 34.4981 26.8764C34.6488 26.8168 34.784 26.725 34.9035 26.6009C35.0023 26.5016 35.0751 26.4098 35.1218 26.3254C35.1686 26.236 35.1946 26.169 35.1998 26.1244C35.205 26.0549 35.2206 26.0201 35.2466 26.0201C35.2622 26.0201 35.2752 26.0325 35.2856 26.0574C35.3012 26.0822 35.3064 26.107 35.3012 26.1318C35.2804 26.246 35.244 26.3577 35.192 26.4669C35.14 26.5761 35.0777 26.6679 35.0049 26.7423C34.8593 26.8863 34.693 26.993 34.5059 27.0625C34.3187 27.132 34.1394 27.1667 33.9679 27.1667C33.7651 27.1667 33.5728 27.1245 33.3909 27.0401C33.2141 26.9558 33.0712 26.8342 32.962 26.6753C32.8529 26.5115 32.7983 26.3105 32.7983 26.0722C32.7983 25.7943 32.8996 25.5114 33.1024 25.2235C33.3051 24.9306 33.6092 24.6725 34.0146 24.4491C34.4253 24.2258 34.9347 24.0719 35.5429 23.9875C35.8496 23.9478 36.1459 23.918 36.4318 23.8982C36.7229 23.8734 37.0036 23.8609 37.2739 23.8609C37.4922 23.8609 37.7053 23.8684 37.9132 23.8833C38.1212 23.8982 38.3265 23.918 38.5292 23.9428C38.6644 23.8088 38.7553 23.7418 38.8021 23.7418C38.8385 23.7418 38.8567 23.7691 38.8567 23.8237C38.8567 23.8436 38.8541 23.8684 38.8489 23.8982C38.8437 23.928 38.8359 23.9577 38.8255 23.9875C38.9658 24.0074 39.101 24.0297 39.231 24.0545C39.3661 24.0744 39.4857 24.0992 39.5896 24.129C40.0003 24.2382 40.2992 24.3821 40.4863 24.5608C40.6786 24.7345 40.7748 24.9232 40.7748 25.1267C40.7748 25.3451 40.6708 25.5635 40.4629 25.7819C40.2602 26.0003 39.9717 26.1939 39.5974 26.3626C39.2284 26.5314 38.7943 26.6555 38.2953 26.7349C38.1342 26.7597 37.9912 26.7771 37.8664 26.787C37.7469 26.7969 37.6429 26.8044 37.5546 26.8093C37.565 26.859 37.5883 26.9632 37.6247 27.122C37.6611 27.2809 37.7131 27.4695 37.7807 27.6879C37.8483 27.9013 37.934 28.1272 38.038 28.3654C38.1471 28.6037 38.2771 28.8295 38.4278 29.043C38.5474 29.2117 38.6696 29.3507 38.7943 29.4599C38.9191 29.5691 39.0516 29.6237 39.192 29.6237C39.2803 29.6237 39.3713 29.6014 39.4649 29.5567C39.5636 29.512 39.665 29.4401 39.769 29.3408C39.8937 29.2217 40.0055 29.0876 40.1042 28.9387C40.2082 28.7849 40.2966 28.6409 40.3693 28.5069C40.4421 28.3729 40.4915 28.2786 40.5175 28.224C40.5591 28.1545 40.6033 28.1197 40.65 28.1197C40.6656 28.1197 40.6734 28.1297 40.6734 28.1495C40.6734 28.1594 40.6656 28.1843 40.65 28.224C40.624 28.2786 40.5851 28.363 40.5331 28.4771C40.4811 28.5863 40.4187 28.7079 40.3459 28.8419C40.2732 28.976 40.1952 29.1075 40.112 29.2366C40.0289 29.3656 39.9457 29.4748 39.8625 29.5642C39.743 29.6882 39.6078 29.7801 39.4571 29.8396C39.3115 29.9042 39.1712 29.9364 39.036 29.9364ZM37.2271 26.6083C37.3778 26.5835 37.539 26.5661 37.7105 26.5562C37.882 26.5463 38.051 26.5314 38.2173 26.5115C38.4876 26.4768 38.7423 26.4098 38.9814 26.3105C39.2206 26.2063 39.4311 26.0822 39.613 25.9382C39.8001 25.7943 39.9457 25.6429 40.0497 25.4841C40.1536 25.3203 40.2056 25.1639 40.2056 25.015C40.2056 24.6775 39.9691 24.4442 39.4961 24.3151C39.4025 24.2903 39.2803 24.2655 39.1296 24.2407C38.984 24.2158 38.8515 24.1935 38.7319 24.1737C38.4824 24.5807 38.2251 24.9802 37.96 25.3724C37.7001 25.7645 37.4558 26.1765 37.2271 26.6083Z" fill="#A6992A"/>
<path d="M40.7771 29.6237C40.7199 29.6237 40.6498 29.6113 40.5666 29.5865C40.4886 29.5617 40.4184 29.517 40.3561 29.4525C40.2989 29.383 40.2703 29.2812 40.2703 29.1472C40.2703 29.0182 40.3015 28.8941 40.3639 28.7749C40.4314 28.6508 40.4938 28.5317 40.551 28.4176C40.5354 28.4176 40.5172 28.4126 40.4964 28.4027C40.4808 28.3927 40.473 28.3778 40.473 28.358C40.473 28.3381 40.4782 28.3183 40.4886 28.2984C40.5094 28.2587 40.5328 28.2165 40.5588 28.1719C40.5848 28.1272 40.6082 28.08 40.629 28.0304C40.7069 27.8765 40.7849 27.7301 40.8629 27.5911C40.9408 27.4472 41.0084 27.3206 41.0656 27.2114C41.1228 27.1022 41.2215 27.0476 41.3619 27.0476H41.8453C41.7569 27.1121 41.6764 27.1841 41.6036 27.2635C41.536 27.338 41.4503 27.4769 41.3463 27.6805C41.3463 27.6805 41.3281 27.7152 41.2917 27.7847C41.2553 27.8542 41.2086 27.9435 41.1514 28.0527C41.0994 28.157 41.0448 28.2637 40.9876 28.3729C40.9357 28.4821 40.8915 28.5739 40.8551 28.6484C40.7875 28.7873 40.7433 28.899 40.7225 28.9834C40.7017 29.0628 40.6913 29.1373 40.6913 29.2068C40.6913 29.3706 40.7485 29.4525 40.8629 29.4525C40.9876 29.4525 41.1384 29.3557 41.3151 29.1621C41.4607 28.9983 41.6036 28.8022 41.744 28.5739C41.8843 28.3456 42.0169 28.1098 42.1416 27.8666C42.2716 27.6234 42.3859 27.405 42.4847 27.2114C42.5419 27.1022 42.6432 27.0476 42.7888 27.0476H43.2176C43.1396 27.1072 43.0747 27.1642 43.0227 27.2188C42.9707 27.2685 42.9187 27.338 42.8667 27.4273C42.82 27.5117 42.755 27.6333 42.6718 27.7921C42.6042 27.9262 42.5315 28.0701 42.4535 28.224C42.3807 28.3729 42.3158 28.5143 42.2586 28.6484C42.2014 28.7824 42.165 28.8916 42.1494 28.976C42.1442 29.0256 42.139 29.0628 42.1338 29.0876C42.1286 29.1125 42.126 29.1398 42.126 29.1695C42.126 29.2639 42.1416 29.3309 42.1728 29.3706C42.2092 29.4103 42.2508 29.4301 42.2976 29.4301C42.4223 29.4301 42.5471 29.3631 42.6718 29.2291C42.8018 29.0951 42.9239 28.9313 43.0383 28.7377C43.1578 28.5441 43.2592 28.3605 43.3424 28.1867C43.3736 28.1321 43.4022 28.1048 43.4281 28.1048C43.4593 28.1048 43.4749 28.1222 43.4749 28.157C43.4749 28.1818 43.4645 28.2116 43.4437 28.2463C43.3866 28.3654 43.3164 28.5019 43.2332 28.6558C43.15 28.8097 43.0565 28.9611 42.9525 29.11C42.8486 29.2589 42.7342 29.383 42.6094 29.4823C42.4847 29.5766 42.3495 29.6237 42.204 29.6237C42.074 29.6237 41.9675 29.579 41.8843 29.4897C41.8011 29.3954 41.7596 29.2639 41.7596 29.0951C41.7596 28.9611 41.7855 28.8171 41.8375 28.6633C41.7492 28.8122 41.6478 28.9611 41.5334 29.11C41.4191 29.2589 41.2969 29.383 41.167 29.4823C41.037 29.5766 40.9071 29.6237 40.7771 29.6237Z" fill="#A6992A"/>
<path d="M44.203 26.6009C44.125 26.6009 44.06 26.5761 44.0081 26.5264C43.9613 26.4718 43.9379 26.4073 43.9379 26.3328C43.9379 26.2385 43.9769 26.1566 44.0548 26.0871C44.1328 26.0176 44.2186 25.9829 44.3122 25.9829C44.3953 25.9829 44.4629 26.0077 44.5149 26.0574C44.5669 26.107 44.5928 26.1666 44.5928 26.236C44.5928 26.3304 44.5539 26.4147 44.4759 26.4892C44.3979 26.5636 44.307 26.6009 44.203 26.6009ZM43.5714 29.6237C43.3791 29.6237 43.2439 29.5716 43.166 29.4674C43.088 29.3582 43.049 29.2341 43.049 29.0951C43.049 29.0206 43.0568 28.9462 43.0724 28.8717C43.0932 28.7923 43.1166 28.7203 43.1426 28.6558L43.665 27.3826C43.6806 27.3429 43.6884 27.3082 43.6884 27.2784C43.6884 27.2288 43.6754 27.1866 43.6494 27.1518C43.6234 27.1121 43.6052 27.0848 43.5948 27.0699L44.0237 27.055C44.1016 27.0501 44.1562 27.06 44.1874 27.0848C44.2238 27.1047 44.242 27.1295 44.242 27.1593C44.242 27.1891 44.2238 27.2437 44.1874 27.3231L43.5402 28.7749C43.5402 28.7749 43.5246 28.8072 43.4934 28.8717C43.4675 28.9313 43.4519 28.971 43.4467 28.9909C43.4311 29.0653 43.4207 29.1125 43.4155 29.1323C43.4103 29.1522 43.4077 29.1646 43.4077 29.1695C43.4077 29.1745 43.4077 29.1944 43.4077 29.2291C43.4077 29.2936 43.4233 29.3482 43.4545 29.3929C43.4908 29.4376 43.5506 29.4599 43.6338 29.4599C43.6858 29.4599 43.7456 29.445 43.8131 29.4152C43.8807 29.3855 43.9301 29.3557 43.9613 29.3259C44.0912 29.1968 44.2186 29.0281 44.3433 28.8196C44.4733 28.6062 44.5929 28.3952 44.702 28.1867C44.7228 28.1371 44.7488 28.1123 44.78 28.1123C44.806 28.1123 44.819 28.1297 44.819 28.1644C44.819 28.1843 44.8112 28.214 44.7956 28.2538C44.7436 28.358 44.6786 28.487 44.6006 28.6409C44.5227 28.7948 44.4291 28.9487 44.3199 29.1025C44.216 29.2514 44.1016 29.3755 43.9769 29.4748C43.8521 29.5741 43.717 29.6237 43.5714 29.6237Z" fill="#A6992A"/>
<path d="M44.56 29.7131C44.4664 29.7131 44.4196 29.6758 44.4196 29.6014C44.4196 29.5517 44.4326 29.5096 44.4586 29.4748C44.4742 29.445 44.5288 29.4128 44.6223 29.378C44.7159 29.3383 44.8121 29.3011 44.9108 29.2663C45.0148 29.2266 45.085 29.1968 45.1214 29.177C45.2149 29.1323 45.3163 29.0479 45.4254 28.9238C45.5398 28.7948 45.6568 28.6508 45.7763 28.492C45.8959 28.3282 46.0128 28.1694 46.1272 28.0155C46.2415 27.8616 46.3507 27.7326 46.4547 27.6283C46.3611 27.6085 46.2545 27.5861 46.135 27.5613C46.0154 27.5365 45.9037 27.5241 45.7997 27.5241C45.6749 27.5241 45.5658 27.539 45.4722 27.5688C45.3839 27.5936 45.2955 27.6482 45.2071 27.7326C45.1188 27.812 45.0252 27.9311 44.9264 28.09C44.8277 28.2488 44.7081 28.4597 44.5678 28.7228C44.5418 28.7625 44.5106 28.7824 44.4742 28.7824C44.4482 28.7824 44.4352 28.7675 44.4352 28.7377C44.4352 28.7179 44.443 28.693 44.4586 28.6633C44.4846 28.6186 44.5288 28.5392 44.5911 28.425C44.6535 28.3059 44.7159 28.1867 44.7783 28.0676C44.8407 27.9435 44.8874 27.8542 44.9186 27.7996C45.0486 27.5762 45.1733 27.4124 45.2929 27.3082C45.4176 27.2039 45.5372 27.1369 45.6516 27.1072C45.7711 27.0774 45.8829 27.0625 45.9868 27.0625C46.0752 27.0625 46.1584 27.0799 46.2363 27.1146C46.3195 27.1493 46.4001 27.1866 46.4781 27.2263C46.556 27.261 46.634 27.2784 46.712 27.2784C46.8107 27.2784 46.8835 27.2536 46.9303 27.2039C46.9771 27.1543 47.0187 27.1295 47.0551 27.1295C47.0914 27.1295 47.1226 27.1444 47.1486 27.1742C47.1746 27.2039 47.1876 27.2412 47.1876 27.2858C47.1876 27.3504 47.1642 27.3926 47.1174 27.4124C47.0758 27.4323 47.0343 27.4546 46.9927 27.4794C46.8523 27.5539 46.7172 27.6656 46.5872 27.8145C46.4625 27.9584 46.3377 28.1173 46.213 28.291C46.0934 28.4647 45.9738 28.6335 45.8543 28.7973C45.7347 28.9561 45.6152 29.0876 45.4956 29.1919C45.5996 29.2217 45.7269 29.2539 45.8777 29.2887C46.0284 29.3234 46.1662 29.3408 46.2909 29.3408C46.3221 29.3408 46.3481 29.3408 46.3689 29.3408C46.3949 29.3358 46.4209 29.3309 46.4469 29.3259C46.5664 29.2961 46.6782 29.2291 46.7821 29.1249C46.8861 29.0157 46.9823 28.8916 47.0706 28.7526C47.159 28.6136 47.237 28.4746 47.3046 28.3357C47.3773 28.1967 47.4371 28.0825 47.4839 27.9932C47.4995 27.9634 47.5229 27.9485 47.5541 27.9485C47.5853 27.9485 47.6009 27.9634 47.6009 27.9932C47.6009 28.018 47.5957 28.0403 47.5853 28.0602C47.4657 28.3332 47.3331 28.5962 47.1876 28.8494C47.0421 29.0976 46.8835 29.2986 46.712 29.4525C46.5456 29.6063 46.3637 29.6808 46.1662 29.6758C45.9427 29.6659 45.7451 29.6436 45.5736 29.6088C45.402 29.5741 45.2565 29.5567 45.1369 29.5567C45.0382 29.5567 44.942 29.5815 44.8485 29.6312C44.7601 29.6858 44.6639 29.7131 44.56 29.7131Z" fill="#A6992A"/>
<path d="M18.6446 34.9751H18.43C18.4173 34.9162 18.3951 34.8644 18.3634 34.8198C18.3322 34.7752 18.2941 34.7377 18.2491 34.7074C18.2047 34.6766 18.1554 34.6534 18.1012 34.638C18.047 34.6226 17.9904 34.6149 17.9316 34.6149C17.8243 34.6149 17.7271 34.6408 17.64 34.6925C17.5535 34.7443 17.4845 34.8206 17.4332 34.9214C17.3824 35.0222 17.357 35.1459 17.357 35.2924C17.357 35.4389 17.3824 35.5626 17.4332 35.6634C17.4845 35.7642 17.5535 35.8405 17.64 35.8923C17.7271 35.944 17.8243 35.9699 17.9316 35.9699C17.9904 35.9699 18.047 35.9622 18.1012 35.9468C18.1554 35.9314 18.2047 35.9085 18.2491 35.8782C18.2941 35.8474 18.3322 35.8096 18.3634 35.765C18.3951 35.7198 18.4173 35.6681 18.43 35.6097H18.6446C18.6284 35.6962 18.599 35.7735 18.5563 35.8419C18.5136 35.9102 18.4606 35.9683 18.3971 36.0162C18.3337 36.0636 18.2624 36.0996 18.1834 36.1244C18.1049 36.1492 18.021 36.1616 17.9316 36.1616C17.7805 36.1616 17.646 36.1264 17.5284 36.0558C17.4107 35.9853 17.3181 35.8851 17.2506 35.7551C17.1831 35.6251 17.1494 35.4709 17.1494 35.2924C17.1494 35.1139 17.1831 34.9597 17.2506 34.8297C17.3181 34.6997 17.4107 34.5995 17.5284 34.529C17.646 34.4584 17.7805 34.4232 17.9316 34.4232C18.021 34.4232 18.1049 34.4356 18.1834 34.4604C18.2624 34.4852 18.3337 34.5215 18.3971 34.5694C18.4606 34.6168 18.5136 34.6746 18.5563 34.7429C18.599 34.8107 18.6284 34.8881 18.6446 34.9751Z" fill="#A6992A"/>
<path d="M18.9913 36.1385V34.4463H19.5901C19.7286 34.4463 19.8422 34.4689 19.931 34.5141C20.0199 34.5587 20.0856 34.6201 20.1283 34.6983C20.171 34.7766 20.1923 34.8655 20.1923 34.9652C20.1923 35.0649 20.171 35.1533 20.1283 35.2304C20.0856 35.3075 20.0201 35.3681 19.9319 35.4122C19.8436 35.4557 19.7309 35.4775 19.5936 35.4775H19.109V35.2924H19.5866C19.6812 35.2924 19.7574 35.2792 19.8151 35.2527C19.8733 35.2263 19.9154 35.1888 19.9414 35.1404C19.9679 35.0913 19.9812 35.033 19.9812 34.9652C19.9812 34.8975 19.9679 34.8382 19.9414 34.7876C19.9149 34.7369 19.8725 34.6978 19.8142 34.6702C19.756 34.6421 19.6789 34.6281 19.5832 34.6281H19.2059V36.1385H18.9913ZM19.8255 35.3783L20.2616 36.1385H20.0124L19.5832 35.3783H19.8255Z" fill="#A6992A"/>
<path d="M20.5499 36.1385V34.4463H21.6194V34.6281H20.7645V35.1999H21.564V35.3816H20.7645V35.9567H21.6332V36.1385H20.5499Z" fill="#A6992A"/>
<path d="M22.9753 34.8694C22.9649 34.7856 22.9228 34.7206 22.849 34.6744C22.7751 34.6281 22.6845 34.605 22.5773 34.605C22.4988 34.605 22.4302 34.6171 22.3713 34.6413C22.3131 34.6656 22.2675 34.6989 22.2346 34.7413C22.2023 34.7837 22.1862 34.8319 22.1862 34.8859C22.1862 34.9311 22.1974 34.9699 22.2199 35.0024C22.243 35.0343 22.2724 35.0611 22.3082 35.0825C22.3439 35.1035 22.3814 35.1208 22.4206 35.1346C22.4599 35.1478 22.4959 35.1585 22.5288 35.1668L22.7088 35.2131C22.7549 35.2246 22.8063 35.2406 22.8628 35.261C22.9199 35.2814 22.9744 35.3092 23.0263 35.3445C23.0788 35.3792 23.1221 35.4238 23.1561 35.4783C23.1902 35.5328 23.2072 35.5998 23.2072 35.6791C23.2072 35.7705 23.1821 35.8531 23.1319 35.927C23.0823 36.0008 23.0096 36.0594 22.9138 36.1029C22.8187 36.1465 22.703 36.1682 22.5669 36.1682C22.44 36.1682 22.3301 36.1487 22.2372 36.1096C22.1449 36.0704 22.0722 36.0159 22.0192 35.946C21.9667 35.876 21.937 35.7948 21.93 35.7022H22.1515C22.1573 35.7661 22.1798 35.819 22.219 35.8609C22.2588 35.9022 22.309 35.933 22.3696 35.9534C22.4307 35.9732 22.4965 35.9831 22.5669 35.9831C22.6488 35.9831 22.7223 35.9705 22.7875 35.9451C22.8527 35.9192 22.9043 35.8834 22.9424 35.8377C22.9805 35.7915 22.9995 35.7375 22.9995 35.6758C22.9995 35.6196 22.9831 35.5739 22.9502 35.5386C22.9173 35.5034 22.874 35.4747 22.8204 35.4527C22.7668 35.4307 22.7088 35.4114 22.6465 35.3949L22.4284 35.3354C22.29 35.2974 22.1804 35.2431 22.0996 35.1726C22.0189 35.1021 21.9785 35.0098 21.9785 34.8958C21.9785 34.8011 22.0053 34.7184 22.059 34.6479C22.1132 34.5769 22.1859 34.5218 22.277 34.4827C22.3687 34.443 22.4711 34.4232 22.5842 34.4232C22.6984 34.4232 22.7999 34.4427 22.8888 34.4819C22.9776 34.5204 23.048 34.5733 23.0999 34.6405C23.1524 34.7077 23.1801 34.784 23.1829 34.8694H22.9753Z" fill="#A6992A"/>
<path d="M24.986 34.9751H24.7714C24.7587 34.9162 24.7365 34.8644 24.7048 34.8198C24.6736 34.7752 24.6355 34.7377 24.5905 34.7074C24.5461 34.6766 24.4968 34.6534 24.4426 34.638C24.3883 34.6226 24.3318 34.6149 24.273 34.6149C24.1657 34.6149 24.0685 34.6408 23.9814 34.6925C23.8949 34.7443 23.8259 34.8206 23.7746 34.9214C23.7238 35.0222 23.6984 35.1459 23.6984 35.2924C23.6984 35.4389 23.7238 35.5626 23.7746 35.6634C23.8259 35.7642 23.8949 35.8405 23.9814 35.8923C24.0685 35.944 24.1657 35.9699 24.273 35.9699C24.3318 35.9699 24.3883 35.9622 24.4426 35.9468C24.4968 35.9314 24.5461 35.9085 24.5905 35.8782C24.6355 35.8474 24.6736 35.8096 24.7048 35.765C24.7365 35.7198 24.7587 35.6681 24.7714 35.6097H24.986C24.9698 35.6962 24.9404 35.7735 24.8977 35.8419C24.855 35.9102 24.802 35.9683 24.7385 36.0162C24.675 36.0636 24.6038 36.0996 24.5248 36.1244C24.4463 36.1492 24.3624 36.1616 24.273 36.1616C24.1218 36.1616 23.9874 36.1264 23.8698 36.0558C23.7521 35.9853 23.6595 35.8851 23.592 35.7551C23.5245 35.6251 23.4908 35.4709 23.4908 35.2924C23.4908 35.1139 23.5245 34.9597 23.592 34.8297C23.6595 34.6997 23.7521 34.5995 23.8698 34.529C23.9874 34.4584 24.1218 34.4232 24.273 34.4232C24.3624 34.4232 24.4463 34.4356 24.5248 34.4604C24.6038 34.4852 24.675 34.5215 24.7385 34.5694C24.802 34.6168 24.855 34.6746 24.8977 34.7429C24.9404 34.8107 24.9698 34.8881 24.986 34.9751Z" fill="#A6992A"/>
<path d="M25.5473 34.4463V36.1385H25.3327V34.4463H25.5473Z" fill="#A6992A"/>
<path d="M26.0987 35.922C26.056 35.922 26.0194 35.9074 25.9888 35.8782C25.9582 35.849 25.943 35.814 25.943 35.7733C25.943 35.7325 25.9582 35.6975 25.9888 35.6683C26.0194 35.6391 26.056 35.6246 26.0987 35.6246C26.1414 35.6246 26.178 35.6391 26.2086 35.6683C26.2392 35.6975 26.2545 35.7325 26.2545 35.7733C26.2545 35.8003 26.2472 35.8251 26.2328 35.8476C26.219 35.8702 26.2002 35.8884 26.1766 35.9022C26.1535 35.9154 26.1276 35.922 26.0987 35.922ZM26.0987 35.066C26.056 35.066 26.0194 35.0514 25.9888 35.0222C25.9582 34.993 25.943 34.958 25.943 34.9173C25.943 34.8765 25.9582 34.8415 25.9888 34.8124C26.0194 34.7832 26.056 34.7686 26.0987 34.7686C26.1414 34.7686 26.178 34.7832 26.2086 34.8124C26.2392 34.8415 26.2545 34.8765 26.2545 34.9173C26.2545 34.9443 26.2472 34.9691 26.2328 34.9916C26.219 35.0142 26.2002 35.0324 26.1766 35.0462C26.1535 35.0594 26.1276 35.066 26.0987 35.066Z" fill="#A6992A"/>
<path d="M27.2612 35.7915V35.6229L28.04 34.4463H28.168V34.7074H28.0815L27.4931 35.5965V35.6097H28.5418V35.7915H27.2612ZM28.0953 36.1385V34.4463H28.2995V36.1385H28.0953Z" fill="#A6992A"/>
<path d="M29.4302 34.4232C29.5029 34.4237 29.5756 34.437 29.6483 34.4629C29.721 34.4887 29.7873 34.5317 29.8473 34.5917C29.9073 34.6512 29.9555 34.7325 29.9918 34.8355C30.0281 34.9385 30.0463 35.0677 30.0463 35.223C30.0463 35.3734 30.0313 35.5069 30.0013 35.6237C29.9719 35.7399 29.9292 35.838 29.8733 35.9179C29.8179 35.9977 29.7504 36.0583 29.6708 36.0996C29.5918 36.141 29.5023 36.1616 29.4026 36.1616C29.3033 36.1616 29.2148 36.1429 29.1369 36.1054C29.0596 36.0674 28.9962 36.0148 28.9465 35.9476C28.8975 35.8799 28.8661 35.8014 28.8522 35.7121H29.0634C29.0824 35.7898 29.1202 35.854 29.1767 35.9046C29.2338 35.9548 29.3091 35.9798 29.4026 35.9798C29.5393 35.9798 29.6471 35.9228 29.7262 35.8088C29.8058 35.6948 29.8456 35.5337 29.8456 35.3255H29.8317C29.7994 35.3717 29.7611 35.4117 29.7166 35.4453C29.6722 35.4789 29.6229 35.5047 29.5687 35.5229C29.5145 35.5411 29.4568 35.5502 29.3956 35.5502C29.2941 35.5502 29.2009 35.5262 29.1161 35.4783C29.0319 35.4298 28.9644 35.3635 28.9137 35.2792C28.8635 35.1944 28.8384 35.0974 28.8384 34.9883C28.8384 34.8848 28.8626 34.79 28.9111 34.7041C28.9601 34.6176 29.0288 34.5488 29.117 34.4976C29.2058 34.4463 29.3103 34.4215 29.4302 34.4232ZM29.4302 34.605C29.3576 34.605 29.2921 34.6223 29.2338 34.657C29.1761 34.6912 29.1303 34.7374 29.0962 34.7958C29.0628 34.8537 29.0461 34.9178 29.0461 34.9883C29.0461 35.0588 29.0622 35.123 29.0945 35.1809C29.1274 35.2381 29.1721 35.2839 29.2286 35.318C29.2857 35.3516 29.3506 35.3684 29.4233 35.3684C29.4781 35.3684 29.5292 35.3582 29.5765 35.3378C29.6238 35.3169 29.665 35.2885 29.7002 35.2527C29.736 35.2164 29.7639 35.1753 29.7841 35.1296C29.8043 35.0834 29.8144 35.0352 29.8144 34.985C29.8144 34.9189 29.7977 34.857 29.7642 34.7991C29.7314 34.7413 29.6858 34.6945 29.6275 34.6587C29.5698 34.6229 29.5041 34.605 29.4302 34.605Z" fill="#A6992A"/>
<path d="M31.0096 34.4463V36.1385H30.795V34.6612H30.7846L30.352 34.9355V34.7273L30.795 34.4463H31.0096Z" fill="#A6992A"/>
<path d="M32.118 36.1616C32.0038 36.1616 31.902 36.1429 31.8126 36.1054C31.7237 36.068 31.6531 36.0159 31.6006 35.9493C31.5487 35.8821 31.5204 35.8041 31.5158 35.7154H31.7338C31.7384 35.77 31.758 35.8171 31.7927 35.8567C31.8273 35.8958 31.8726 35.9261 31.9285 35.9476C31.9845 35.9691 32.0465 35.9798 32.1145 35.9798C32.1907 35.9798 32.2582 35.9672 32.317 35.9418C32.3759 35.9165 32.422 35.8812 32.4555 35.8361C32.4889 35.7909 32.5056 35.7386 32.5056 35.6791C32.5056 35.6168 32.4895 35.562 32.4572 35.5147C32.4249 35.4667 32.3776 35.4293 32.3153 35.4023C32.253 35.3753 32.1768 35.3618 32.0869 35.3618H31.9449V35.18H32.0869C32.1572 35.18 32.219 35.1679 32.272 35.1437C32.3257 35.1194 32.3675 35.0853 32.3975 35.0412C32.4281 34.9972 32.4433 34.9454 32.4433 34.8859C32.4433 34.8286 32.4301 34.7788 32.4035 34.7363C32.377 34.6939 32.3395 34.6609 32.2911 34.6372C32.2432 34.6135 32.1866 34.6017 32.1215 34.6017C32.0603 34.6017 32.0026 34.6124 31.9484 34.6339C31.8948 34.6548 31.8509 34.6854 31.8169 34.7256C31.7829 34.7653 31.7644 34.8132 31.7615 34.8694H31.5538C31.5573 34.7807 31.5853 34.703 31.6378 34.6364C31.6903 34.5692 31.7589 34.5168 31.8437 34.4794C31.9291 34.4419 32.0228 34.4232 32.1249 34.4232C32.2345 34.4232 32.3286 34.4444 32.407 34.4868C32.4855 34.5287 32.5457 34.584 32.5878 34.6529C32.63 34.7217 32.651 34.7961 32.651 34.876C32.651 34.9713 32.6248 35.0525 32.5723 35.1197C32.5204 35.1869 32.4497 35.2335 32.3603 35.2594V35.2726C32.4722 35.2902 32.5596 35.3356 32.6225 35.4089C32.6853 35.4816 32.7168 35.5717 32.7168 35.6791C32.7168 35.7711 32.6905 35.8537 32.638 35.927C32.5861 35.9997 32.5152 36.057 32.4252 36.0988C32.3352 36.1407 32.2328 36.1616 32.118 36.1616Z" fill="#A6992A"/>
<path d="M33.1018 36.1385V34.4463H34.1644V34.6281H33.3164V35.1999H34.0848V35.3816H33.3164V36.1385H33.1018Z" fill="#A6992A"/>
<path d="M14.9897 31.2524H14.7751C14.7624 31.1935 14.7402 31.1417 14.7084 31.0971C14.6773 31.0525 14.6392 31.015 14.5942 30.9847C14.5498 30.9539 14.5005 30.9307 14.4463 30.9153C14.392 30.8999 14.3355 30.8922 14.2767 30.8922C14.1694 30.8922 14.0722 30.9181 13.9851 30.9698C13.8985 31.0216 13.8296 31.0979 13.7783 31.1987C13.7275 31.2995 13.7021 31.4232 13.7021 31.5697C13.7021 31.7162 13.7275 31.8399 13.7783 31.9407C13.8296 32.0415 13.8985 32.1178 13.9851 32.1695C14.0722 32.2213 14.1694 32.2472 14.2767 32.2472C14.3355 32.2472 14.392 32.2395 14.4463 32.2241C14.5005 32.2086 14.5498 32.1858 14.5942 32.1555C14.6392 32.1246 14.6773 32.0869 14.7084 32.0423C14.7402 31.9971 14.7624 31.9453 14.7751 31.887H14.9897C14.9735 31.9734 14.9441 32.0508 14.9014 32.1191C14.8587 32.1874 14.8056 32.2455 14.7422 32.2935C14.6787 32.3408 14.6075 32.3769 14.5285 32.4017C14.45 32.4265 14.3661 32.4389 14.2767 32.4389C14.1255 32.4389 13.9911 32.4036 13.8734 32.3331C13.7558 32.2626 13.6632 32.1624 13.5957 32.0324C13.5282 31.9024 13.4945 31.7482 13.4945 31.5697C13.4945 31.3912 13.5282 31.237 13.5957 31.107C13.6632 30.977 13.7558 30.8767 13.8734 30.8062C13.9911 30.7357 14.1255 30.7005 14.2767 30.7005C14.3661 30.7005 14.45 30.7129 14.5285 30.7377C14.6075 30.7624 14.6787 30.7988 14.7422 30.8467C14.8056 30.8941 14.8587 30.9519 14.9014 31.0202C14.9441 31.088 14.9735 31.1654 14.9897 31.2524Z" fill="#A6992A"/>
<path d="M15.8487 32.4422C15.7287 32.4422 15.6234 32.4149 15.5328 32.3604C15.4428 32.3059 15.3725 32.2296 15.3217 32.1315C15.2715 32.0335 15.2464 31.9189 15.2464 31.7878C15.2464 31.6556 15.2715 31.5402 15.3217 31.4416C15.3725 31.343 15.4428 31.2665 15.5328 31.2119C15.6234 31.1574 15.7287 31.1301 15.8487 31.1301C15.9686 31.1301 16.0736 31.1574 16.1636 31.2119C16.2542 31.2665 16.3246 31.343 16.3747 31.4416C16.4255 31.5402 16.4509 31.6556 16.4509 31.7878C16.4509 31.9189 16.4255 32.0335 16.3747 32.1315C16.3246 32.2296 16.2542 32.3059 16.1636 32.3604C16.0736 32.4149 15.9686 32.4422 15.8487 32.4422ZM15.8487 32.267C15.9398 32.267 16.0148 32.2447 16.0736 32.2001C16.1325 32.1555 16.176 32.0968 16.2043 32.0241C16.2325 31.9514 16.2467 31.8726 16.2467 31.7878C16.2467 31.703 16.2325 31.6239 16.2043 31.5507C16.176 31.4774 16.1325 31.4182 16.0736 31.373C16.0148 31.3279 15.9398 31.3053 15.8487 31.3053C15.7575 31.3053 15.6825 31.3279 15.6237 31.373C15.5648 31.4182 15.5213 31.4774 15.493 31.5507C15.4648 31.6239 15.4506 31.703 15.4506 31.7878C15.4506 31.8726 15.4648 31.9514 15.493 32.0241C15.5213 32.0968 15.5648 32.1555 15.6237 32.2001C15.6825 32.2447 15.7575 32.267 15.8487 32.267Z" fill="#A6992A"/>
<path d="M16.7626 32.4158V31.1466H16.9599V31.3383H16.9737C16.998 31.2755 17.0418 31.2246 17.1053 31.1855C17.1687 31.1464 17.2402 31.1268 17.3198 31.1268C17.3348 31.1268 17.3536 31.1271 17.3761 31.1276C17.3986 31.1282 17.4156 31.129 17.4271 31.1301V31.3284C17.4202 31.3268 17.4043 31.3243 17.3795 31.321C17.3553 31.3171 17.3296 31.3152 17.3025 31.3152C17.2379 31.3152 17.1802 31.3281 17.1295 31.354C17.0793 31.3794 17.0395 31.4146 17.0101 31.4598C16.9812 31.5044 16.9668 31.5554 16.9668 31.6126V32.4158H16.7626Z" fill="#A6992A"/>
<path d="M17.6692 32.4158V31.1466H17.8665V31.3383H17.8803C17.9045 31.2755 17.9484 31.2246 18.0118 31.1855C18.0753 31.1464 18.1468 31.1268 18.2264 31.1268C18.2414 31.1268 18.2602 31.1271 18.2827 31.1276C18.3052 31.1282 18.3222 31.129 18.3337 31.1301V31.3284C18.3268 31.3268 18.3109 31.3243 18.2861 31.321C18.2619 31.3171 18.2362 31.3152 18.2091 31.3152C18.1445 31.3152 18.0868 31.3281 18.0361 31.354C17.9859 31.3794 17.9461 31.4146 17.9167 31.4598C17.8878 31.5044 17.8734 31.5554 17.8734 31.6126V32.4158H17.6692Z" fill="#A6992A"/>
<path d="M19.0926 32.4422C18.9645 32.4422 18.854 32.4152 18.7612 32.3612C18.6689 32.3067 18.5976 32.2307 18.5474 32.1332C18.4978 32.0351 18.473 31.9211 18.473 31.7911C18.473 31.6611 18.4978 31.5465 18.5474 31.4474C18.5976 31.3477 18.6674 31.27 18.7568 31.2144C18.8468 31.1582 18.9518 31.1301 19.0718 31.1301C19.141 31.1301 19.2094 31.1411 19.2769 31.1632C19.3444 31.1852 19.4058 31.221 19.4612 31.2706C19.5166 31.3196 19.5607 31.3846 19.5936 31.4656C19.6264 31.5465 19.6429 31.6462 19.6429 31.7647V31.8473H18.6184V31.6787H19.4352C19.4352 31.6071 19.4202 31.5432 19.3902 31.4871C19.3608 31.4309 19.3187 31.3865 19.2639 31.354C19.2097 31.3215 19.1456 31.3053 19.0718 31.3053C18.9905 31.3053 18.9201 31.3246 18.8607 31.3631C18.8018 31.4011 18.7566 31.4507 18.7248 31.5118C18.6931 31.573 18.6772 31.6385 18.6772 31.7085V31.8209C18.6772 31.9167 18.6945 31.998 18.7292 32.0646C18.7643 32.1307 18.8131 32.1811 18.8754 32.2158C18.9377 32.25 19.0101 32.267 19.0926 32.267C19.1462 32.267 19.1947 32.2599 19.2379 32.2455C19.2818 32.2307 19.3196 32.2086 19.3513 32.1794C19.383 32.1497 19.4075 32.1128 19.4248 32.0687L19.6221 32.1216C19.6014 32.1855 19.5665 32.2417 19.5174 32.2902C19.4684 32.3381 19.4078 32.3755 19.3357 32.4025C19.2636 32.429 19.1826 32.4422 19.0926 32.4422Z" fill="#A6992A"/>
<path d="M20.5315 31.1466V31.3119H19.8428V31.1466H20.5315ZM20.0435 30.8426H20.2477V32.0522C20.2477 32.1073 20.2561 32.1486 20.2728 32.1761C20.2901 32.2031 20.312 32.2213 20.3386 32.2307C20.3657 32.2395 20.3942 32.2439 20.4242 32.2439C20.4467 32.2439 20.4652 32.2428 20.4796 32.2406C20.494 32.2378 20.5056 32.2356 20.5142 32.234L20.5558 32.4091C20.5419 32.4141 20.5226 32.4191 20.4978 32.424C20.473 32.4295 20.4415 32.4323 20.4035 32.4323C20.3458 32.4323 20.2892 32.4204 20.2339 32.3968C20.1791 32.3731 20.1335 32.337 20.0972 32.2885C20.0614 32.24 20.0435 32.1789 20.0435 32.1051V30.8426Z" fill="#A6992A"/>
<path d="M21.3644 32.4422C21.2444 32.4422 21.1391 32.4149 21.0485 32.3604C20.9585 32.3059 20.8882 32.2296 20.8374 32.1315C20.7872 32.0335 20.7621 31.9189 20.7621 31.7878C20.7621 31.6556 20.7872 31.5402 20.8374 31.4416C20.8882 31.343 20.9585 31.2665 21.0485 31.2119C21.1391 31.1574 21.2444 31.1301 21.3644 31.1301C21.4843 31.1301 21.5893 31.1574 21.6793 31.2119C21.7699 31.2665 21.8403 31.343 21.8904 31.4416C21.9412 31.5402 21.9666 31.6556 21.9666 31.7878C21.9666 31.9189 21.9412 32.0335 21.8904 32.1315C21.8403 32.2296 21.7699 32.3059 21.6793 32.3604C21.5893 32.4149 21.4843 32.4422 21.3644 32.4422ZM21.3644 32.267C21.4555 32.267 21.5305 32.2447 21.5893 32.2001C21.6482 32.1555 21.6917 32.0968 21.72 32.0241C21.7482 31.9514 21.7624 31.8726 21.7624 31.7878C21.7624 31.703 21.7482 31.6239 21.72 31.5507C21.6917 31.4774 21.6482 31.4182 21.5893 31.373C21.5305 31.3279 21.4555 31.3053 21.3644 31.3053C21.2732 31.3053 21.1982 31.3279 21.1394 31.373C21.0805 31.4182 21.037 31.4774 21.0087 31.5507C20.9805 31.6239 20.9663 31.703 20.9663 31.7878C20.9663 31.8726 20.9805 31.9514 21.0087 32.0241C21.037 32.0968 21.0805 32.1555 21.1394 32.2001C21.1982 32.2447 21.2732 32.267 21.3644 32.267Z" fill="#A6992A"/>
<path d="M22.2783 32.4158V31.1466H22.4756V31.3383H22.4894C22.5137 31.2755 22.5575 31.2246 22.621 31.1855C22.6844 31.1464 22.7559 31.1268 22.8355 31.1268C22.8505 31.1268 22.8693 31.1271 22.8918 31.1276C22.9143 31.1282 22.9313 31.129 22.9428 31.1301V31.3284C22.9359 31.3268 22.92 31.3243 22.8952 31.321C22.871 31.3171 22.8453 31.3152 22.8182 31.3152C22.7536 31.3152 22.6959 31.3281 22.6452 31.354C22.595 31.3794 22.5552 31.4146 22.5258 31.4598C22.4969 31.5044 22.4825 31.5554 22.4825 31.6126V32.4158H22.2783Z" fill="#A6992A"/>
<path d="M23.576 32.4455C23.4918 32.4455 23.4153 32.4304 23.3467 32.4001C23.2781 32.3692 23.2235 32.3249 23.1832 32.267C23.1428 32.2086 23.1226 32.1381 23.1226 32.0555C23.1226 31.9828 23.1376 31.9239 23.1676 31.8787C23.1976 31.833 23.2377 31.7972 23.2879 31.7713C23.338 31.7454 23.3934 31.7261 23.454 31.7134C23.5151 31.7002 23.5766 31.6898 23.6383 31.6821C23.7191 31.6721 23.7845 31.6647 23.8347 31.6597C23.8855 31.6542 23.9224 31.6451 23.9455 31.6325C23.9691 31.6198 23.9809 31.5978 23.9809 31.5664V31.5598C23.9809 31.4782 23.9576 31.4149 23.9109 31.3697C23.8647 31.3246 23.7946 31.302 23.7006 31.302C23.6031 31.302 23.5267 31.3224 23.4713 31.3631C23.4159 31.4039 23.377 31.4474 23.3545 31.4937L23.1607 31.4276C23.1953 31.3505 23.2414 31.2904 23.2991 31.2474C23.3574 31.2039 23.4208 31.1736 23.4895 31.1566C23.5587 31.1389 23.6268 31.1301 23.6937 31.1301C23.7364 31.1301 23.7854 31.1351 23.8408 31.145C23.8967 31.1544 23.9507 31.1739 24.0026 31.2037C24.0551 31.2334 24.0986 31.2783 24.1332 31.3383C24.1678 31.3984 24.1852 31.4788 24.1852 31.5796V32.4158H23.9809V32.2439H23.9706C23.9567 32.2714 23.9336 32.3009 23.9013 32.3323C23.869 32.3637 23.8261 32.3904 23.7724 32.4125C23.7188 32.4345 23.6533 32.4455 23.576 32.4455ZM23.6072 32.2703C23.6879 32.2703 23.756 32.2552 23.8114 32.2249C23.8673 32.1946 23.9094 32.1555 23.9377 32.1076C23.9665 32.0596 23.9809 32.0092 23.9809 31.9564V31.7779C23.9723 31.7878 23.9533 31.7969 23.9238 31.8052C23.895 31.8129 23.8615 31.8198 23.8235 31.8258C23.786 31.8313 23.7493 31.8363 23.7136 31.8407C23.6784 31.8445 23.6498 31.8479 23.6279 31.8506C23.5748 31.8572 23.5252 31.868 23.4791 31.8828C23.4335 31.8971 23.3966 31.9189 23.3683 31.9481C23.3406 31.9767 23.3268 32.0159 23.3268 32.0654C23.3268 32.1332 23.353 32.1844 23.4055 32.2191C23.4586 32.2533 23.5258 32.2703 23.6072 32.2703Z" fill="#A6992A"/>
<path d="M25.745 32.4422C25.6343 32.4422 25.5365 32.4155 25.4517 32.362C25.3669 32.3081 25.3006 32.2321 25.2527 32.134C25.2048 32.0354 25.1809 31.9189 25.1809 31.7845C25.1809 31.6512 25.2048 31.5355 25.2527 31.4375C25.3006 31.3394 25.3672 31.2637 25.4526 31.2103C25.5379 31.1568 25.6366 31.1301 25.7485 31.1301C25.835 31.1301 25.9034 31.1439 25.9536 31.1714C26.0043 31.1984 26.043 31.2293 26.0695 31.264C26.0966 31.2981 26.1177 31.3262 26.1327 31.3482H26.15V30.7236H26.3542V32.4158H26.1569V32.2208H26.1327C26.1177 32.2439 26.0963 32.2731 26.0686 32.3083C26.041 32.343 26.0014 32.3742 25.9501 32.4017C25.8988 32.4287 25.8304 32.4422 25.745 32.4422ZM25.7727 32.267C25.8546 32.267 25.9239 32.2467 25.9804 32.2059C26.0369 32.1646 26.0799 32.1076 26.1093 32.0349C26.1387 31.9616 26.1534 31.877 26.1534 31.7812C26.1534 31.6865 26.139 31.6036 26.1102 31.5325C26.0813 31.4609 26.0386 31.4053 25.9821 31.3656C25.9256 31.3254 25.8558 31.3053 25.7727 31.3053C25.6862 31.3053 25.6141 31.3265 25.5564 31.3689C25.4993 31.4108 25.4563 31.4678 25.4275 31.5399C25.3992 31.6115 25.3851 31.692 25.3851 31.7812C25.3851 31.8715 25.3995 31.9536 25.4283 32.0274C25.4578 32.1007 25.501 32.1591 25.5581 32.2026C25.6158 32.2455 25.6873 32.267 25.7727 32.267Z" fill="#A6992A"/>
<path d="M27.3138 32.4422C27.1857 32.4422 27.0752 32.4152 26.9824 32.3612C26.8901 32.3067 26.8188 32.2307 26.7687 32.1332C26.719 32.0351 26.6942 31.9211 26.6942 31.7911C26.6942 31.6611 26.719 31.5465 26.7687 31.4474C26.8188 31.3477 26.8886 31.27 26.978 31.2144C27.068 31.1582 27.173 31.1301 27.293 31.1301C27.3622 31.1301 27.4306 31.1411 27.4981 31.1632C27.5656 31.1852 27.627 31.221 27.6824 31.2706C27.7378 31.3196 27.7819 31.3846 27.8148 31.4656C27.8477 31.5465 27.8641 31.6462 27.8641 31.7647V31.8473H26.8396V31.6787H27.6564C27.6564 31.6071 27.6414 31.5432 27.6114 31.4871C27.582 31.4309 27.5399 31.3865 27.4851 31.354C27.4309 31.3215 27.3668 31.3053 27.293 31.3053C27.2117 31.3053 27.1413 31.3246 27.0819 31.3631C27.023 31.4011 26.9778 31.4507 26.946 31.5118C26.9143 31.573 26.8984 31.6385 26.8984 31.7085V31.8209C26.8984 31.9167 26.9157 31.998 26.9504 32.0646C26.9855 32.1307 27.0343 32.1811 27.0966 32.2158C27.1589 32.25 27.2313 32.267 27.3138 32.267C27.3674 32.267 27.4159 32.2599 27.4591 32.2455C27.503 32.2307 27.5408 32.2086 27.5725 32.1794C27.6042 32.1497 27.6287 32.1128 27.646 32.0687L27.8433 32.1216C27.8226 32.1855 27.7877 32.2417 27.7386 32.2902C27.6896 32.3381 27.629 32.3755 27.5569 32.4025C27.4848 32.429 27.4038 32.4422 27.3138 32.4422Z" fill="#A6992A"/>
<path d="M29.1023 30.7236V32.4158H28.8877V30.7236H29.1023Z" fill="#A6992A"/>
<path d="M29.5049 32.4158V31.1466H29.7022V31.3449H29.7195C29.7471 31.2772 29.7919 31.2246 29.8536 31.1871C29.9153 31.1491 29.9894 31.1301 30.076 31.1301C30.1636 31.1301 30.2366 31.1491 30.2949 31.1871C30.3537 31.2246 30.3996 31.2772 30.4324 31.3449H30.4463C30.4803 31.2794 30.5314 31.2273 30.5994 31.1888C30.6675 31.1497 30.7491 31.1301 30.8443 31.1301C30.9631 31.1301 31.0603 31.1656 31.1359 31.2367C31.2115 31.3072 31.2493 31.4171 31.2493 31.5664V32.4158H31.0451V31.5664C31.0451 31.4727 31.0182 31.4058 30.9646 31.3656C30.9109 31.3254 30.8478 31.3053 30.7751 31.3053C30.6816 31.3053 30.6092 31.3323 30.5579 31.3863C30.5066 31.4397 30.4809 31.5074 30.4809 31.5895V32.4158H30.2732V31.5465C30.2732 31.4744 30.2487 31.4163 30.1997 31.3722C30.1507 31.3276 30.0875 31.3053 30.0102 31.3053C29.9571 31.3053 29.9075 31.3188 29.8614 31.3458C29.8158 31.3728 29.7789 31.4102 29.7506 31.4581C29.7229 31.5055 29.7091 31.5603 29.7091 31.6226V32.4158H29.5049Z" fill="#A6992A"/>
<path d="M32.1626 32.4422C32.0426 32.4422 31.9373 32.4149 31.8467 32.3604C31.7567 32.3059 31.6864 32.2296 31.6356 32.1315C31.5854 32.0335 31.5603 31.9189 31.5603 31.7878C31.5603 31.6556 31.5854 31.5402 31.6356 31.4416C31.6864 31.343 31.7567 31.2665 31.8467 31.2119C31.9373 31.1574 32.0426 31.1301 32.1626 31.1301C32.2825 31.1301 32.3875 31.1574 32.4775 31.2119C32.5681 31.2665 32.6385 31.343 32.6887 31.4416C32.7394 31.5402 32.7648 31.6556 32.7648 31.7878C32.7648 31.9189 32.7394 32.0335 32.6887 32.1315C32.6385 32.2296 32.5681 32.3059 32.4775 32.3604C32.3875 32.4149 32.2825 32.4422 32.1626 32.4422ZM32.1626 32.267C32.2537 32.267 32.3287 32.2447 32.3875 32.2001C32.4464 32.1555 32.4899 32.0968 32.5182 32.0241C32.5465 31.9514 32.5606 31.8726 32.5606 31.7878C32.5606 31.703 32.5465 31.6239 32.5182 31.5507C32.4899 31.4774 32.4464 31.4182 32.3875 31.373C32.3287 31.3279 32.2537 31.3053 32.1626 31.3053C32.0714 31.3053 31.9964 31.3279 31.9376 31.373C31.8788 31.4182 31.8352 31.4774 31.8069 31.5507C31.7787 31.6239 31.7645 31.703 31.7645 31.7878C31.7645 31.8726 31.7787 31.9514 31.8069 32.0241C31.8352 32.0968 31.8788 32.1555 31.9376 32.2001C31.9964 32.2447 32.0714 32.267 32.1626 32.267ZM32.0691 30.9748L32.2802 30.5914H32.5191L32.2491 30.9748H32.0691Z" fill="#A6992A"/>
<path d="M34.1157 31.1466L33.6242 32.4158H33.4166L32.9251 31.1466H33.1466L33.5135 32.158H33.5273L33.8942 31.1466H34.1157Z" fill="#A6992A"/>
<path d="M34.8949 32.4422C34.7668 32.4422 34.6564 32.4152 34.5635 32.3612C34.4712 32.3067 34.4 32.2307 34.3498 32.1332C34.3002 32.0351 34.2754 31.9211 34.2754 31.7911C34.2754 31.6611 34.3002 31.5465 34.3498 31.4474C34.4 31.3477 34.4697 31.27 34.5592 31.2144C34.6491 31.1582 34.7541 31.1301 34.8741 31.1301C34.9433 31.1301 35.0117 31.1411 35.0792 31.1632C35.1467 31.1852 35.2081 31.221 35.2635 31.2706C35.3189 31.3196 35.363 31.3846 35.3959 31.4656C35.4288 31.5465 35.4452 31.6462 35.4452 31.7647V31.8473H34.4207V31.6787H35.2375C35.2375 31.6071 35.2225 31.5432 35.1925 31.4871C35.1631 31.4309 35.121 31.3865 35.0662 31.354C35.012 31.3215 34.948 31.3053 34.8741 31.3053C34.7928 31.3053 34.7224 31.3246 34.663 31.3631C34.6042 31.4011 34.5589 31.4507 34.5271 31.5118C34.4954 31.573 34.4796 31.6385 34.4796 31.7085V31.8209C34.4796 31.9167 34.4969 31.998 34.5315 32.0646C34.5667 32.1307 34.6154 32.1811 34.6777 32.2158C34.74 32.25 34.8124 32.267 34.8949 32.267C34.9485 32.267 34.997 32.2599 35.0403 32.2455C35.0841 32.2307 35.1219 32.2086 35.1536 32.1794C35.1853 32.1497 35.2098 32.1128 35.2272 32.0687L35.4244 32.1216C35.4037 32.1855 35.3688 32.2417 35.3197 32.2902C35.2707 32.3381 35.2101 32.3755 35.138 32.4025C35.0659 32.429 34.9849 32.4422 34.8949 32.4422Z" fill="#A6992A"/>
<path d="M35.7558 32.4158V31.1466H35.96V32.4158H35.7558ZM35.8597 30.9351C35.8199 30.9351 35.7855 30.9222 35.7567 30.8963C35.7284 30.8704 35.7143 30.8393 35.7143 30.8029C35.7143 30.7666 35.7284 30.7355 35.7567 30.7096C35.7855 30.6837 35.8199 30.6707 35.8597 30.6707C35.8995 30.6707 35.9335 30.6837 35.9618 30.7096C35.9906 30.7355 36.005 30.7666 36.005 30.8029C36.005 30.8393 35.9906 30.8704 35.9618 30.8963C35.9335 30.9222 35.8995 30.9351 35.8597 30.9351Z" fill="#A6992A"/>
<path d="M37.2755 31.4309L37.092 31.4804C37.0805 31.4513 37.0635 31.4229 37.041 31.3953C37.0191 31.3673 36.9891 31.3441 36.951 31.3259C36.9129 31.3078 36.8642 31.2987 36.8048 31.2987C36.7234 31.2987 36.6557 31.3166 36.6014 31.3524C36.5478 31.3876 36.521 31.4325 36.521 31.4871C36.521 31.5355 36.5394 31.5738 36.5763 31.6019C36.6133 31.63 36.6709 31.6534 36.7494 31.6721L36.9467 31.7184C37.0655 31.7459 37.1541 31.7881 37.2123 31.8448C37.2706 31.901 37.2997 31.9734 37.2997 32.0621C37.2997 32.1348 37.2778 32.1998 37.2339 32.2571C37.1907 32.3144 37.1301 32.3596 37.0522 32.3926C36.9744 32.4257 36.8838 32.4422 36.7805 32.4422C36.645 32.4422 36.5328 32.4141 36.4439 32.3579C36.3551 32.3017 36.2989 32.2197 36.2752 32.1117L36.469 32.0654C36.4875 32.1337 36.5224 32.185 36.5737 32.2191C36.6257 32.2533 36.6934 32.2703 36.7771 32.2703C36.8723 32.2703 36.9478 32.2511 37.0038 32.2125C37.0603 32.1734 37.0886 32.1266 37.0886 32.072C37.0886 32.028 37.0724 31.9911 37.0401 31.9613C37.0078 31.931 36.9582 31.9084 36.8913 31.8936L36.6698 31.844C36.5481 31.8165 36.4587 31.7738 36.4015 31.7159C36.345 31.6575 36.3168 31.5846 36.3168 31.497C36.3168 31.4254 36.3378 31.362 36.3799 31.3069C36.4226 31.2519 36.4806 31.2086 36.5538 31.1772C36.6277 31.1458 36.7113 31.1301 36.8048 31.1301C36.9363 31.1301 37.0395 31.1577 37.1145 31.2127C37.1901 31.2678 37.2438 31.3405 37.2755 31.4309Z" fill="#A6992A"/>
<path d="M47.8445 24.229L25.3064 15.9447L2.76834 24.229" stroke="#A6992A" stroke-width="0.48731" stroke-linecap="round" stroke-linejoin="round"/>
<defs>
<filter id="filter0_d_47_96" x="0.0881224" y="0.838122" width="50.4365" height="50.4365" filterUnits="userSpaceOnUse" color-interpolation-filters="sRGB">
<feFlood flood-opacity="0" result="BackgroundImageFix"/>
<feColorMatrix in="SourceAlpha" type="matrix" values="0 0 0 0 0 0 0 0 0 0 0 0 0 0 0 0 0 0 127 0" result="hardAlpha"/>
<feMorphology radius="0.243655" operator="dilate" in="SourceAlpha" result="effect1_dropShadow_47_96"/>
<feOffset/>
<feGaussianBlur stdDeviation="0.48731"/>
<feComposite in2="hardAlpha" operator="out"/>
<feColorMatrix type="matrix" values="0 0 0 0 1 0 0 0 0 0.84 0 0 0 0 0 0 0 0 0.3 0"/>
<feBlend mode="normal" in2="BackgroundImageFix" result="effect1_dropShadow_47_96"/>
<feBlend mode="normal" in="SourceGraphic" in2="effect1_dropShadow_47_96" result="shape"/>
</filter>
</defs>
</svg>
