<svg width="52" height="52" viewBox="0 0 52 52" fill="none" xmlns="http://www.w3.org/2000/svg">
<g filter="url(#filter0_d_47_96)">
<circle cx="26" cy="26" r="24" fill="black"/>
<circle cx="26" cy="26" r="23.8782" stroke="#A6992A" stroke-width="0.243655"/>
</g>
<path d="M9.09928 30.4197C8.87603 30.4197 8.71874 30.3254 8.62741 30.1368C8.53608 29.9536 8.49041 29.7381 8.49041 29.4902C8.49041 29.2693 8.51832 29.0511 8.57413 28.8355C8.63502 28.62 8.70605 28.4556 8.78723 28.3425C8.65024 28.5149 8.48026 28.7116 8.27731 28.9325C8.07435 29.1534 7.8511 29.3663 7.60756 29.571C7.36401 29.7758 7.11285 29.9455 6.85409 30.0803C6.59532 30.215 6.33909 30.2823 6.0854 30.2823C6.00929 30.2823 5.93318 30.2742 5.85707 30.2581C5.78604 30.2473 5.715 30.2257 5.64397 30.1934C5.45623 30.1126 5.3167 29.9698 5.22537 29.765C5.13404 29.5549 5.08838 29.3043 5.08838 29.0133C5.08838 28.7062 5.13658 28.3775 5.23298 28.0272C5.33446 27.6716 5.4816 27.3106 5.67441 26.9442C5.76574 26.7663 5.86722 26.5912 5.97884 26.4188C6.09554 26.241 6.21985 26.0739 6.35177 25.9177C6.19448 25.8422 6.04988 25.7587 5.91796 25.6671C5.78604 25.5701 5.67441 25.465 5.58308 25.3519C5.5222 25.2764 5.47653 25.1875 5.44609 25.0851C5.41564 24.9828 5.40042 24.8831 5.40042 24.7861C5.40042 24.6136 5.43848 24.5005 5.51458 24.4466C5.53995 24.4035 5.5704 24.3819 5.60591 24.3819C5.65158 24.3819 5.67441 24.4116 5.67441 24.4709C5.67441 24.5086 5.66426 24.549 5.64397 24.5921C5.6186 24.6621 5.60591 24.7268 5.60591 24.7861C5.60591 24.8723 5.62621 24.9531 5.6668 25.0286C5.70739 25.0986 5.75559 25.166 5.81141 25.2306C5.97377 25.4354 6.19702 25.6051 6.48116 25.7398C6.80589 25.3626 7.16106 25.0151 7.54667 24.6972C7.93736 24.3739 8.35595 24.1152 8.80245 23.9212C9.24896 23.7272 9.71829 23.6302 10.2105 23.6302C10.6214 23.6302 10.9436 23.7272 11.177 23.9212C11.4104 24.1098 11.5271 24.355 11.5271 24.6568C11.5271 24.8022 11.4865 24.9612 11.4054 25.1336C11.3242 25.3007 11.1922 25.465 11.0096 25.6267C10.8269 25.7829 10.5834 25.9204 10.279 26.0389C9.97959 26.1521 9.60666 26.2302 9.16016 26.2733C9.00287 26.2895 8.8608 26.3029 8.73396 26.3137C8.61218 26.3191 8.48026 26.3218 8.3382 26.3218C8.07435 26.3218 7.81812 26.3029 7.5695 26.2652C7.32596 26.2275 7.08241 26.1682 6.83887 26.0874C6.74754 26.2221 6.63084 26.4053 6.48877 26.637C6.35177 26.8687 6.21478 27.1166 6.07778 27.3806C5.94079 27.6447 5.82663 27.8952 5.7353 28.1323C5.65412 28.3586 5.59323 28.5661 5.55264 28.7547C5.51205 28.9379 5.49175 29.1022 5.49175 29.2477C5.49175 29.5118 5.5501 29.7111 5.6668 29.8459C5.7835 29.9752 5.94079 30.0398 6.13867 30.0398C6.33148 30.0398 6.54965 29.9806 6.7932 29.862C7.04182 29.7435 7.30059 29.5657 7.5695 29.3286C7.83842 29.0915 8.09972 28.8247 8.35342 28.5284C8.61218 28.232 8.84812 27.9303 9.06122 27.6231C9.27432 27.316 9.44684 27.0331 9.57876 26.7744C9.66501 26.602 9.74873 26.4808 9.82991 26.4107C9.9111 26.3353 9.97959 26.2975 10.0354 26.2975C10.0912 26.2975 10.1343 26.3218 10.1648 26.3703C10.1952 26.4134 10.2105 26.4727 10.2105 26.5481C10.2105 26.699 10.147 26.8499 10.0202 27.0007C9.87812 27.1678 9.73858 27.3725 9.60159 27.615C9.4646 27.8575 9.34282 28.1135 9.23627 28.3829C9.12972 28.6523 9.05361 28.9163 9.00795 29.175C8.99273 29.2612 8.98258 29.342 8.9775 29.4175C8.97243 29.4929 8.96989 29.5603 8.96989 29.6195C8.96989 29.8189 8.9978 29.9617 9.05361 30.0479C9.1145 30.1341 9.19314 30.1772 9.28955 30.1772C9.40625 30.1772 9.5407 30.1207 9.69292 30.0075C9.84514 29.8944 9.99228 29.7435 10.1343 29.5549C10.2561 29.3824 10.3728 29.1992 10.4844 29.0053C10.6011 28.8113 10.7077 28.6092 10.8041 28.3991C10.8193 28.3613 10.8396 28.3344 10.865 28.3182C10.8954 28.2967 10.9157 28.2859 10.9259 28.2859C10.9512 28.2859 10.9639 28.3021 10.9639 28.3344C10.9639 28.3559 10.9563 28.3883 10.9411 28.4314C10.8954 28.5392 10.8345 28.6685 10.7584 28.8194C10.6823 28.9702 10.5986 29.1265 10.5073 29.2881C10.4159 29.4444 10.3221 29.5899 10.2257 29.7246C10.0938 29.9078 9.92632 30.0695 9.72336 30.2096C9.52548 30.3497 9.31745 30.4197 9.09928 30.4197ZM8.2697 26.1278C8.53354 26.1278 8.82782 26.1116 9.15255 26.0793C9.57368 26.0416 9.939 25.9527 10.2485 25.8126C10.558 25.6725 10.7965 25.4947 10.9639 25.2791C11.1314 25.0636 11.2151 24.8238 11.2151 24.5598C11.2151 24.3227 11.1212 24.1422 10.9335 24.0182C10.7508 23.8943 10.5174 23.8323 10.2333 23.8323C9.76142 23.8323 9.33014 23.932 8.93945 24.1314C8.55383 24.3254 8.19866 24.5813 7.87394 24.8992C7.55428 25.2172 7.24985 25.5593 6.96064 25.9257C7.34625 26.0605 7.78261 26.1278 8.2697 26.1278Z" fill="#A6992A"/>
<path d="M11.2061 29.9267C10.993 29.9267 10.8484 29.8674 10.7723 29.7489C10.6962 29.6249 10.6581 29.4794 10.6581 29.3124C10.6581 29.14 10.681 28.9621 10.7266 28.7789C10.7723 28.5957 10.8129 28.4422 10.8484 28.3182C10.9296 28.0165 11.0311 27.6959 11.1528 27.3564C11.2797 27.0115 11.4167 26.6747 11.5638 26.346C11.716 26.012 11.8657 25.7129 12.0128 25.4489C12.1295 25.2387 12.2539 25.0824 12.3858 24.9801C12.5228 24.8723 12.642 24.8184 12.7435 24.8184C12.8247 24.8184 12.8881 24.8507 12.9338 24.9154C12.9845 24.9747 13.0099 25.0663 13.0099 25.1902C13.0099 25.2764 12.9946 25.3788 12.9642 25.4974C12.9388 25.6159 12.8932 25.7506 12.8272 25.9015C12.6496 26.3218 12.4365 26.7421 12.1879 27.1624C11.9444 27.5827 11.6348 27.9761 11.2594 28.3425C11.2391 28.4125 11.2112 28.496 11.1757 28.593C11.1452 28.6846 11.1173 28.7789 11.0919 28.8759C11.0615 29.0214 11.0463 29.1454 11.0463 29.2477C11.0463 29.4148 11.0767 29.5414 11.1376 29.6276C11.2036 29.7085 11.2822 29.7489 11.3735 29.7489C11.4547 29.7489 11.541 29.7192 11.6323 29.66C11.7236 29.5953 11.8099 29.5037 11.8911 29.3851C12.0128 29.1965 12.1219 29.0053 12.2183 28.8113C12.3198 28.6119 12.3959 28.4583 12.4467 28.3506C12.4771 28.2913 12.5101 28.2616 12.5456 28.2616C12.571 28.2616 12.5837 28.2778 12.5837 28.3101C12.5837 28.3371 12.576 28.3667 12.5608 28.3991C12.5152 28.5068 12.4543 28.6469 12.3782 28.8194C12.3071 28.9864 12.2158 29.1561 12.1042 29.3286C11.9976 29.4956 11.8682 29.6384 11.716 29.7569C11.5689 29.8701 11.3989 29.9267 11.2061 29.9267ZM11.3203 28.0838C11.5029 27.8845 11.6805 27.6554 11.853 27.3968C12.0255 27.1328 12.1854 26.8606 12.3325 26.5804C12.4847 26.2948 12.6116 26.0254 12.713 25.7722C12.7486 25.6913 12.7765 25.6024 12.7968 25.5054C12.8221 25.4084 12.8348 25.3276 12.8348 25.263C12.8348 25.1875 12.8171 25.1498 12.7815 25.1498C12.7612 25.1498 12.7308 25.1714 12.6902 25.2145C12.6496 25.2522 12.5963 25.3195 12.5304 25.4165C12.434 25.5512 12.3274 25.7344 12.2107 25.9662C12.0991 26.1979 11.9849 26.4457 11.8682 26.7098C11.7515 26.9738 11.645 27.2298 11.5486 27.4776C11.4522 27.7201 11.3761 27.9222 11.3203 28.0838Z" fill="#A6992A"/>
<path d="M12.9862 29.9348C12.7985 29.9348 12.6285 29.8701 12.4763 29.7408C12.3291 29.6115 12.2556 29.4148 12.2556 29.1507C12.2556 28.9083 12.3114 28.6496 12.423 28.3748C12.5346 28.0946 12.6767 27.8494 12.8492 27.6393C12.9963 27.4561 13.1612 27.3052 13.3439 27.1866C13.5266 27.0681 13.6991 27.0088 13.8614 27.0088C13.9731 27.0088 14.0695 27.0412 14.1507 27.1058C14.2369 27.1759 14.28 27.2756 14.28 27.4049C14.28 27.5396 14.2318 27.6878 14.1354 27.8494C14.039 28.0111 13.902 28.162 13.7244 28.3021C13.6483 28.3613 13.5519 28.4179 13.4352 28.4718C13.3185 28.5257 13.2018 28.5715 13.0851 28.6092C12.9684 28.6415 12.872 28.6577 12.7959 28.6577C12.7706 28.7224 12.7452 28.8086 12.7198 28.9163C12.6995 29.0241 12.6894 29.1346 12.6894 29.2477C12.6894 29.3824 12.7147 29.5037 12.7655 29.6115C12.8162 29.7192 12.9101 29.7731 13.0471 29.7731C13.2145 29.7731 13.3667 29.7219 13.5037 29.6195C13.6407 29.5172 13.7625 29.3905 13.8691 29.2397C13.9756 29.0834 14.0644 28.9271 14.1354 28.7709C14.2115 28.6146 14.2724 28.4826 14.3181 28.3748C14.3485 28.2994 14.3891 28.2616 14.4399 28.2616C14.4652 28.2616 14.4779 28.2751 14.4779 28.3021C14.4779 28.3236 14.4703 28.3506 14.4551 28.3829C14.3841 28.5445 14.3079 28.717 14.2268 28.9002C14.1456 29.078 14.0492 29.2477 13.9376 29.4094C13.8259 29.5657 13.6915 29.6923 13.5342 29.7893C13.382 29.8863 13.1993 29.9348 12.9862 29.9348ZM12.8492 28.5122C12.9202 28.5122 13.0395 28.4853 13.2069 28.4314C13.3744 28.3721 13.5266 28.2805 13.6636 28.1566C13.7955 28.0326 13.897 27.8979 13.968 27.7524C14.039 27.6016 14.0745 27.4749 14.0745 27.3725C14.0745 27.254 14.034 27.1947 13.9528 27.1947C13.8919 27.1947 13.8082 27.2378 13.7016 27.324C13.5951 27.4103 13.4631 27.5558 13.3059 27.7605C13.2095 27.8898 13.1181 28.0299 13.0319 28.1808C12.9456 28.3317 12.8847 28.4422 12.8492 28.5122Z" fill="#A6992A"/>
<path d="M14.5087 29.9348C14.2601 29.9348 14.0825 29.8674 13.976 29.7327C13.8745 29.5926 13.8237 29.4471 13.8237 29.2962C13.8237 29.1723 13.8517 29.0591 13.9075 28.9568C13.9684 28.8544 14.0394 28.8005 14.1206 28.7951C14.222 28.585 14.3311 28.3559 14.4478 28.1081C14.5696 27.8602 14.6812 27.6204 14.7827 27.3887C14.8537 27.2324 14.9425 27.0816 15.0491 26.9361C15.1607 26.7906 15.2825 26.7071 15.4144 26.6855H15.4905C15.5311 26.6855 15.5666 26.6882 15.5971 26.6936C15.6326 26.699 15.6681 26.7098 15.7036 26.7259C15.7594 26.7529 15.7873 26.7933 15.7873 26.8472C15.7873 26.8795 15.7696 26.8957 15.7341 26.8957C15.7188 26.8957 15.6985 26.8876 15.6732 26.8714C15.6123 26.8445 15.559 26.831 15.5133 26.831C15.4829 26.831 15.455 26.8391 15.4296 26.8553C15.3332 26.9091 15.2647 26.9846 15.2241 27.0816C15.1886 27.1786 15.1709 27.2809 15.1709 27.3887C15.1709 27.4749 15.1785 27.5638 15.1937 27.6554C15.214 27.7417 15.2368 27.8198 15.2622 27.8898C15.318 28.0407 15.3764 28.1889 15.4372 28.3344C15.5032 28.4799 15.5362 28.6361 15.5362 28.8032C15.5362 28.9648 15.4854 29.1373 15.384 29.3205C15.2825 29.4983 15.1531 29.6411 14.9958 29.7489L15.0491 29.7569C15.0745 29.7623 15.0922 29.765 15.1024 29.765C15.1125 29.765 15.1201 29.765 15.1252 29.765C15.2419 29.765 15.351 29.73 15.4525 29.66C15.559 29.5845 15.6529 29.4929 15.7341 29.3851C15.8152 29.2774 15.9066 29.1265 16.008 28.9325C16.1146 28.7385 16.2161 28.5338 16.3125 28.3182C16.3277 28.2913 16.3455 28.2778 16.3658 28.2778C16.3911 28.2778 16.4089 28.2886 16.419 28.3101C16.4343 28.3263 16.4368 28.3479 16.4266 28.3748C16.3607 28.5257 16.2846 28.69 16.1983 28.8678C16.1171 29.0403 16.0233 29.2073 15.9167 29.369C15.8102 29.5252 15.6859 29.6546 15.5438 29.7569C15.4068 29.8539 15.252 29.9024 15.0795 29.9024C15.0389 29.9024 14.9958 29.8997 14.9501 29.8944C14.9045 29.889 14.8588 29.8782 14.8132 29.862C14.7624 29.8836 14.7091 29.8997 14.6533 29.9105C14.6026 29.9267 14.5544 29.9348 14.5087 29.9348ZM14.737 29.6923C14.8233 29.6168 14.8994 29.5064 14.9654 29.3609C15.0364 29.2154 15.0719 29.0241 15.0719 28.787C15.0719 28.5769 15.0516 28.3532 15.011 28.1162C14.9704 27.8791 14.9501 27.6689 14.9501 27.4857C14.9501 27.448 14.9501 27.4157 14.9501 27.3887C14.9552 27.3564 14.9603 27.3267 14.9654 27.2998C14.8994 27.4453 14.8233 27.615 14.737 27.809C14.6508 27.9976 14.5645 28.1808 14.4783 28.3586C14.392 28.5365 14.3184 28.6873 14.2576 28.8113C14.2576 28.8113 14.2702 28.814 14.2956 28.8194C14.3261 28.8194 14.354 28.8382 14.3793 28.8759C14.4047 28.9083 14.4149 28.9756 14.4098 29.078C14.4047 29.2127 14.4326 29.3393 14.4935 29.4579C14.5595 29.571 14.6406 29.6492 14.737 29.6923ZM14.4478 29.8054C14.4783 29.8054 14.5062 29.8027 14.5316 29.7974C14.5569 29.7866 14.5798 29.7785 14.6 29.7731C14.5239 29.7138 14.4554 29.6357 14.3946 29.5387C14.3387 29.4363 14.3058 29.307 14.2956 29.1507C14.2043 29.2531 14.1586 29.3636 14.1586 29.4821C14.1586 29.5684 14.184 29.6438 14.2347 29.7085C14.2855 29.7731 14.3565 29.8054 14.4478 29.8054Z" fill="#A6992A"/>
<path d="M16.4634 29.9348C16.2148 29.9348 16.0372 29.8674 15.9307 29.7327C15.8292 29.5926 15.7785 29.4471 15.7785 29.2962C15.7785 29.1723 15.8064 29.0591 15.8622 28.9568C15.9231 28.8544 15.9941 28.8005 16.0753 28.7951C16.1768 28.585 16.2859 28.3559 16.4026 28.1081C16.5243 27.8602 16.636 27.6204 16.7374 27.3887C16.8085 27.2324 16.8973 27.0816 17.0038 26.9361C17.1154 26.7906 17.2372 26.7071 17.3691 26.6855H17.4452C17.4858 26.6855 17.5214 26.6882 17.5518 26.6936C17.5873 26.699 17.6228 26.7098 17.6583 26.7259C17.7142 26.7529 17.7421 26.7933 17.7421 26.8472C17.7421 26.8795 17.7243 26.8957 17.6888 26.8957C17.6736 26.8957 17.6533 26.8876 17.6279 26.8714C17.567 26.8445 17.5137 26.831 17.4681 26.831C17.4376 26.831 17.4097 26.8391 17.3844 26.8553C17.288 26.9091 17.2195 26.9846 17.1789 27.0816C17.1433 27.1786 17.1256 27.2809 17.1256 27.3887C17.1256 27.4749 17.1332 27.5638 17.1484 27.6554C17.1687 27.7417 17.1915 27.8198 17.2169 27.8898C17.2727 28.0407 17.3311 28.1889 17.392 28.3344C17.4579 28.4799 17.4909 28.6361 17.4909 28.8032C17.4909 28.9648 17.4402 29.1373 17.3387 29.3205C17.2372 29.4983 17.1078 29.6411 16.9505 29.7489L17.0038 29.7569C17.0292 29.7623 17.0469 29.765 17.0571 29.765C17.0672 29.765 17.0749 29.765 17.0799 29.765C17.1966 29.765 17.3057 29.73 17.4072 29.66C17.5137 29.5845 17.6076 29.4929 17.6888 29.3851C17.77 29.2774 17.8613 29.1265 17.9628 28.9325C18.0693 28.7385 18.1708 28.5338 18.2672 28.3182C18.2824 28.2913 18.3002 28.2778 18.3205 28.2778C18.3459 28.2778 18.3636 28.2886 18.3738 28.3101C18.389 28.3263 18.3915 28.3479 18.3814 28.3748C18.3154 28.5257 18.2393 28.69 18.153 28.8678C18.0719 29.0403 17.978 29.2073 17.8714 29.369C17.7649 29.5252 17.6406 29.6546 17.4985 29.7569C17.3615 29.8539 17.2068 29.9024 17.0343 29.9024C16.9937 29.9024 16.9505 29.8997 16.9049 29.8944C16.8592 29.889 16.8135 29.8782 16.7679 29.862C16.7171 29.8836 16.6639 29.8997 16.6081 29.9105C16.5573 29.9267 16.5091 29.9348 16.4634 29.9348ZM16.6918 29.6923C16.778 29.6168 16.8541 29.5064 16.9201 29.3609C16.9911 29.2154 17.0266 29.0241 17.0266 28.787C17.0266 28.5769 17.0064 28.3532 16.9658 28.1162C16.9252 27.8791 16.9049 27.6689 16.9049 27.4857C16.9049 27.448 16.9049 27.4157 16.9049 27.3887C16.9099 27.3564 16.915 27.3267 16.9201 27.2998C16.8541 27.4453 16.778 27.615 16.6918 27.809C16.6055 27.9976 16.5193 28.1808 16.433 28.3586C16.3468 28.5365 16.2732 28.6873 16.2123 28.8113C16.2123 28.8113 16.225 28.814 16.2503 28.8194C16.2808 28.8194 16.3087 28.8382 16.3341 28.8759C16.3594 28.9083 16.3696 28.9756 16.3645 29.078C16.3594 29.2127 16.3873 29.3393 16.4482 29.4579C16.5142 29.571 16.5954 29.6492 16.6918 29.6923ZM16.4026 29.8054C16.433 29.8054 16.4609 29.8027 16.4863 29.7974C16.5117 29.7866 16.5345 29.7785 16.5548 29.7731C16.4787 29.7138 16.4102 29.6357 16.3493 29.5387C16.2935 29.4363 16.2605 29.307 16.2503 29.1507C16.159 29.2531 16.1134 29.3636 16.1134 29.4821C16.1134 29.5684 16.1387 29.6438 16.1895 29.7085C16.2402 29.7731 16.3112 29.8054 16.4026 29.8054Z" fill="#A6992A"/>
<path d="M19.8871 29.9267C19.8313 29.9321 19.7678 29.9186 19.6968 29.8863C19.6258 29.8539 19.5623 29.7947 19.5065 29.7085C19.4558 29.6222 19.4304 29.501 19.4304 29.3447C19.4304 29.2154 19.4532 29.0591 19.4989 28.8759C19.438 28.9783 19.3594 29.1049 19.263 29.2558C19.1666 29.4013 19.0626 29.5306 18.9509 29.6438C18.8545 29.7408 18.7632 29.8108 18.6769 29.8539C18.5907 29.897 18.512 29.9186 18.441 29.9186C18.3091 29.9186 18.2025 29.8566 18.1214 29.7327C18.0402 29.6034 17.9996 29.4363 17.9996 29.2316C17.9996 29.016 18.0503 28.7709 18.1518 28.496C18.2533 28.2212 18.4182 27.9356 18.6465 27.6393C18.7936 27.4507 18.9712 27.2998 19.1793 27.1866C19.3924 27.0681 19.6004 27.0088 19.8033 27.0088C19.92 27.0088 20.0317 27.0304 20.1382 27.0735C20.2448 27.1112 20.3386 27.1759 20.4198 27.2675C20.4553 27.3052 20.4731 27.3483 20.4731 27.3968C20.4731 27.4291 20.4604 27.4561 20.435 27.4776C20.4097 27.4992 20.3767 27.5046 20.3361 27.4938C20.2803 27.3052 20.1611 27.2109 19.9784 27.2109C19.8921 27.2109 19.7932 27.2405 19.6816 27.2998C19.5091 27.3968 19.3289 27.5558 19.1412 27.7767C18.9585 27.9976 18.7987 28.2266 18.6617 28.4637C18.6414 28.496 18.6084 28.558 18.5628 28.6496C18.5222 28.7412 18.4816 28.8436 18.441 28.9568C18.4004 29.0699 18.3725 29.1804 18.3573 29.2881C18.3522 29.3205 18.3497 29.3447 18.3497 29.3609C18.3497 29.3717 18.3497 29.3905 18.3497 29.4175C18.3497 29.5953 18.4131 29.6842 18.54 29.6842C18.6922 29.6842 18.8647 29.5657 19.0575 29.3286C19.1894 29.1561 19.3086 28.9756 19.4152 28.787C19.5217 28.5984 19.6308 28.3964 19.7425 28.1808C19.8186 28.0353 19.8896 27.9141 19.9556 27.8171C20.0215 27.7201 20.1154 27.6716 20.2372 27.6716C20.293 27.6716 20.3488 27.6797 20.4046 27.6959C20.4604 27.712 20.5188 27.7147 20.5796 27.7039C20.5391 27.747 20.4832 27.8279 20.4122 27.9464C20.3463 28.065 20.2752 28.1997 20.1991 28.3506C20.123 28.5014 20.0545 28.655 19.9936 28.8113C19.9327 28.9675 19.8896 29.1022 19.8642 29.2154C19.8592 29.2477 19.8515 29.2935 19.8414 29.3528C19.8363 29.4121 19.8338 29.4552 19.8338 29.4821C19.8338 29.633 19.8744 29.7085 19.9556 29.7085C20.0367 29.7085 20.123 29.6573 20.2143 29.5549C20.3107 29.4525 20.4046 29.3259 20.4959 29.175C20.5873 29.0241 20.671 28.8732 20.7471 28.7224C20.8232 28.5661 20.8841 28.4395 20.9297 28.3425C20.95 28.2886 20.9805 28.2616 21.0211 28.2616C21.0464 28.2616 21.0591 28.2805 21.0591 28.3182C21.0591 28.3344 21.0515 28.364 21.0363 28.4071C20.9754 28.5418 20.9018 28.6954 20.8156 28.8678C20.7293 29.0349 20.6355 29.1992 20.534 29.3609C20.4325 29.5172 20.326 29.6492 20.2143 29.7569C20.1078 29.8593 19.9987 29.9159 19.8871 29.9267Z" fill="#A6992A"/>
<path d="M20.1958 29.9671C20.3784 29.5737 20.5535 29.1858 20.7209 28.8032C20.8934 28.4152 21.0685 28.0461 21.2461 27.6959C21.3475 27.5019 21.4313 27.3672 21.4972 27.2917C21.5683 27.2109 21.6621 27.1705 21.7788 27.1705C21.8194 27.1705 21.8625 27.1786 21.9082 27.1947C21.9539 27.2055 21.9995 27.2109 22.0452 27.2109C22.0756 27.2109 22.0985 27.2082 22.1137 27.2028C22.0427 27.2459 21.9513 27.3537 21.8397 27.5261C21.7281 27.6932 21.6139 27.8871 21.4972 28.1081C21.3805 28.329 21.2765 28.5365 21.1852 28.7304C21.2816 28.6065 21.3805 28.4826 21.482 28.3586C21.5886 28.2347 21.7053 28.1162 21.8321 28.003C21.9539 27.8898 22.0985 27.774 22.2659 27.6554C22.4384 27.5315 22.6059 27.4291 22.7682 27.3483C22.9306 27.2675 23.06 27.2271 23.1564 27.2271C23.1919 27.2271 23.2173 27.2298 23.2325 27.2351C23.2325 27.2351 23.2046 27.289 23.1488 27.3968C23.093 27.4992 23.0219 27.6366 22.9357 27.809C22.8545 27.9761 22.7708 28.1566 22.6845 28.3506C22.5983 28.5392 22.5196 28.7224 22.4486 28.9002C22.3826 29.0726 22.3395 29.2181 22.3192 29.3366C22.304 29.4067 22.2964 29.4714 22.2964 29.5306C22.2964 29.6168 22.3116 29.6734 22.342 29.7004C22.3725 29.7273 22.4055 29.7408 22.441 29.7408C22.5374 29.7408 22.6388 29.6869 22.7454 29.5791C22.852 29.466 22.9534 29.3286 23.0498 29.1669C23.1513 29.0053 23.2401 28.849 23.3162 28.6981C23.3974 28.5418 23.4557 28.4233 23.4913 28.3425C23.5116 28.2994 23.5268 28.2751 23.5369 28.2697C23.5471 28.2589 23.5623 28.2536 23.5826 28.2536C23.613 28.2536 23.6283 28.2751 23.6283 28.3182C23.6283 28.3452 23.6206 28.3748 23.6054 28.4071C23.5445 28.5311 23.471 28.6793 23.3847 28.8517C23.3035 29.0241 23.2097 29.1939 23.1031 29.3609C22.9966 29.5225 22.8799 29.66 22.753 29.7731C22.6262 29.8809 22.4892 29.9348 22.342 29.9348C22.2405 29.9348 22.134 29.897 22.0224 29.8216C21.9158 29.7462 21.8625 29.6061 21.8625 29.4013C21.8625 29.342 21.8676 29.2801 21.8778 29.2154C21.8879 29.1454 21.9057 29.0699 21.931 28.9891C21.9716 28.8813 22.0198 28.7655 22.0756 28.6415C22.1315 28.5176 22.2228 28.3479 22.3496 28.1323C22.3852 28.073 22.4055 28.0272 22.4105 27.9949C22.4207 27.9626 22.4257 27.9356 22.4257 27.9141C22.4257 27.8494 22.3978 27.8171 22.342 27.8171C22.2964 27.8171 22.2279 27.844 22.1365 27.8979C22.0503 27.9518 21.9412 28.0461 21.8093 28.1808C21.6824 28.3101 21.5302 28.4933 21.3526 28.7304C21.1801 28.9675 20.9797 29.3178 20.7514 29.7812C20.7159 29.8512 20.6753 29.889 20.6296 29.8944C20.589 29.8997 20.5307 29.9051 20.4545 29.9105C20.4038 29.9159 20.3556 29.9186 20.3099 29.9186C20.2643 29.924 20.2262 29.9402 20.1958 29.9671Z" fill="#A6992A"/>
<path d="M25.1576 29.9024C25.0206 29.9024 24.9064 29.8297 24.8151 29.6842C24.7897 29.6411 24.7669 29.5845 24.7466 29.5145C24.7263 29.4444 24.7161 29.3663 24.7161 29.2801C24.7161 29.2316 24.7187 29.1831 24.7237 29.1346C24.7288 29.0807 24.739 29.0268 24.7542 28.9729C24.6831 29.0915 24.5994 29.2235 24.503 29.369C24.4117 29.5091 24.3051 29.633 24.1834 29.7408C24.0667 29.8432 23.9347 29.8944 23.7876 29.8944C23.7369 29.8944 23.6836 29.8863 23.6278 29.8701C23.4908 29.827 23.3918 29.7516 23.331 29.6438C23.2751 29.536 23.2472 29.4067 23.2472 29.2558C23.2472 29.0888 23.2777 28.9056 23.3386 28.7062C23.4045 28.5068 23.4857 28.3128 23.5821 28.1242C23.6836 27.9356 23.7876 27.774 23.8942 27.6393C24.0464 27.4507 24.2214 27.2998 24.4193 27.1866C24.6172 27.0735 24.8176 27.0169 25.0206 27.0169C25.2032 27.0169 25.3757 27.0681 25.5381 27.1705C25.6142 27.0196 25.6954 26.8526 25.7816 26.6693C25.8679 26.4808 25.9541 26.2948 26.0404 26.1116C26.1267 25.9284 26.2028 25.7614 26.2687 25.6105C26.3347 25.4542 26.3854 25.3357 26.4209 25.2549C26.4971 25.0663 26.5681 24.9477 26.634 24.8992C26.7051 24.8453 26.7888 24.8184 26.8852 24.8184C26.941 24.8184 27.0019 24.8265 27.0679 24.8427C27.1389 24.8534 27.2074 24.8561 27.2734 24.8507C27.2429 24.8831 27.1795 24.9774 27.0831 25.1336C26.9918 25.2845 26.8827 25.4785 26.7558 25.7156C26.629 25.9527 26.492 26.214 26.3448 26.4996C26.2028 26.7798 26.0607 27.0654 25.9186 27.3564C25.7816 27.642 25.6523 27.9141 25.5305 28.1727C25.4138 28.426 25.3199 28.6442 25.2489 28.8274C25.2286 28.8705 25.1981 28.9595 25.1576 29.0942C25.122 29.2235 25.1043 29.3366 25.1043 29.4336C25.1043 29.5037 25.1195 29.5657 25.1499 29.6195C25.1804 29.668 25.2311 29.6923 25.3022 29.6923C25.3986 29.6923 25.495 29.6411 25.5914 29.5387C25.6928 29.4309 25.7892 29.3016 25.8806 29.1507C25.9719 28.9945 26.0531 28.8436 26.1241 28.6981C26.1952 28.5472 26.2484 28.4287 26.284 28.3425C26.3093 28.2832 26.3398 28.2536 26.3753 28.2536C26.4057 28.2536 26.4209 28.2778 26.4209 28.3263C26.4209 28.3317 26.4209 28.3425 26.4209 28.3586C26.4209 28.3694 26.4159 28.3829 26.4057 28.3991C26.3601 28.5122 26.2966 28.6523 26.2155 28.8194C26.1393 28.9864 26.048 29.1534 25.9415 29.3205C25.8349 29.4875 25.7157 29.6276 25.5838 29.7408C25.4518 29.8486 25.3098 29.9024 25.1576 29.9024ZM23.8409 29.66C23.9119 29.66 24.0007 29.6195 24.1073 29.5387C24.2138 29.4525 24.328 29.3178 24.4497 29.1346C24.5918 28.919 24.7542 28.6496 24.9368 28.3263C25.1195 28.003 25.2996 27.6608 25.4772 27.2998C25.4112 27.2351 25.3351 27.2028 25.2489 27.2028C25.1068 27.2028 24.947 27.2729 24.7694 27.413C24.5969 27.5531 24.4269 27.7309 24.2595 27.9464C24.0971 28.162 23.9601 28.3802 23.8485 28.6011C23.7724 28.752 23.7166 28.8894 23.6811 29.0133C23.6506 29.1373 23.6354 29.245 23.6354 29.3366C23.6354 29.5522 23.7039 29.66 23.8409 29.66Z" fill="#A6992A"/>
<path d="M27.1907 29.9105C27.0943 29.9105 26.9979 29.8701 26.9015 29.7893C26.8051 29.7031 26.7569 29.5657 26.7569 29.3771C26.7569 29.2316 26.7899 29.0645 26.8558 28.8759C26.9167 28.6927 26.9979 28.5149 27.0994 28.3425C27.2059 28.17 27.282 28.0299 27.3277 27.9222C27.3429 27.8791 27.3505 27.8413 27.3505 27.809C27.3505 27.712 27.2922 27.642 27.1755 27.5989C27.0639 27.5558 26.9167 27.5315 26.7341 27.5261L26.6427 27.7928C26.5869 27.9653 26.5083 28.1673 26.4068 28.3991C26.3104 28.6308 26.2013 28.8544 26.0795 29.0699C25.9628 29.2855 25.8411 29.4579 25.7142 29.5872C25.7041 29.598 25.6914 29.6034 25.6762 29.6034C25.6559 29.6034 25.6432 29.5899 25.6381 29.563C25.628 29.536 25.6381 29.5037 25.6685 29.466C25.8664 29.1858 26.044 28.8759 26.2013 28.5365C26.3586 28.1916 26.4905 27.8413 26.5971 27.4857C26.7087 27.1301 26.7899 26.8014 26.8406 26.4996C26.8558 26.4134 26.8837 26.3514 26.9243 26.3137C26.9649 26.2706 27.008 26.249 27.0537 26.249C27.1197 26.249 27.1806 26.2841 27.2364 26.3541C27.2922 26.4188 27.3201 26.5131 27.3201 26.637C27.3201 26.6586 27.3176 26.6828 27.3125 26.7098C27.3125 26.7367 27.3099 26.7636 27.3049 26.7906C27.2846 26.9037 27.2237 27.0115 27.1222 27.1139C27.0258 27.2109 26.9472 27.2836 26.8863 27.3321C26.937 27.3375 26.9903 27.3429 27.0461 27.3483C27.1019 27.3483 27.1628 27.3483 27.2288 27.3483C27.4672 27.3483 27.7032 27.3321 27.9366 27.2998C27.9467 27.3321 27.9518 27.3564 27.9518 27.3725C27.9518 27.4426 27.9315 27.5315 27.8909 27.6393C27.8554 27.747 27.8173 27.844 27.7767 27.9303C27.7564 27.9787 27.7159 28.0677 27.655 28.197C27.5941 28.3209 27.5281 28.4637 27.4571 28.6254C27.3861 28.7816 27.3252 28.9379 27.2744 29.0942C27.2288 29.245 27.2059 29.3744 27.2059 29.4821C27.2059 29.6222 27.2567 29.6923 27.3581 29.6923C27.4343 29.6923 27.518 29.6411 27.6093 29.5387C27.7006 29.4309 27.7894 29.3016 27.8757 29.1507C27.967 28.9945 28.0482 28.8436 28.1192 28.6981C28.1953 28.5472 28.2537 28.4287 28.2943 28.3425C28.3146 28.2886 28.3425 28.2616 28.378 28.2616C28.3983 28.2616 28.4084 28.2805 28.4084 28.3182C28.4084 28.3398 28.4008 28.3721 28.3856 28.4152C28.3298 28.5392 28.2638 28.6793 28.1877 28.8355C28.1116 28.9918 28.0254 29.1454 27.929 29.2962C27.8376 29.4471 27.7361 29.5791 27.6245 29.6923C27.518 29.8001 27.4013 29.8701 27.2744 29.9024C27.2592 29.9078 27.2313 29.9105 27.1907 29.9105Z" fill="#A6992A"/>
<path d="M29.9134 29.9267C29.8576 29.9321 29.7942 29.9186 29.7231 29.8863C29.6521 29.8539 29.5887 29.7947 29.5329 29.7085C29.4821 29.6222 29.4568 29.501 29.4568 29.3447C29.4568 29.2154 29.4796 29.0591 29.5253 28.8759C29.4644 28.9783 29.3857 29.1049 29.2893 29.2558C29.1929 29.4013 29.0889 29.5306 28.9773 29.6438C28.8809 29.7408 28.7896 29.8108 28.7033 29.8539C28.617 29.897 28.5384 29.9186 28.4674 29.9186C28.3354 29.9186 28.2289 29.8566 28.1477 29.7327C28.0665 29.6034 28.0259 29.4363 28.0259 29.2316C28.0259 29.016 28.0767 28.7709 28.1782 28.496C28.2796 28.2212 28.4445 27.9356 28.6729 27.6393C28.82 27.4507 28.9976 27.2998 29.2056 27.1866C29.4187 27.0681 29.6267 27.0088 29.8297 27.0088C29.9464 27.0088 30.058 27.0304 30.1646 27.0735C30.2711 27.1112 30.365 27.1759 30.4462 27.2675C30.4817 27.3052 30.4994 27.3483 30.4994 27.3968C30.4994 27.4291 30.4868 27.4561 30.4614 27.4776C30.436 27.4992 30.403 27.5046 30.3625 27.4938C30.3066 27.3052 30.1874 27.2109 30.0047 27.2109C29.9185 27.2109 29.8195 27.2405 29.7079 27.2998C29.5354 27.3968 29.3553 27.5558 29.1676 27.7767C28.9849 27.9976 28.8251 28.2266 28.6881 28.4637C28.6678 28.496 28.6348 28.558 28.5891 28.6496C28.5485 28.7412 28.508 28.8436 28.4674 28.9568C28.4268 29.0699 28.3989 29.1804 28.3836 29.2881C28.3786 29.3205 28.376 29.3447 28.376 29.3609C28.376 29.3717 28.376 29.3905 28.376 29.4175C28.376 29.5953 28.4395 29.6842 28.5663 29.6842C28.7185 29.6842 28.891 29.5657 29.0838 29.3286C29.2158 29.1561 29.335 28.9756 29.4415 28.787C29.5481 28.5984 29.6572 28.3964 29.7688 28.1808C29.8449 28.0353 29.916 27.9141 29.9819 27.8171C30.0479 27.7201 30.1417 27.6716 30.2635 27.6716C30.3193 27.6716 30.3751 27.6797 30.431 27.6959C30.4868 27.712 30.5451 27.7147 30.606 27.7039C30.5654 27.747 30.5096 27.8279 30.4386 27.9464C30.3726 28.065 30.3016 28.1997 30.2255 28.3506C30.1494 28.5014 30.0809 28.655 30.02 28.8113C29.9591 28.9675 29.916 29.1022 29.8906 29.2154C29.8855 29.2477 29.8779 29.2935 29.8678 29.3528C29.8627 29.4121 29.8601 29.4552 29.8601 29.4821C29.8601 29.633 29.9007 29.7085 29.9819 29.7085C30.0631 29.7085 30.1494 29.6573 30.2407 29.5549C30.3371 29.4525 30.431 29.3259 30.5223 29.175C30.6136 29.0241 30.6973 28.8732 30.7734 28.7224C30.8495 28.5661 30.9104 28.4395 30.9561 28.3425C30.9764 28.2886 31.0068 28.2616 31.0474 28.2616C31.0728 28.2616 31.0855 28.2805 31.0855 28.3182C31.0855 28.3344 31.0779 28.364 31.0626 28.4071C31.0018 28.5418 30.9282 28.6954 30.8419 28.8678C30.7557 29.0349 30.6618 29.1992 30.5603 29.3609C30.4589 29.5172 30.3523 29.6492 30.2407 29.7569C30.1341 29.8593 30.025 29.9159 29.9134 29.9267Z" fill="#A6992A"/>
<path d="M39.3 30.2419C39.158 30.2419 39.0159 30.2069 38.8738 30.1368C38.7368 30.0668 38.6075 29.9644 38.4857 29.8297C38.3081 29.6357 38.1533 29.404 38.0214 29.1346C37.8946 28.8598 37.7855 28.5796 37.6942 28.294C37.6028 28.003 37.5318 27.739 37.4811 27.5019C37.4303 27.2594 37.3948 27.0735 37.3745 26.9442C37.1868 27.3267 36.9914 27.7066 36.7885 28.0838C36.5906 28.4556 36.3369 28.822 36.0274 29.1831C35.7331 29.5225 35.4109 29.7785 35.0608 29.9509C34.7107 30.1288 34.3479 30.2177 33.9725 30.2177C33.8558 30.2177 33.7365 30.2096 33.6148 30.1934C33.2799 30.1503 33.0338 30.0479 32.8765 29.8863C32.7192 29.7246 32.6406 29.5522 32.6406 29.369C32.6406 29.1696 32.7243 28.9891 32.8917 28.8274C33.0592 28.6658 33.2977 28.585 33.6072 28.585C33.7086 28.585 33.8177 28.5957 33.9344 28.6173C34.0511 28.6388 34.1729 28.6739 34.2997 28.7224C34.3556 28.7439 34.3835 28.7682 34.3835 28.7951C34.3835 28.8167 34.3632 28.8274 34.3226 28.8274C34.2972 28.8274 34.2769 28.8247 34.2617 28.8194C34.0942 28.7547 33.9446 28.7224 33.8126 28.7224C33.5995 28.7224 33.4372 28.7897 33.3256 28.9244C33.2139 29.0538 33.1581 29.1965 33.1581 29.3528C33.1581 29.5037 33.219 29.6438 33.3408 29.7731C33.4626 29.9024 33.6503 29.9671 33.904 29.9671C34.2236 29.9671 34.5179 29.889 34.7868 29.7327C35.0557 29.571 35.3069 29.3528 35.5403 29.078C35.7737 28.7978 35.997 28.4826 36.2101 28.1323C36.4232 27.7767 36.6312 27.4076 36.8341 27.025C37.1741 26.3838 37.4811 25.8018 37.755 25.2791C38.0341 24.7511 38.3284 24.3038 38.6379 23.9374C38.5009 23.9212 38.3614 23.9104 38.2193 23.9051C38.0772 23.8997 37.9326 23.897 37.7855 23.897C37.4658 23.897 37.1335 23.9158 36.7885 23.9536C36.4485 23.9859 36.1187 24.0398 35.7991 24.1152C35.3678 24.2122 34.9974 24.3577 34.6879 24.5517C34.3784 24.7403 34.1323 24.9531 33.9496 25.1902C33.7721 25.4219 33.6604 25.6563 33.6148 25.8934C33.5995 25.9796 33.5919 26.0631 33.5919 26.144C33.5919 26.4188 33.6782 26.6316 33.8507 26.7825C34.0232 26.9334 34.2211 27.0088 34.4443 27.0088C34.5864 27.0088 34.7285 26.9792 34.8706 26.9199C35.0177 26.8553 35.1496 26.7556 35.2663 26.6209C35.3627 26.5131 35.4338 26.4134 35.4794 26.3218C35.5251 26.2248 35.5504 26.1521 35.5555 26.1036C35.5606 26.0281 35.5758 25.9904 35.6012 25.9904C35.6164 25.9904 35.6291 26.0039 35.6392 26.0308C35.6545 26.0578 35.6595 26.0847 35.6545 26.1116C35.6342 26.2356 35.5987 26.3568 35.5479 26.4754C35.4972 26.5939 35.4363 26.6936 35.3653 26.7744C35.2232 26.9307 35.0608 27.0465 34.8782 27.122C34.6955 27.1974 34.5205 27.2351 34.353 27.2351C34.1551 27.2351 33.9674 27.1893 33.7898 27.0977C33.6173 27.0061 33.4778 26.8741 33.3712 26.7017C33.2647 26.5239 33.2114 26.3056 33.2114 26.047C33.2114 25.7452 33.3103 25.4381 33.5082 25.1256C33.7061 24.8076 34.0029 24.5274 34.3987 24.2849C34.7995 24.0425 35.2968 23.8754 35.8904 23.7838C36.1898 23.7407 36.479 23.7084 36.758 23.6868C37.0422 23.6599 37.3162 23.6464 37.58 23.6464C37.7931 23.6464 38.0011 23.6545 38.2041 23.6707C38.407 23.6868 38.6075 23.7084 38.8053 23.7353C38.9373 23.5898 39.0261 23.5171 39.0717 23.5171C39.1072 23.5171 39.125 23.5467 39.125 23.606C39.125 23.6276 39.1225 23.6545 39.1174 23.6868C39.1123 23.7192 39.1047 23.7515 39.0946 23.7838C39.2315 23.8054 39.3635 23.8296 39.4903 23.8566C39.6222 23.8781 39.7389 23.9051 39.8404 23.9374C40.2412 24.0559 40.533 24.2122 40.7157 24.4062C40.9034 24.5948 40.9973 24.7995 40.9973 25.0205C40.9973 25.2576 40.8958 25.4947 40.6928 25.7318C40.4949 25.9688 40.2133 26.179 39.848 26.3622C39.4878 26.5454 39.0641 26.6801 38.577 26.7663C38.4197 26.7933 38.2802 26.8121 38.1584 26.8229C38.0417 26.8337 37.9402 26.8418 37.854 26.8472C37.8641 26.9011 37.887 27.0142 37.9225 27.1866C37.958 27.3591 38.0087 27.5638 38.0747 27.8009C38.1407 28.0326 38.2244 28.2778 38.3259 28.5365C38.4324 28.7951 38.5593 29.0403 38.7064 29.272C38.8231 29.4552 38.9423 29.6061 39.0641 29.7246C39.1859 29.8432 39.3153 29.9024 39.4523 29.9024C39.5385 29.9024 39.6273 29.8782 39.7186 29.8297C39.815 29.7812 39.914 29.7031 40.0155 29.5953C40.1372 29.466 40.2463 29.3205 40.3427 29.1588C40.4442 28.9918 40.5305 28.8355 40.6015 28.69C40.6725 28.5445 40.7207 28.4422 40.7461 28.3829C40.7867 28.3074 40.8298 28.2697 40.8755 28.2697C40.8907 28.2697 40.8983 28.2805 40.8983 28.3021C40.8983 28.3128 40.8907 28.3398 40.8755 28.3829C40.8501 28.4422 40.8121 28.5338 40.7613 28.6577C40.7106 28.7762 40.6497 28.9083 40.5787 29.0538C40.5076 29.1992 40.4315 29.342 40.3503 29.4821C40.2692 29.6222 40.188 29.7408 40.1068 29.8378C39.9901 29.9725 39.8582 30.0722 39.711 30.1368C39.569 30.2069 39.432 30.2419 39.3 30.2419ZM37.5343 26.6289C37.6815 26.602 37.8388 26.5831 38.0062 26.5724C38.1736 26.5616 38.3385 26.5454 38.5009 26.5239C38.7647 26.4861 39.0134 26.4134 39.2468 26.3056C39.4802 26.1925 39.6857 26.0578 39.8632 25.9015C40.0459 25.7452 40.188 25.5809 40.2894 25.4084C40.3909 25.2306 40.4417 25.0609 40.4417 24.8992C40.4417 24.5328 40.2108 24.2796 39.7491 24.1395C39.6578 24.1125 39.5385 24.0856 39.3914 24.0586C39.2493 24.0317 39.1199 24.0074 39.0032 23.9859C38.7597 24.4277 38.5085 24.8615 38.2498 25.2872C37.9961 25.7129 37.7576 26.1601 37.5343 26.6289Z" fill="#A6992A"/>
<path d="M40.9995 29.9024C40.9437 29.9024 40.8752 29.889 40.794 29.862C40.7179 29.8351 40.6494 29.7866 40.5885 29.7165C40.5327 29.6411 40.5048 29.5306 40.5048 29.3851C40.5048 29.245 40.5353 29.1103 40.5961 28.981C40.6621 28.8463 40.723 28.717 40.7788 28.593C40.7636 28.593 40.7458 28.5876 40.7255 28.5769C40.7103 28.5661 40.7027 28.5499 40.7027 28.5284C40.7027 28.5068 40.7078 28.4853 40.7179 28.4637C40.7382 28.4206 40.761 28.3748 40.7864 28.3263C40.8118 28.2778 40.8346 28.2266 40.8549 28.1727C40.931 28.0057 41.0071 27.8467 41.0832 27.6959C41.1593 27.5396 41.2253 27.4022 41.2811 27.2836C41.3369 27.1651 41.4333 27.1058 41.5703 27.1058H42.0422C41.9559 27.1759 41.8773 27.254 41.8063 27.3402C41.7403 27.421 41.6566 27.5719 41.5551 27.7928C41.5551 27.7928 41.5373 27.8306 41.5018 27.906C41.4663 27.9814 41.4206 28.0784 41.3648 28.197C41.3141 28.3101 41.2608 28.426 41.205 28.5445C41.1543 28.6631 41.1111 28.7628 41.0756 28.8436C41.0097 28.9945 40.9665 29.1157 40.9462 29.2073C40.9259 29.2935 40.9158 29.3744 40.9158 29.4498C40.9158 29.6276 40.9716 29.7165 41.0832 29.7165C41.205 29.7165 41.3521 29.6115 41.5247 29.4013C41.6667 29.2235 41.8063 29.0106 41.9433 28.7628C42.0803 28.5149 42.2096 28.259 42.3314 27.9949C42.4583 27.7309 42.5699 27.4938 42.6663 27.2836C42.7221 27.1651 42.821 27.1058 42.9631 27.1058H43.3817C43.3056 27.1705 43.2422 27.2324 43.1914 27.2917C43.1407 27.3456 43.0899 27.421 43.0392 27.518C42.9935 27.6096 42.9301 27.7417 42.8489 27.9141C42.783 28.0596 42.7119 28.2158 42.6358 28.3829C42.5648 28.5445 42.5014 28.6981 42.4456 28.8436C42.3898 28.9891 42.3542 29.1076 42.339 29.1992C42.3339 29.2531 42.3289 29.2935 42.3238 29.3205C42.3187 29.3474 42.3162 29.3771 42.3162 29.4094C42.3162 29.5118 42.3314 29.5845 42.3618 29.6276C42.3974 29.6707 42.438 29.6923 42.4836 29.6923C42.6054 29.6923 42.7272 29.6195 42.8489 29.4741C42.9758 29.3286 43.095 29.1507 43.2066 28.9406C43.3233 28.7304 43.4223 28.5311 43.5035 28.3425C43.5339 28.2832 43.5618 28.2536 43.5872 28.2536C43.6176 28.2536 43.6329 28.2724 43.6329 28.3101C43.6329 28.3371 43.6227 28.3694 43.6024 28.4071C43.5466 28.5365 43.4781 28.6846 43.3969 28.8517C43.3157 29.0187 43.2244 29.1831 43.1229 29.3447C43.0215 29.5064 42.9098 29.6411 42.7881 29.7489C42.6663 29.8512 42.5344 29.9024 42.3923 29.9024C42.2654 29.9024 42.1614 29.8539 42.0802 29.7569C41.9991 29.6546 41.9585 29.5118 41.9585 29.3286C41.9585 29.1831 41.9838 29.0268 42.0346 28.8598C41.9483 29.0214 41.8494 29.1831 41.7378 29.3447C41.6261 29.5064 41.5069 29.6411 41.3801 29.7489C41.2532 29.8512 41.1264 29.9024 40.9995 29.9024Z" fill="#A6992A"/>
<path d="M44.3435 26.6209C44.2674 26.6209 44.204 26.5939 44.1532 26.54C44.1076 26.4808 44.0847 26.4107 44.0847 26.3299C44.0847 26.2275 44.1228 26.1386 44.1989 26.0631C44.275 25.9877 44.3587 25.95 44.4501 25.95C44.5312 25.95 44.5972 25.9769 44.6479 26.0308C44.6987 26.0847 44.7241 26.1494 44.7241 26.2248C44.7241 26.3272 44.686 26.4188 44.6099 26.4996C44.5338 26.5804 44.445 26.6209 44.3435 26.6209ZM43.727 29.9024C43.5393 29.9024 43.4074 29.8459 43.3313 29.7327C43.2552 29.6142 43.2171 29.4794 43.2171 29.3286C43.2171 29.2477 43.2247 29.1669 43.2399 29.0861C43.2602 28.9999 43.2831 28.9217 43.3084 28.8517L43.8184 27.4695C43.8336 27.4264 43.8412 27.3887 43.8412 27.3564C43.8412 27.3025 43.8285 27.2567 43.8031 27.219C43.7778 27.1759 43.76 27.1462 43.7499 27.1301L44.1685 27.1139C44.2446 27.1085 44.2979 27.1193 44.3283 27.1462C44.3638 27.1678 44.3816 27.1947 44.3816 27.2271C44.3816 27.2594 44.3638 27.3187 44.3283 27.4049L43.6966 28.981C43.6966 28.981 43.6814 29.016 43.6509 29.0861C43.6256 29.1507 43.6103 29.1939 43.6053 29.2154C43.59 29.2962 43.5799 29.3474 43.5748 29.369C43.5697 29.3905 43.5672 29.404 43.5672 29.4094C43.5672 29.4148 43.5672 29.4363 43.5672 29.4741C43.5672 29.5441 43.5824 29.6034 43.6129 29.6519C43.6484 29.7004 43.7067 29.7246 43.7879 29.7246C43.8387 29.7246 43.897 29.7085 43.963 29.6761C44.0289 29.6438 44.0771 29.6115 44.1076 29.5791C44.2344 29.439 44.3587 29.2558 44.4805 29.0295C44.6074 28.7978 44.7241 28.5688 44.8306 28.3425C44.8509 28.2886 44.8763 28.2616 44.9067 28.2616C44.9321 28.2616 44.9448 28.2805 44.9448 28.3182C44.9448 28.3398 44.9372 28.3721 44.9219 28.4152C44.8712 28.5284 44.8078 28.6685 44.7317 28.8355C44.6556 29.0026 44.5642 29.1696 44.4577 29.3366C44.3562 29.4983 44.2446 29.633 44.1228 29.7408C44.001 29.8486 43.8691 29.9024 43.727 29.9024Z" fill="#A6992A"/>
<path d="M44.6919 29.9994C44.6006 29.9994 44.555 29.959 44.555 29.8782C44.555 29.8243 44.5676 29.7785 44.593 29.7408C44.6082 29.7085 44.6615 29.6734 44.7528 29.6357C44.8442 29.5926 44.938 29.5522 45.0344 29.5145C45.1359 29.4714 45.2044 29.439 45.2399 29.4175C45.3313 29.369 45.4302 29.2774 45.5367 29.1427C45.6484 29.0026 45.7625 28.8463 45.8792 28.6739C45.9959 28.496 46.1101 28.3236 46.2217 28.1566C46.3333 27.9895 46.4399 27.8494 46.5414 27.7363C46.45 27.7147 46.346 27.6905 46.2293 27.6635C46.1126 27.6366 46.0035 27.6231 45.9021 27.6231C45.7803 27.6231 45.6737 27.6393 45.5824 27.6716C45.4962 27.6985 45.4099 27.7578 45.3236 27.8494C45.2374 27.9356 45.1461 28.065 45.0497 28.2374C44.9533 28.4098 44.8366 28.6388 44.6996 28.9244C44.6742 28.9675 44.6437 28.9891 44.6082 28.9891C44.5829 28.9891 44.5702 28.9729 44.5702 28.9406C44.5702 28.919 44.5778 28.8921 44.593 28.8598C44.6184 28.8113 44.6615 28.7251 44.7224 28.6011C44.7833 28.4718 44.8442 28.3425 44.905 28.2131C44.9659 28.0784 45.0116 27.9814 45.042 27.9222C45.1689 27.6797 45.2907 27.5019 45.4074 27.3887C45.5291 27.2756 45.6458 27.2028 45.7575 27.1705C45.8742 27.1381 45.9832 27.122 46.0847 27.122C46.171 27.122 46.2522 27.1408 46.3283 27.1786C46.4095 27.2163 46.4881 27.2567 46.5642 27.2998C46.6403 27.3375 46.7164 27.3564 46.7925 27.3564C46.8889 27.3564 46.96 27.3294 47.0056 27.2756C47.0513 27.2217 47.0919 27.1947 47.1274 27.1947C47.1629 27.1947 47.1934 27.2109 47.2187 27.2432C47.2441 27.2756 47.2568 27.316 47.2568 27.3645C47.2568 27.4345 47.234 27.4803 47.1883 27.5019C47.1477 27.5234 47.1071 27.5477 47.0665 27.5746C46.9295 27.6554 46.7976 27.7767 46.6708 27.9383C46.549 28.0946 46.4272 28.267 46.3054 28.4556C46.1887 28.6442 46.072 28.8274 45.9553 29.0053C45.8386 29.1777 45.7219 29.3205 45.6052 29.4336C45.7067 29.466 45.831 29.501 45.9782 29.5387C46.1253 29.5764 46.2598 29.5953 46.3815 29.5953C46.412 29.5953 46.4374 29.5953 46.4577 29.5953C46.483 29.5899 46.5084 29.5845 46.5338 29.5791C46.6505 29.5468 46.7595 29.4741 46.861 29.3609C46.9625 29.2423 47.0564 29.1076 47.1426 28.9568C47.2289 28.8059 47.305 28.655 47.371 28.5041C47.442 28.3532 47.5003 28.2293 47.546 28.1323C47.5612 28.1 47.5841 28.0838 47.6145 28.0838C47.6449 28.0838 47.6602 28.1 47.6602 28.1323C47.6602 28.1593 47.6551 28.1835 47.6449 28.2051C47.5282 28.5014 47.3989 28.787 47.2568 29.0618C47.1147 29.3313 46.96 29.5495 46.7925 29.7165C46.6302 29.8836 46.4526 29.9644 46.2598 29.959C46.0416 29.9482 45.8488 29.924 45.6814 29.8863C45.5139 29.8486 45.3718 29.8297 45.2551 29.8297C45.1587 29.8297 45.0649 29.8566 44.9735 29.9105C44.8873 29.9698 44.7934 29.9994 44.6919 29.9994Z" fill="#A6992A"/>
<path d="M19.396 35.7119H19.1865C19.1741 35.6479 19.1525 35.5917 19.1215 35.5433C19.0911 35.4948 19.0539 35.4542 19.01 35.4213C18.9666 35.3878 18.9185 35.3627 18.8656 35.3459C18.8126 35.3292 18.7575 35.3208 18.7 35.3208C18.5953 35.3208 18.5004 35.3489 18.4154 35.4051C18.3309 35.4613 18.2637 35.5442 18.2135 35.6536C18.164 35.763 18.1392 35.8973 18.1392 36.0563C18.1392 36.2154 18.164 36.3496 18.2135 36.4591C18.2637 36.5685 18.3309 36.6513 18.4154 36.7075C18.5004 36.7637 18.5953 36.7918 18.7 36.7918C18.7575 36.7918 18.8126 36.7835 18.8656 36.7667C18.9185 36.75 18.9666 36.7252 19.01 36.6923C19.0539 36.6588 19.0911 36.6178 19.1215 36.5694C19.1525 36.5204 19.1741 36.4641 19.1865 36.4008H19.396C19.3802 36.4946 19.3515 36.5787 19.3098 36.6528C19.2682 36.727 19.2164 36.79 19.1544 36.8421C19.0925 36.8935 19.0229 36.9327 18.9458 36.9596C18.8692 36.9865 18.7873 36.9999 18.7 36.9999C18.5525 36.9999 18.4213 36.9617 18.3065 36.8851C18.1916 36.8086 18.1012 36.6997 18.0353 36.5586C17.9695 36.4175 17.9365 36.2501 17.9365 36.0563C17.9365 35.8626 17.9695 35.6951 18.0353 35.554C18.1012 35.4129 18.1916 35.3041 18.3065 35.2275C18.4213 35.151 18.5525 35.1127 18.7 35.1127C18.7873 35.1127 18.8692 35.1262 18.9458 35.1531C19.0229 35.18 19.0925 35.2195 19.1544 35.2715C19.2164 35.3229 19.2682 35.3857 19.3098 35.4598C19.3515 35.5334 19.3802 35.6174 19.396 35.7119Z" fill="#A6992A"/>
<path d="M19.7345 36.9748V35.1378H20.3189C20.454 35.1378 20.565 35.1623 20.6517 35.2114C20.7384 35.2598 20.8026 35.3265 20.8442 35.4114C20.8859 35.4963 20.9067 35.5929 20.9067 35.7011C20.9067 35.8094 20.8859 35.9053 20.8442 35.989C20.8026 36.0728 20.7387 36.1385 20.6525 36.1864C20.5664 36.2336 20.4563 36.2572 20.3223 36.2572H19.8493V36.0563H20.3155C20.4079 36.0563 20.4822 36.042 20.5385 36.0133C20.5954 35.9846 20.6365 35.9439 20.6618 35.8913C20.6877 35.8381 20.7007 35.7747 20.7007 35.7011C20.7007 35.6276 20.6877 35.5633 20.6618 35.5083C20.6359 35.4533 20.5945 35.4108 20.5377 35.3809C20.4808 35.3504 20.4056 35.3352 20.3122 35.3352H19.9439V36.9748H19.7345ZM20.5486 36.1496L20.9743 36.9748H20.7311L20.3122 36.1496H20.5486Z" fill="#A6992A"/>
<path d="M21.2558 36.9748V35.1378H22.2997V35.3352H21.4652V35.9559H22.2456V36.1532H21.4652V36.7775H22.3132V36.9748H21.2558Z" fill="#A6992A"/>
<path d="M24.0691 35.7119H23.8597C23.8473 35.6479 23.8256 35.5917 23.7946 35.5433C23.7642 35.4948 23.7271 35.4542 23.6831 35.4213C23.6398 35.3878 23.5916 35.3627 23.5387 35.3459C23.4858 35.3292 23.4306 35.3208 23.3732 35.3208C23.2684 35.3208 23.1736 35.3489 23.0885 35.4051C23.0041 35.4613 22.9368 35.5442 22.8867 35.6536C22.8371 35.763 22.8124 35.8973 22.8124 36.0563C22.8124 36.2154 22.8371 36.3496 22.8867 36.4591C22.9368 36.5685 23.0041 36.6513 23.0885 36.7075C23.1736 36.7637 23.2684 36.7918 23.3732 36.7918C23.4306 36.7918 23.4858 36.7835 23.5387 36.7667C23.5916 36.75 23.6398 36.7252 23.6831 36.6923C23.7271 36.6588 23.7642 36.6178 23.7946 36.5694C23.8256 36.5204 23.8473 36.4641 23.8597 36.4008H24.0691C24.0534 36.4946 24.0246 36.5787 23.983 36.6528C23.9413 36.727 23.8895 36.79 23.8276 36.8421C23.7656 36.8935 23.6961 36.9327 23.619 36.9596C23.5424 36.9865 23.4604 36.9999 23.3732 36.9999C23.2257 36.9999 23.0945 36.9617 22.9796 36.8851C22.8647 36.8086 22.7744 36.6997 22.7085 36.5586C22.6426 36.4175 22.6097 36.2501 22.6097 36.0563C22.6097 35.8626 22.6426 35.6951 22.7085 35.554C22.7744 35.4129 22.8647 35.3041 22.9796 35.2275C23.0945 35.151 23.2257 35.1127 23.3732 35.1127C23.4604 35.1127 23.5424 35.1262 23.619 35.1531C23.6961 35.18 23.7656 35.2195 23.8276 35.2715C23.8895 35.3229 23.9413 35.3857 23.983 35.4598C24.0246 35.5334 24.0534 35.6174 24.0691 35.7119Z" fill="#A6992A"/>
<path d="M24.6171 35.1378V36.9748H24.4076V35.1378H24.6171Z" fill="#A6992A"/>
<path d="M25.1553 36.7398C25.1136 36.7398 25.0778 36.724 25.048 36.6923C25.0182 36.6606 25.0032 36.6226 25.0032 36.5784C25.0032 36.5341 25.0182 36.4961 25.048 36.4644C25.0778 36.4327 25.1136 36.4169 25.1553 36.4169C25.1969 36.4169 25.2327 36.4327 25.2625 36.4644C25.2924 36.4961 25.3073 36.5341 25.3073 36.5784C25.3073 36.6077 25.3003 36.6346 25.2862 36.6591C25.2727 36.6836 25.2544 36.7033 25.2313 36.7183C25.2088 36.7326 25.1834 36.7398 25.1553 36.7398ZM25.1553 35.8106C25.1136 35.8106 25.0778 35.7947 25.048 35.763C25.0182 35.7313 25.0032 35.6934 25.0032 35.6491C25.0032 35.6049 25.0182 35.5669 25.048 35.5352C25.0778 35.5035 25.1136 35.4876 25.1553 35.4876C25.1969 35.4876 25.2327 35.5035 25.2625 35.5352C25.2924 35.5669 25.3073 35.6049 25.3073 35.6491C25.3073 35.6784 25.3003 35.7053 25.2862 35.7298C25.2727 35.7543 25.2544 35.7741 25.2313 35.789C25.2088 35.8034 25.1834 35.8106 25.1553 35.8106Z" fill="#A6992A"/>
<path d="M26.29 36.5981V36.4151L27.0501 35.1378H27.1751V35.4213H27.0907L26.5163 36.3864V36.4008H27.54V36.5981H26.29ZM27.1042 36.9748V35.1378H27.3035V36.9748H27.1042Z" fill="#A6992A"/>
<path d="M28.4207 36.9999C28.2934 36.9999 28.185 36.9632 28.0955 36.8896C28.006 36.8155 27.9376 36.7081 27.8903 36.5676C27.843 36.4265 27.8193 36.256 27.8193 36.0563C27.8193 35.8578 27.843 35.6883 27.8903 35.5477C27.9381 35.4066 28.0068 35.299 28.0964 35.2248C28.1864 35.1501 28.2946 35.1127 28.4207 35.1127C28.5468 35.1127 28.6546 35.1501 28.7442 35.2248C28.8343 35.299 28.9029 35.4066 28.9502 35.5477C28.9981 35.6883 29.022 35.8578 29.022 36.0563C29.022 36.256 28.9984 36.4265 28.9511 36.5676C28.9038 36.7081 28.8354 36.8155 28.7459 36.8896C28.6563 36.9632 28.5479 36.9999 28.4207 36.9999ZM28.4207 36.8026C28.5468 36.8026 28.6448 36.738 28.7146 36.6089C28.7844 36.4797 28.8193 36.2955 28.8193 36.0563C28.8193 35.8973 28.8033 35.7618 28.7712 35.65C28.7397 35.5382 28.6941 35.453 28.6344 35.3944C28.5752 35.3358 28.504 35.3065 28.4207 35.3065C28.2957 35.3065 28.198 35.3719 28.1276 35.5029C28.0572 35.6333 28.022 35.8177 28.022 36.0563C28.022 36.2154 28.0378 36.3505 28.0693 36.4617C28.1009 36.573 28.1462 36.6576 28.2053 36.7156C28.265 36.7736 28.3368 36.8026 28.4207 36.8026Z" fill="#A6992A"/>
<path d="M29.8937 35.1127C29.9646 35.1133 30.0355 35.1277 30.1065 35.1558C30.1774 35.1839 30.2422 35.2305 30.3008 35.2957C30.3593 35.3603 30.4063 35.4485 30.4418 35.5603C30.4773 35.6721 30.495 35.8123 30.495 35.981C30.495 36.1442 30.4804 36.2892 30.4511 36.416C30.4224 36.5422 30.3807 36.6486 30.3261 36.7353C30.272 36.822 30.2062 36.8878 30.1285 36.9327C30.0513 36.9775 29.964 36.9999 29.8666 36.9999C29.7698 36.9999 29.6834 36.9796 29.6073 36.9389C29.5319 36.8977 29.47 36.8406 29.4215 36.7676C29.3737 36.6941 29.343 36.6089 29.3295 36.512H29.5355C29.5541 36.5963 29.591 36.666 29.6462 36.721C29.7019 36.7754 29.7754 36.8026 29.8666 36.8026C30.0001 36.8026 30.1054 36.7407 30.1825 36.6169C30.2602 36.4931 30.2991 36.3182 30.2991 36.0922H30.2855C30.254 36.1424 30.2166 36.1858 30.1732 36.2223C30.1299 36.2587 30.0817 36.2868 30.0288 36.3066C29.9759 36.3263 29.9196 36.3362 29.8599 36.3362C29.7608 36.3362 29.6698 36.3102 29.5871 36.2581C29.5049 36.2055 29.439 36.1335 29.3894 36.042C29.3404 35.9499 29.316 35.8446 29.316 35.7262C29.316 35.6138 29.3396 35.511 29.3869 35.4177C29.4348 35.3238 29.5018 35.2491 29.5879 35.1934C29.6746 35.1378 29.7765 35.1109 29.8937 35.1127ZM29.8937 35.31C29.8227 35.31 29.7588 35.3289 29.7019 35.3666C29.6456 35.4036 29.6009 35.4539 29.5676 35.5172C29.535 35.58 29.5187 35.6497 29.5187 35.7262C29.5187 35.8028 29.5344 35.8724 29.566 35.9352C29.598 35.9974 29.6417 36.0471 29.6969 36.0841C29.7526 36.1206 29.816 36.1388 29.8869 36.1388C29.9404 36.1388 29.9902 36.1278 30.0364 36.1057C30.0826 36.0829 30.1228 36.0521 30.1572 36.0133C30.1921 35.9738 30.2194 35.9293 30.2391 35.8796C30.2588 35.8294 30.2687 35.7771 30.2687 35.7227C30.2687 35.6509 30.2523 35.5836 30.2197 35.5208C30.1876 35.458 30.1431 35.4072 30.0862 35.3684C30.0299 35.3295 29.9657 35.31 29.8937 35.31Z" fill="#A6992A"/>
<path d="M31.4353 35.1378V36.9748H31.2258V35.371H31.2157L30.7934 35.6688V35.4428L31.2258 35.1378H31.4353Z" fill="#A6992A"/>
<path d="M32.5172 36.9999C32.4057 36.9999 32.3063 36.9796 32.219 36.9389C32.1323 36.8983 32.0633 36.8418 32.0121 36.7694C31.9614 36.6965 31.9338 36.6118 31.9293 36.5156H32.1422C32.1467 36.5748 32.1658 36.6259 32.1996 36.6689C32.2334 36.7114 32.2776 36.7443 32.3322 36.7676C32.3868 36.7909 32.4474 36.8026 32.5138 36.8026C32.5881 36.8026 32.654 36.7888 32.7114 36.7613C32.7689 36.7338 32.8139 36.6956 32.8466 36.6465C32.8792 36.5975 32.8956 36.5407 32.8956 36.4761C32.8956 36.4085 32.8798 36.349 32.8483 36.2976C32.8167 36.2456 32.7706 36.2049 32.7097 36.1756C32.6489 36.1463 32.5746 36.1317 32.4868 36.1317H32.3483V35.9343H32.4868C32.5555 35.9343 32.6157 35.9212 32.6675 35.8949C32.7199 35.8686 32.7607 35.8315 32.79 35.7836C32.8198 35.7358 32.8347 35.6796 32.8347 35.615C32.8347 35.5528 32.8218 35.4987 32.7959 35.4527C32.77 35.4066 32.7334 35.3707 32.6861 35.345C32.6394 35.3193 32.5842 35.3065 32.5206 35.3065C32.4609 35.3065 32.4046 35.3181 32.3516 35.3414C32.2993 35.3642 32.2565 35.3974 32.2233 35.441C32.19 35.4841 32.172 35.5361 32.1692 35.5971H31.9665C31.9699 35.5008 31.9972 35.4165 32.0484 35.3441C32.0997 35.2712 32.1667 35.2144 32.2494 35.1737C32.3328 35.133 32.4243 35.1127 32.5239 35.1127C32.6309 35.1127 32.7227 35.1357 32.7993 35.1818C32.8758 35.2272 32.9347 35.2873 32.9758 35.3621C33.0169 35.4368 33.0374 35.5175 33.0374 35.6043C33.0374 35.7077 33.0118 35.7959 32.9606 35.8689C32.9099 35.9418 32.8409 35.9923 32.7537 36.0204V36.0348C32.8629 36.0539 32.9482 36.1033 33.0096 36.1828C33.0709 36.2617 33.1016 36.3595 33.1016 36.4761C33.1016 36.576 33.076 36.6657 33.0248 36.7452C32.9741 36.8241 32.9048 36.8863 32.817 36.9318C32.7292 36.9772 32.6292 36.9999 32.5172 36.9999Z" fill="#A6992A"/>
<path d="M33.4775 36.9748V35.1378H34.5146V35.3352H33.6869V35.9559H34.4369V36.1532H33.6869V36.9748H33.4775Z" fill="#A6992A"/>
<path d="M15.8284 31.6705H15.619C15.6066 31.6065 15.5849 31.5503 15.5539 31.5019C15.5235 31.4535 15.4864 31.4128 15.4424 31.3799C15.3991 31.3464 15.3509 31.3213 15.298 31.3046C15.2451 31.2878 15.1899 31.2795 15.1325 31.2795C15.0277 31.2795 14.9329 31.3076 14.8478 31.3638C14.7634 31.42 14.6961 31.5028 14.646 31.6122C14.5964 31.7217 14.5717 31.8559 14.5717 32.015C14.5717 32.174 14.5964 32.3083 14.646 32.4177C14.6961 32.5271 14.7634 32.6099 14.8478 32.6662C14.9329 32.7224 15.0277 32.7505 15.1325 32.7505C15.1899 32.7505 15.2451 32.7421 15.298 32.7254C15.3509 32.7086 15.3991 32.6838 15.4424 32.6509C15.4864 32.6174 15.5235 32.5765 15.5539 32.528C15.5849 32.479 15.6066 32.4228 15.619 32.3594H15.8284C15.8126 32.4533 15.7839 32.5373 15.7423 32.6114C15.7006 32.6856 15.6488 32.7487 15.5869 32.8007C15.5249 32.8521 15.4554 32.8913 15.3782 32.9182C15.3017 32.9451 15.2197 32.9586 15.1325 32.9586C14.9849 32.9586 14.8537 32.9203 14.7389 32.8438C14.624 32.7672 14.5336 32.6584 14.4678 32.5173C14.4019 32.3761 14.369 32.2087 14.369 32.015C14.369 31.8212 14.4019 31.6538 14.4678 31.5127C14.5336 31.3715 14.624 31.2627 14.7389 31.1862C14.8537 31.1096 14.9849 31.0714 15.1325 31.0714C15.2197 31.0714 15.3017 31.0848 15.3782 31.1117C15.4554 31.1386 15.5249 31.1781 15.5869 31.2301C15.6488 31.2815 15.7006 31.3443 15.7423 31.4185C15.7839 31.492 15.8126 31.576 15.8284 31.6705Z" fill="#A6992A"/>
<path d="M16.6669 32.9622C16.5498 32.9622 16.447 32.9326 16.3586 32.8734C16.2708 32.8142 16.2021 32.7313 16.1525 32.6249C16.1035 32.5185 16.079 32.3941 16.079 32.2518C16.079 32.1082 16.1035 31.983 16.1525 31.8759C16.2021 31.7689 16.2708 31.6858 16.3586 31.6266C16.447 31.5674 16.5498 31.5378 16.6669 31.5378C16.784 31.5378 16.8865 31.5674 16.9743 31.6266C17.0627 31.6858 17.1314 31.7689 17.1804 31.8759C17.2299 31.983 17.2547 32.1082 17.2547 32.2518C17.2547 32.3941 17.2299 32.5185 17.1804 32.6249C17.1314 32.7313 17.0627 32.8142 16.9743 32.8734C16.8865 32.9326 16.784 32.9622 16.6669 32.9622ZM16.6669 32.772C16.7558 32.772 16.829 32.7478 16.8865 32.6993C16.9439 32.6509 16.9864 32.5872 17.014 32.5083C17.0416 32.4294 17.0554 32.3439 17.0554 32.2518C17.0554 32.1597 17.0416 32.0739 17.014 31.9943C16.9864 31.9148 16.9439 31.8505 16.8865 31.8015C16.829 31.7525 16.7558 31.7279 16.6669 31.7279C16.5779 31.7279 16.5047 31.7525 16.4473 31.8015C16.3899 31.8505 16.3473 31.9148 16.3198 31.9943C16.2922 32.0739 16.2784 32.1597 16.2784 32.2518C16.2784 32.3439 16.2922 32.4294 16.3198 32.5083C16.3473 32.5872 16.3899 32.6509 16.4473 32.6993C16.5047 32.7478 16.5779 32.772 16.6669 32.772Z" fill="#A6992A"/>
<path d="M17.559 32.9335V31.5557H17.7516V31.7638H17.7651C17.7887 31.6956 17.8315 31.6403 17.8934 31.5979C17.9554 31.5554 18.0252 31.5342 18.1029 31.5342C18.1175 31.5342 18.1358 31.5345 18.1578 31.5351C18.1798 31.5357 18.1964 31.5366 18.2076 31.5378V31.7531C18.2009 31.7513 18.1854 31.7486 18.1612 31.745C18.1375 31.7408 18.1125 31.7387 18.086 31.7387C18.0229 31.7387 17.9666 31.7528 17.9171 31.7809C17.8681 31.8084 17.8293 31.8466 17.8005 31.8957C17.7724 31.9441 17.7583 31.9994 17.7583 32.0616V32.9335H17.559Z" fill="#A6992A"/>
<path d="M18.4439 32.9335V31.5557H18.6365V31.7638H18.65C18.6736 31.6956 18.7164 31.6403 18.7784 31.5979C18.8403 31.5554 18.9101 31.5342 18.9878 31.5342C19.0025 31.5342 19.0208 31.5345 19.0427 31.5351C19.0647 31.5357 19.0813 31.5366 19.0926 31.5378V31.7531C19.0858 31.7513 19.0703 31.7486 19.0461 31.745C19.0225 31.7408 18.9974 31.7387 18.9709 31.7387C18.9079 31.7387 18.8516 31.7528 18.802 31.7809C18.753 31.8084 18.7142 31.8466 18.6855 31.8957C18.6573 31.9441 18.6432 31.9994 18.6432 32.0616V32.9335H18.4439Z" fill="#A6992A"/>
<path d="M19.8333 32.9622C19.7083 32.9622 19.6004 32.9329 19.5098 32.8743C19.4197 32.8151 19.3502 32.7325 19.3012 32.6267C19.2527 32.5203 19.2285 32.3965 19.2285 32.2553C19.2285 32.1142 19.2527 31.9898 19.3012 31.8822C19.3502 31.774 19.4183 31.6897 19.5056 31.6293C19.5934 31.5683 19.6959 31.5378 19.813 31.5378C19.8806 31.5378 19.9473 31.5497 20.0132 31.5737C20.079 31.5976 20.139 31.6364 20.1931 31.6903C20.2471 31.7435 20.2902 31.814 20.3223 31.9019C20.3544 31.9898 20.3704 32.0981 20.3704 32.2266V32.3163H19.3704V32.1334H20.1677C20.1677 32.0556 20.1531 31.9863 20.1238 31.9253C20.0951 31.8643 20.054 31.8161 20.0005 31.7809C19.9476 31.7456 19.8851 31.7279 19.813 31.7279C19.7336 31.7279 19.6649 31.7489 19.6069 31.7907C19.5495 31.832 19.5053 31.8858 19.4743 31.9522C19.4433 32.0186 19.4279 32.0897 19.4279 32.1657V32.2876C19.4279 32.3917 19.4448 32.4799 19.4785 32.5522C19.5129 32.624 19.5605 32.6787 19.6213 32.7164C19.6821 32.7535 19.7527 32.772 19.8333 32.772C19.8856 32.772 19.9329 32.7642 19.9752 32.7487C20.018 32.7325 20.0548 32.7086 20.0858 32.6769C20.1168 32.6446 20.1407 32.6046 20.1576 32.5567L20.3502 32.6141C20.3299 32.6835 20.2958 32.7445 20.248 32.7971C20.2001 32.8491 20.141 32.8898 20.0706 32.9191C20.0002 32.9478 19.9211 32.9622 19.8333 32.9622Z" fill="#A6992A"/>
<path d="M21.2378 31.5557V31.7351H20.5655V31.5557H21.2378ZM20.7615 31.2256H20.9608V32.5388C20.9608 32.5986 20.969 32.6434 20.9853 32.6733C21.0022 32.7026 21.0236 32.7224 21.0495 32.7325C21.0759 32.7421 21.1038 32.7469 21.1331 32.7469C21.1551 32.7469 21.1731 32.7457 21.1872 32.7433C21.2012 32.7403 21.2125 32.7379 21.2209 32.7361L21.2615 32.9263C21.248 32.9317 21.2291 32.937 21.2049 32.9424C21.1807 32.9484 21.15 32.9514 21.1128 32.9514C21.0565 32.9514 21.0013 32.9385 20.9473 32.9128C20.8938 32.8871 20.8493 32.8479 20.8138 32.7953C20.7789 32.7427 20.7615 32.6763 20.7615 32.5962V31.2256Z" fill="#A6992A"/>
<path d="M22.0508 32.9622C21.9336 32.9622 21.8309 32.9326 21.7425 32.8734C21.6546 32.8142 21.5859 32.7313 21.5364 32.6249C21.4874 32.5185 21.4629 32.3941 21.4629 32.2518C21.4629 32.1082 21.4874 31.983 21.5364 31.8759C21.5859 31.7689 21.6546 31.6858 21.7425 31.6266C21.8309 31.5674 21.9336 31.5378 22.0508 31.5378C22.1679 31.5378 22.2703 31.5674 22.3582 31.6266C22.4466 31.6858 22.5153 31.7689 22.5643 31.8759C22.6138 31.983 22.6386 32.1082 22.6386 32.2518C22.6386 32.3941 22.6138 32.5185 22.5643 32.6249C22.5153 32.7313 22.4466 32.8142 22.3582 32.8734C22.2703 32.9326 22.1679 32.9622 22.0508 32.9622ZM22.0508 32.772C22.1397 32.772 22.2129 32.7478 22.2703 32.6993C22.3278 32.6509 22.3703 32.5872 22.3979 32.5083C22.4255 32.4294 22.4393 32.3439 22.4393 32.2518C22.4393 32.1597 22.4255 32.0739 22.3979 31.9943C22.3703 31.9148 22.3278 31.8505 22.2703 31.8015C22.2129 31.7525 22.1397 31.7279 22.0508 31.7279C21.9618 31.7279 21.8886 31.7525 21.8312 31.8015C21.7737 31.8505 21.7312 31.9148 21.7036 31.9943C21.676 32.0739 21.6622 32.1597 21.6622 32.2518C21.6622 32.3439 21.676 32.4294 21.7036 32.5083C21.7312 32.5872 21.7737 32.6509 21.8312 32.6993C21.8886 32.7478 21.9618 32.772 22.0508 32.772Z" fill="#A6992A"/>
<path d="M22.9429 32.9335V31.5557H23.1354V31.7638H23.1489C23.1726 31.6956 23.2154 31.6403 23.2773 31.5979C23.3393 31.5554 23.4091 31.5342 23.4868 31.5342C23.5014 31.5342 23.5197 31.5345 23.5417 31.5351C23.5636 31.5357 23.5802 31.5366 23.5915 31.5378V31.7531C23.5847 31.7513 23.5693 31.7486 23.5451 31.745C23.5214 31.7408 23.4963 31.7387 23.4699 31.7387C23.4068 31.7387 23.3505 31.7528 23.301 31.7809C23.252 31.8084 23.2131 31.8466 23.1844 31.8957C23.1563 31.9441 23.1422 31.9994 23.1422 32.0616V32.9335H22.9429Z" fill="#A6992A"/>
<path d="M24.2095 32.9657C24.1273 32.9657 24.0527 32.9493 23.9857 32.9164C23.9187 32.8829 23.8655 32.8348 23.8261 32.772C23.7867 32.7086 23.767 32.6321 23.767 32.5424C23.767 32.4634 23.7816 32.3995 23.8109 32.3504C23.8402 32.3008 23.8793 32.2619 23.9283 32.2338C23.9773 32.2057 24.0313 32.1848 24.0904 32.171C24.1501 32.1567 24.2101 32.1453 24.2703 32.137C24.3492 32.1262 24.4131 32.1181 24.4621 32.1127C24.5116 32.1068 24.5477 32.0969 24.5702 32.0831C24.5933 32.0694 24.6048 32.0455 24.6048 32.0114V32.0042C24.6048 31.9157 24.582 31.8469 24.5364 31.7979C24.4913 31.7489 24.4229 31.7243 24.3312 31.7243C24.236 31.7243 24.1614 31.7465 24.1073 31.7907C24.0533 31.835 24.0153 31.8822 23.9933 31.9324L23.8041 31.8607C23.8379 31.777 23.883 31.7118 23.9393 31.6651C23.9961 31.6179 24.0581 31.585 24.1251 31.5665C24.1926 31.5473 24.2591 31.5378 24.3244 31.5378C24.3661 31.5378 24.4139 31.5432 24.468 31.5539C24.5226 31.5641 24.5752 31.5853 24.6259 31.6176C24.6772 31.6499 24.7197 31.6986 24.7535 31.7638C24.7872 31.829 24.8041 31.9163 24.8041 32.0257V32.9335H24.6048V32.7469H24.5947C24.5812 32.7768 24.5586 32.8088 24.5271 32.8429C24.4956 32.8769 24.4536 32.9059 24.4013 32.9299C24.3489 32.9538 24.285 32.9657 24.2095 32.9657ZM24.2399 32.7756C24.3188 32.7756 24.3852 32.7591 24.4393 32.7263C24.4939 32.6934 24.535 32.6509 24.5626 32.5989C24.5907 32.5469 24.6048 32.4921 24.6048 32.4347V32.241C24.5964 32.2518 24.5778 32.2616 24.5491 32.2706C24.5209 32.279 24.4883 32.2864 24.4511 32.293C24.4145 32.299 24.3787 32.3044 24.3438 32.3092C24.3095 32.3134 24.2816 32.3169 24.2602 32.3199C24.2084 32.3271 24.16 32.3388 24.1149 32.3549C24.0705 32.3705 24.0344 32.3941 24.0068 32.4258C23.9798 32.4569 23.9663 32.4993 23.9663 32.5531C23.9663 32.6267 23.9919 32.6823 24.0432 32.72C24.095 32.7571 24.1605 32.7756 24.2399 32.7756Z" fill="#A6992A"/>
<path d="M26.3267 32.9622C26.2186 32.9622 26.1232 32.9332 26.0404 32.8752C25.9576 32.8165 25.8929 32.734 25.8461 32.6276C25.7994 32.5206 25.776 32.3941 25.776 32.2482C25.776 32.1035 25.7994 31.9779 25.8461 31.8714C25.8929 31.765 25.9579 31.6828 26.0412 31.6248C26.1246 31.5668 26.2209 31.5378 26.3301 31.5378C26.4146 31.5378 26.4813 31.5527 26.5303 31.5826C26.5798 31.6119 26.6175 31.6454 26.6434 31.6831C26.6699 31.7202 26.6905 31.7507 26.7051 31.7746H26.722V31.0965H26.9213V32.9335H26.7287V32.7218H26.7051C26.6905 32.7469 26.6696 32.7786 26.6426 32.8168C26.6156 32.8545 26.577 32.8883 26.5269 32.9182C26.4768 32.9475 26.4101 32.9622 26.3267 32.9622ZM26.3537 32.772C26.4337 32.772 26.5013 32.7499 26.5565 32.7056C26.6116 32.6608 26.6536 32.5989 26.6823 32.52C26.711 32.4404 26.7254 32.3486 26.7254 32.2446C26.7254 32.1417 26.7113 32.0517 26.6831 31.9746C26.655 31.8969 26.6133 31.8365 26.5581 31.7934C26.503 31.7498 26.4348 31.7279 26.3537 31.7279C26.2693 31.7279 26.1989 31.751 26.1426 31.797C26.0869 31.8424 26.0449 31.9043 26.0168 31.9827C25.9892 32.0604 25.9754 32.1477 25.9754 32.2446C25.9754 32.3427 25.9894 32.4318 26.0176 32.5119C26.0463 32.5914 26.0885 32.6548 26.1443 32.702C26.2006 32.7487 26.2704 32.772 26.3537 32.772Z" fill="#A6992A"/>
<path d="M27.858 32.9622C27.733 32.9622 27.6251 32.9329 27.5345 32.8743C27.4444 32.8151 27.3749 32.7325 27.3259 32.6267C27.2775 32.5203 27.2532 32.3965 27.2532 32.2553C27.2532 32.1142 27.2775 31.9898 27.3259 31.8822C27.3749 31.774 27.443 31.6897 27.5303 31.6293C27.6181 31.5683 27.7206 31.5378 27.8377 31.5378C27.9053 31.5378 27.972 31.5497 28.0379 31.5737C28.1037 31.5976 28.1637 31.6364 28.2178 31.6903C28.2718 31.7435 28.3149 31.814 28.347 31.9019C28.3791 31.9898 28.3951 32.0981 28.3951 32.2266V32.3163H27.3951V32.1334H28.1924C28.1924 32.0556 28.1778 31.9863 28.1485 31.9253C28.1198 31.8643 28.0787 31.8161 28.0252 31.7809C27.9723 31.7456 27.9098 31.7279 27.8377 31.7279C27.7583 31.7279 27.6896 31.7489 27.6316 31.7907C27.5742 31.832 27.53 31.8858 27.499 31.9522C27.4681 32.0186 27.4526 32.0897 27.4526 32.1657V32.2876C27.4526 32.3917 27.4695 32.4799 27.5032 32.5522C27.5376 32.624 27.5852 32.6787 27.646 32.7164C27.7068 32.7535 27.7775 32.772 27.858 32.772C27.9103 32.772 27.9576 32.7642 27.9999 32.7487C28.0427 32.7325 28.0795 32.7086 28.1105 32.6769C28.1415 32.6446 28.1654 32.6046 28.1823 32.5567L28.3749 32.6141C28.3546 32.6835 28.3205 32.7445 28.2727 32.7971C28.2248 32.8491 28.1657 32.8898 28.0953 32.9191C28.0249 32.9478 27.9458 32.9622 27.858 32.9622Z" fill="#A6992A"/>
<path d="M29.6037 31.0965V32.9335H29.3943V31.0965H29.6037Z" fill="#A6992A"/>
<path d="M29.9967 32.9335V31.5557H30.1893V31.771H30.2062C30.2332 31.6974 30.2768 31.6403 30.3371 31.5997C30.3973 31.5584 30.4697 31.5378 30.5541 31.5378C30.6397 31.5378 30.7109 31.5584 30.7678 31.5997C30.8252 31.6403 30.87 31.6974 30.9021 31.771H30.9156C30.9488 31.6998 30.9987 31.6433 31.0651 31.6015C31.1316 31.559 31.2112 31.5378 31.3041 31.5378C31.4201 31.5378 31.515 31.5763 31.5888 31.6535C31.6625 31.73 31.6994 31.8493 31.6994 32.0114V32.9335H31.5001V32.0114C31.5001 31.9097 31.4739 31.8371 31.4215 31.7934C31.3692 31.7498 31.3075 31.7279 31.2366 31.7279C31.1453 31.7279 31.0747 31.7572 31.0246 31.8158C30.9745 31.8738 30.9494 31.9474 30.9494 32.0365V32.9335H30.7467V31.9898C30.7467 31.9115 30.7228 31.8484 30.6749 31.8006C30.627 31.7522 30.5654 31.7279 30.4899 31.7279C30.4381 31.7279 30.3897 31.7426 30.3447 31.7719C30.3002 31.8012 30.2642 31.8418 30.2366 31.8939C30.2095 31.9453 30.196 32.0048 30.196 32.0724V32.9335H29.9967Z" fill="#A6992A"/>
<path d="M32.5909 32.9622C32.4738 32.9622 32.371 32.9326 32.2826 32.8734C32.1948 32.8142 32.1261 32.7313 32.0765 32.6249C32.0275 32.5185 32.003 32.3941 32.003 32.2518C32.003 32.1082 32.0275 31.983 32.0765 31.8759C32.1261 31.7689 32.1948 31.6858 32.2826 31.6266C32.371 31.5674 32.4738 31.5378 32.5909 31.5378C32.708 31.5378 32.8105 31.5674 32.8983 31.6266C32.9867 31.6858 33.0554 31.7689 33.1044 31.8759C33.1539 31.983 33.1787 32.1082 33.1787 32.2518C33.1787 32.3941 33.1539 32.5185 33.1044 32.6249C33.0554 32.7313 32.9867 32.8142 32.8983 32.8734C32.8105 32.9326 32.708 32.9622 32.5909 32.9622ZM32.5909 32.772C32.6798 32.772 32.753 32.7478 32.8105 32.6993C32.8679 32.6509 32.9104 32.5872 32.938 32.5083C32.9656 32.4294 32.9794 32.3439 32.9794 32.2518C32.9794 32.1597 32.9656 32.0739 32.938 31.9943C32.9104 31.9148 32.8679 31.8505 32.8105 31.8015C32.753 31.7525 32.6798 31.7279 32.5909 31.7279C32.5019 31.7279 32.4287 31.7525 32.3713 31.8015C32.3138 31.8505 32.2713 31.9148 32.2437 31.9943C32.2162 32.0739 32.2024 32.1597 32.2024 32.2518C32.2024 32.3439 32.2162 32.4294 32.2437 32.5083C32.2713 32.5872 32.3138 32.6509 32.3713 32.6993C32.4287 32.7478 32.5019 32.772 32.5909 32.772ZM32.4997 31.3692L32.7057 30.953H32.9388L32.6753 31.3692H32.4997Z" fill="#A6992A"/>
<path d="M34.4973 31.5557L34.0176 32.9335H33.8149L33.3352 31.5557H33.5514L33.9095 32.6536H33.923L34.2811 31.5557H34.4973Z" fill="#A6992A"/>
<path d="M35.2579 32.9622C35.1329 32.9622 35.0251 32.9329 34.9344 32.8743C34.8443 32.8151 34.7748 32.7325 34.7258 32.6267C34.6774 32.5203 34.6532 32.3965 34.6532 32.2553C34.6532 32.1142 34.6774 31.9898 34.7258 31.8822C34.7748 31.774 34.8429 31.6897 34.9302 31.6293C35.018 31.5683 35.1205 31.5378 35.2376 31.5378C35.3052 31.5378 35.3719 31.5497 35.4378 31.5737C35.5037 31.5976 35.5636 31.6364 35.6177 31.6903C35.6717 31.7435 35.7148 31.814 35.7469 31.9019C35.779 31.9898 35.795 32.0981 35.795 32.2266V32.3163H34.795V32.1334H35.5923C35.5923 32.0556 35.5777 31.9863 35.5484 31.9253C35.5197 31.8643 35.4786 31.8161 35.4251 31.7809C35.3722 31.7456 35.3097 31.7279 35.2376 31.7279C35.1582 31.7279 35.0895 31.7489 35.0315 31.7907C34.9741 31.832 34.9299 31.8858 34.8989 31.9522C34.868 32.0186 34.8525 32.0897 34.8525 32.1657V32.2876C34.8525 32.3917 34.8694 32.4799 34.9032 32.5522C34.9375 32.624 34.9851 32.6787 35.0459 32.7164C35.1067 32.7535 35.1774 32.772 35.2579 32.772C35.3103 32.772 35.3575 32.7642 35.3998 32.7487C35.4426 32.7325 35.4795 32.7086 35.5104 32.6769C35.5414 32.6446 35.5653 32.6046 35.5822 32.5567L35.7748 32.6141C35.7545 32.6835 35.7204 32.7445 35.6726 32.7971C35.6247 32.8491 35.5656 32.8898 35.4952 32.9191C35.4248 32.9478 35.3457 32.9622 35.2579 32.9622Z" fill="#A6992A"/>
<path d="M36.0983 32.9335V31.5557H36.2976V32.9335H36.0983ZM36.1996 31.3261C36.1608 31.3261 36.1273 31.312 36.0991 31.2839C36.0715 31.2558 36.0577 31.222 36.0577 31.1826C36.0577 31.1431 36.0715 31.1093 36.0991 31.0812C36.1273 31.0531 36.1608 31.0391 36.1996 31.0391C36.2385 31.0391 36.2717 31.0531 36.2993 31.0812C36.3274 31.1093 36.3415 31.1431 36.3415 31.1826C36.3415 31.222 36.3274 31.2558 36.2993 31.2839C36.2717 31.312 36.2385 31.3261 36.1996 31.3261Z" fill="#A6992A"/>
<path d="M37.5816 31.8643L37.4025 31.9181C37.3913 31.8864 37.3747 31.8556 37.3527 31.8257C37.3313 31.7952 37.302 31.7701 37.2649 31.7504C37.2277 31.7306 37.1801 31.7208 37.1221 31.7208C37.0427 31.7208 36.9766 31.7402 36.9236 31.7791C36.8713 31.8173 36.8451 31.8661 36.8451 31.9253C36.8451 31.9779 36.8631 32.0194 36.8991 32.0499C36.9352 32.0804 36.9915 32.1059 37.0681 32.1262L37.2606 32.1764C37.3766 32.2063 37.4631 32.2521 37.5199 32.3137C37.5768 32.3746 37.6052 32.4533 37.6052 32.5496C37.6052 32.6285 37.5838 32.699 37.541 32.7612C37.4988 32.8234 37.4397 32.8725 37.3637 32.9083C37.2877 32.9442 37.1993 32.9622 37.0985 32.9622C36.9662 32.9622 36.8566 32.9317 36.7699 32.8707C36.6832 32.8097 36.6283 32.7206 36.6052 32.6034L36.7944 32.5531C36.8124 32.6273 36.8465 32.6829 36.8966 32.72C36.9473 32.7571 37.0134 32.7756 37.0951 32.7756C37.188 32.7756 37.2618 32.7547 37.3164 32.7128C37.3716 32.6703 37.3991 32.6195 37.3991 32.5603C37.3991 32.5125 37.3834 32.4724 37.3518 32.4401C37.3203 32.4072 37.2719 32.3827 37.2066 32.3666L36.9904 32.3128C36.8716 32.2829 36.7843 32.2365 36.7285 32.1737C36.6734 32.1103 36.6458 32.0311 36.6458 31.936C36.6458 31.8583 36.6663 31.7895 36.7074 31.7297C36.7491 31.6699 36.8057 31.623 36.8772 31.5889C36.9493 31.5548 37.0309 31.5378 37.1221 31.5378C37.2505 31.5378 37.3513 31.5677 37.4245 31.6275C37.4982 31.6873 37.5506 31.7662 37.5816 31.8643Z" fill="#A6992A"/>
<path d="M48 24.0931L26 15L4 24.0931" stroke="#A6992A" stroke-width="0.50517" stroke-linecap="round" stroke-linejoin="round"/>
<defs>
<filter id="filter0_d_47_96" x="0.781726" y="0.781726" width="50.4365" height="50.4365" filterUnits="userSpaceOnUse" color-interpolation-filters="sRGB">
<feFlood flood-opacity="0" result="BackgroundImageFix"/>
<feColorMatrix in="SourceAlpha" type="matrix" values="0 0 0 0 0 0 0 0 0 0 0 0 0 0 0 0 0 0 127 0" result="hardAlpha"/>
<feMorphology radius="0.243655" operator="dilate" in="SourceAlpha" result="effect1_dropShadow_47_96"/>
<feOffset/>
<feGaussianBlur stdDeviation="0.48731"/>
<feComposite in2="hardAlpha" operator="out"/>
<feColorMatrix type="matrix" values="0 0 0 0 1 0 0 0 0 0.84 0 0 0 0 0 0 0 0 0.3 0"/>
<feBlend mode="normal" in2="BackgroundImageFix" result="effect1_dropShadow_47_96"/>
<feBlend mode="normal" in="SourceGraphic" in2="effect1_dropShadow_47_96" result="shape"/>
</filter>
</defs>
</svg>
