<svg width="187" height="89" viewBox="0 0 187 89" fill="none" xmlns="http://www.w3.org/2000/svg">
<path d="M22.44 62.048C21.5013 62.048 20.84 61.6746 20.456 60.928C20.072 60.2026 19.88 59.3493 19.88 58.368C19.88 57.4933 19.9973 56.6293 20.232 55.776C20.488 54.9226 20.7867 54.272 21.128 53.824C20.552 54.5066 19.8373 55.2853 18.984 56.16C18.1307 57.0346 17.192 57.8773 16.168 58.688C15.144 59.4986 14.088 60.1706 13 60.704C11.912 61.2373 10.8347 61.504 9.76799 61.504C9.44799 61.504 9.12799 61.472 8.80799 61.408C8.50932 61.3653 8.21066 61.28 7.91199 61.152C7.12266 60.832 6.53599 60.2666 6.15199 59.456C5.76799 58.624 5.57599 57.632 5.57599 56.48C5.57599 55.264 5.77866 53.9626 6.18399 52.576C6.61066 51.168 7.22932 49.7386 8.03999 48.288C8.42399 47.584 8.85066 46.8906 9.31999 46.208C9.81066 45.504 10.3333 44.8426 10.888 44.224C10.2267 43.9253 9.61866 43.5946 9.06399 43.232C8.50932 42.848 8.03999 42.432 7.65599 41.984C7.39999 41.6853 7.20799 41.3333 7.07999 40.928C6.95199 40.5226 6.88799 40.128 6.88799 39.744C6.88799 39.0613 7.04799 38.6133 7.36799 38.4C7.47466 38.2293 7.60266 38.144 7.75199 38.144C7.94399 38.144 8.03999 38.2613 8.03999 38.496C8.03999 38.6453 7.99732 38.8053 7.91199 38.976C7.80532 39.2533 7.75199 39.5093 7.75199 39.744C7.75199 40.0853 7.83732 40.4053 8.00799 40.704C8.17866 40.9813 8.38132 41.248 8.61599 41.504C9.29866 42.3146 10.2373 42.9866 11.432 43.52C12.7973 42.0266 14.2907 40.6506 15.912 39.392C17.5547 38.112 19.3147 37.088 21.192 36.32C23.0693 35.552 25.0427 35.168 27.112 35.168C28.84 35.168 30.1947 35.552 31.176 36.32C32.1573 37.0666 32.648 38.0373 32.648 39.232C32.648 39.808 32.4773 40.4373 32.136 41.12C31.7947 41.7813 31.24 42.432 30.472 43.072C29.704 43.6906 28.68 44.2346 27.4 44.704C26.1413 45.152 24.5733 45.4613 22.696 45.632C22.0347 45.696 21.4373 45.7493 20.904 45.792C20.392 45.8133 19.8373 45.824 19.24 45.824C18.1307 45.824 17.0533 45.7493 16.008 45.6C14.984 45.4506 13.96 45.216 12.936 44.896C12.552 45.4293 12.0613 46.1546 11.464 47.072C10.888 47.9893 10.312 48.9706 9.73599 50.016C9.15999 51.0613 8.67999 52.0533 8.29599 52.992C7.95466 53.888 7.69866 54.7093 7.52799 55.456C7.35732 56.1813 7.27199 56.832 7.27199 57.408C7.27199 58.4533 7.51732 59.2426 8.00799 59.776C8.49866 60.288 9.15999 60.544 9.99199 60.544C10.8027 60.544 11.72 60.3093 12.744 59.84C13.7893 59.3706 14.8773 58.6666 16.008 57.728C17.1387 56.7893 18.2373 55.7333 19.304 54.56C20.392 53.3866 21.384 52.192 22.28 50.976C23.176 49.76 23.9013 48.64 24.456 47.616C24.8187 46.9333 25.1707 46.4533 25.512 46.176C25.8533 45.8773 26.1413 45.728 26.376 45.728C26.6107 45.728 26.792 45.824 26.92 46.016C27.048 46.1866 27.112 46.4213 27.112 46.72C27.112 47.3173 26.8453 47.9146 26.312 48.512C25.7147 49.1733 25.128 49.984 24.552 50.944C23.976 51.904 23.464 52.9173 23.016 53.984C22.568 55.0506 22.248 56.096 22.056 57.12C21.992 57.4613 21.9493 57.7813 21.928 58.08C21.9067 58.3786 21.896 58.6453 21.896 58.88C21.896 59.6693 22.0133 60.2346 22.248 60.576C22.504 60.9173 22.8347 61.088 23.24 61.088C23.7307 61.088 24.296 60.864 24.936 60.416C25.576 59.968 26.1947 59.3706 26.792 58.624C27.304 57.9413 27.7947 57.216 28.264 56.448C28.7547 55.68 29.2027 54.88 29.608 54.048C29.672 53.8986 29.7573 53.792 29.864 53.728C29.992 53.6426 30.0773 53.6 30.12 53.6C30.2267 53.6 30.28 53.664 30.28 53.792C30.28 53.8773 30.248 54.0053 30.184 54.176C29.992 54.6026 29.736 55.1146 29.416 55.712C29.096 56.3093 28.744 56.928 28.36 57.568C27.976 58.1866 27.5813 58.7626 27.176 59.296C26.6213 60.0213 25.9173 60.6613 25.064 61.216C24.232 61.7706 23.3573 62.048 22.44 62.048ZM18.952 45.056C20.0613 45.056 21.2987 44.992 22.664 44.864C24.4347 44.7146 25.9707 44.3626 27.272 43.808C28.5733 43.2533 29.576 42.5493 30.28 41.696C30.984 40.8426 31.336 39.8933 31.336 38.848C31.336 37.9093 30.9413 37.1946 30.152 36.704C29.384 36.2133 28.4027 35.968 27.208 35.968C25.224 35.968 23.4107 36.3626 21.768 37.152C20.1467 37.92 18.6533 38.9333 17.288 40.192C15.944 41.4506 14.664 42.8053 13.448 44.256C15.0693 44.7893 16.904 45.056 18.952 45.056Z" fill="#A6992A"/>
<path d="M31.2982 60.096C30.4022 60.096 29.7942 59.8613 29.4742 59.392C29.1542 58.9013 28.9942 58.3253 28.9942 57.664C28.9942 56.9813 29.0902 56.2773 29.2822 55.552C29.4742 54.8266 29.6449 54.2186 29.7942 53.728C30.1356 52.5333 30.5622 51.264 31.0742 49.92C31.6076 48.5546 32.1836 47.2213 32.8022 45.92C33.4422 44.5973 34.0716 43.4133 34.6902 42.368C35.1809 41.536 35.7036 40.9173 36.2582 40.512C36.8342 40.0853 37.3356 39.872 37.7622 39.872C38.1036 39.872 38.3702 40 38.5622 40.256C38.7756 40.4906 38.8822 40.8533 38.8822 41.344C38.8822 41.6853 38.8182 42.0906 38.6902 42.56C38.5836 43.0293 38.3916 43.5626 38.1142 44.16C37.3676 45.824 36.4716 47.488 35.4262 49.152C34.4022 50.816 33.1009 52.3733 31.5222 53.824C31.4369 54.1013 31.3196 54.432 31.1702 54.816C31.0422 55.1786 30.9249 55.552 30.8182 55.936C30.6902 56.512 30.6262 57.0026 30.6262 57.408C30.6262 58.0693 30.7542 58.5706 31.0102 58.912C31.2876 59.232 31.6182 59.392 32.0022 59.392C32.3436 59.392 32.7062 59.2746 33.0902 59.04C33.4742 58.784 33.8369 58.4213 34.1782 57.952C34.6902 57.2053 35.1489 56.448 35.5542 55.68C35.9809 54.8906 36.3009 54.2826 36.5142 53.856C36.6422 53.6213 36.7809 53.504 36.9302 53.504C37.0369 53.504 37.0902 53.568 37.0902 53.696C37.0902 53.8026 37.0582 53.92 36.9942 54.048C36.8022 54.4746 36.5462 55.0293 36.2262 55.712C35.9276 56.3733 35.5436 57.0453 35.0742 57.728C34.6262 58.3893 34.0822 58.9546 33.4422 59.424C32.8236 59.872 32.1089 60.096 31.2982 60.096ZM31.7782 52.8C32.5462 52.0106 33.2929 51.104 34.0182 50.08C34.7436 49.0346 35.4156 47.9573 36.0342 46.848C36.6742 45.7173 37.2076 44.6506 37.6342 43.648C37.7836 43.328 37.9009 42.976 37.9862 42.592C38.0929 42.208 38.1462 41.888 38.1462 41.632C38.1462 41.3333 38.0716 41.184 37.9222 41.184C37.8369 41.184 37.7089 41.2693 37.5382 41.44C37.3676 41.5893 37.1436 41.856 36.8662 42.24C36.4609 42.7733 36.0129 43.4986 35.5222 44.416C35.0529 45.3333 34.5729 46.3146 34.0822 47.36C33.5916 48.4053 33.1436 49.4186 32.7382 50.4C32.3329 51.36 32.0129 52.16 31.7782 52.8Z" fill="#A6992A"/>
<path d="M38.7827 60.128C37.9934 60.128 37.2787 59.872 36.6387 59.36C36.0201 58.848 35.7107 58.0693 35.7107 57.024C35.7107 56.064 35.9454 55.04 36.4147 53.952C36.8841 52.8426 37.4814 51.872 38.2067 51.04C38.8254 50.3146 39.5187 49.7173 40.2867 49.248C41.0547 48.7786 41.7801 48.544 42.4627 48.544C42.9321 48.544 43.3374 48.672 43.6787 48.928C44.0414 49.2053 44.2227 49.6 44.2227 50.112C44.2227 50.6453 44.0201 51.232 43.6147 51.872C43.2094 52.512 42.6334 53.1093 41.8867 53.664C41.5667 53.8986 41.1614 54.1226 40.6707 54.336C40.1801 54.5493 39.6894 54.7306 39.1987 54.88C38.7081 55.008 38.3027 55.072 37.9827 55.072C37.8761 55.328 37.7694 55.6693 37.6627 56.096C37.5774 56.5226 37.5347 56.96 37.5347 57.408C37.5347 57.9413 37.6414 58.4213 37.8547 58.848C38.0681 59.2746 38.4627 59.488 39.0387 59.488C39.7427 59.488 40.3827 59.2853 40.9587 58.88C41.5347 58.4746 42.0467 57.9733 42.4947 57.376C42.9427 56.7573 43.3161 56.1386 43.6147 55.52C43.9347 54.9013 44.1907 54.3786 44.3827 53.952C44.5107 53.6533 44.6814 53.504 44.8947 53.504C45.0014 53.504 45.0547 53.5573 45.0547 53.664C45.0547 53.7493 45.0227 53.856 44.9587 53.984C44.6601 54.624 44.3401 55.3066 43.9987 56.032C43.6574 56.736 43.2521 57.408 42.7827 58.048C42.3134 58.6666 41.7481 59.168 41.0867 59.552C40.4467 59.936 39.6787 60.128 38.7827 60.128ZM38.2067 54.496C38.5054 54.496 39.0067 54.3893 39.7107 54.176C40.4147 53.9413 41.0547 53.5786 41.6307 53.088C42.1854 52.5973 42.6121 52.064 42.9107 51.488C43.2094 50.8906 43.3587 50.3893 43.3587 49.984C43.3587 49.5146 43.1881 49.28 42.8467 49.28C42.5907 49.28 42.2387 49.4506 41.7907 49.792C41.3427 50.1333 40.7881 50.7093 40.1267 51.52C39.7214 52.032 39.3374 52.5866 38.9747 53.184C38.6121 53.7813 38.3561 54.2186 38.2067 54.496Z" fill="#A6992A"/>
<path d="M45.1842 60.128C44.1389 60.128 43.3922 59.8613 42.9442 59.328C42.5176 58.7733 42.3042 58.1973 42.3042 57.6C42.3042 57.1093 42.4216 56.6613 42.6562 56.256C42.9122 55.8506 43.2109 55.6373 43.5522 55.616C43.9789 54.784 44.4376 53.8773 44.9282 52.896C45.4402 51.9146 45.9096 50.9653 46.3362 50.048C46.6349 49.4293 47.0082 48.832 47.4562 48.256C47.9256 47.68 48.4376 47.3493 48.9922 47.264H49.3122C49.4829 47.264 49.6322 47.2746 49.7602 47.296C49.9096 47.3173 50.0589 47.36 50.2082 47.424C50.4429 47.5306 50.5602 47.6906 50.5602 47.904C50.5602 48.032 50.4856 48.096 50.3362 48.096C50.2722 48.096 50.1869 48.064 50.0802 48C49.8242 47.8933 49.6002 47.84 49.4082 47.84C49.2802 47.84 49.1629 47.872 49.0562 47.936C48.6509 48.1493 48.3629 48.448 48.1922 48.832C48.0429 49.216 47.9682 49.6213 47.9682 50.048C47.9682 50.3893 48.0002 50.7413 48.0642 51.104C48.1496 51.4453 48.2456 51.7546 48.3522 52.032C48.5869 52.6293 48.8322 53.216 49.0882 53.792C49.3656 54.368 49.5042 54.9866 49.5042 55.648C49.5042 56.288 49.2909 56.9706 48.8642 57.696C48.4376 58.4 47.8936 58.9653 47.2322 59.392L47.4562 59.424C47.5629 59.4453 47.6376 59.456 47.6802 59.456C47.7229 59.456 47.7549 59.456 47.7762 59.456C48.2669 59.456 48.7256 59.3173 49.1522 59.04C49.6002 58.7413 49.9949 58.3786 50.3362 57.952C50.6776 57.5253 51.0616 56.928 51.4882 56.16C51.9362 55.392 52.3629 54.5813 52.7682 53.728C52.8322 53.6213 52.9069 53.568 52.9922 53.568C53.0989 53.568 53.1736 53.6106 53.2162 53.696C53.2802 53.76 53.2909 53.8453 53.2482 53.952C52.9709 54.5493 52.6509 55.2 52.2882 55.904C51.9469 56.5866 51.5522 57.248 51.1042 57.888C50.6562 58.5066 50.1336 59.0186 49.5362 59.424C48.9602 59.808 48.3096 60 47.5842 60C47.4136 60 47.2322 59.9893 47.0402 59.968C46.8482 59.9466 46.6562 59.904 46.4642 59.84C46.2509 59.9253 46.0269 59.9893 45.7922 60.032C45.5789 60.096 45.3762 60.128 45.1842 60.128ZM46.1442 59.168C46.5069 58.8693 46.8269 58.432 47.1042 57.856C47.4029 57.28 47.5522 56.5226 47.5522 55.584C47.5522 54.752 47.4669 53.8666 47.2962 52.928C47.1256 51.9893 47.0402 51.1573 47.0402 50.432C47.0402 50.2826 47.0402 50.1546 47.0402 50.048C47.0616 49.92 47.0829 49.8026 47.1042 49.696C46.8269 50.272 46.5069 50.944 46.1442 51.712C45.7816 52.4586 45.4189 53.184 45.0562 53.888C44.6936 54.592 44.3842 55.1893 44.1282 55.68C44.1282 55.68 44.1816 55.6906 44.2882 55.712C44.4162 55.712 44.5336 55.7866 44.6402 55.936C44.7469 56.064 44.7896 56.3306 44.7682 56.736C44.7469 57.2693 44.8642 57.7706 45.1202 58.24C45.3976 58.688 45.7389 58.9973 46.1442 59.168ZM44.9282 59.616C45.0562 59.616 45.1736 59.6053 45.2802 59.584C45.3869 59.5413 45.4829 59.5093 45.5682 59.488C45.2482 59.2533 44.9602 58.944 44.7042 58.56C44.4696 58.1546 44.3309 57.6426 44.2882 57.024C43.9042 57.4293 43.7122 57.8666 43.7122 58.336C43.7122 58.6773 43.8189 58.976 44.0322 59.232C44.2456 59.488 44.5442 59.616 44.9282 59.616Z" fill="#A6992A"/>
<path d="M53.403 60.128C52.3577 60.128 51.611 59.8613 51.163 59.328C50.7363 58.7733 50.523 58.1973 50.523 57.6C50.523 57.1093 50.6403 56.6613 50.875 56.256C51.131 55.8506 51.4297 55.6373 51.771 55.616C52.1977 54.784 52.6563 53.8773 53.147 52.896C53.659 51.9146 54.1283 50.9653 54.555 50.048C54.8537 49.4293 55.227 48.832 55.675 48.256C56.1443 47.68 56.6563 47.3493 57.211 47.264H57.531C57.7017 47.264 57.851 47.2746 57.979 47.296C58.1283 47.3173 58.2777 47.36 58.427 47.424C58.6617 47.5306 58.779 47.6906 58.779 47.904C58.779 48.032 58.7043 48.096 58.555 48.096C58.491 48.096 58.4057 48.064 58.299 48C58.043 47.8933 57.819 47.84 57.627 47.84C57.499 47.84 57.3817 47.872 57.275 47.936C56.8697 48.1493 56.5817 48.448 56.411 48.832C56.2617 49.216 56.187 49.6213 56.187 50.048C56.187 50.3893 56.219 50.7413 56.283 51.104C56.3683 51.4453 56.4643 51.7546 56.571 52.032C56.8057 52.6293 57.051 53.216 57.307 53.792C57.5843 54.368 57.723 54.9866 57.723 55.648C57.723 56.288 57.5097 56.9706 57.083 57.696C56.6563 58.4 56.1123 58.9653 55.451 59.392L55.675 59.424C55.7817 59.4453 55.8563 59.456 55.899 59.456C55.9417 59.456 55.9737 59.456 55.995 59.456C56.4857 59.456 56.9443 59.3173 57.371 59.04C57.819 58.7413 58.2137 58.3786 58.555 57.952C58.8963 57.5253 59.2803 56.928 59.707 56.16C60.155 55.392 60.5817 54.5813 60.987 53.728C61.051 53.6213 61.1257 53.568 61.211 53.568C61.3177 53.568 61.3923 53.6106 61.435 53.696C61.499 53.76 61.5097 53.8453 61.467 53.952C61.1897 54.5493 60.8697 55.2 60.507 55.904C60.1657 56.5866 59.771 57.248 59.323 57.888C58.875 58.5066 58.3523 59.0186 57.755 59.424C57.179 59.808 56.5283 60 55.803 60C55.6323 60 55.451 59.9893 55.259 59.968C55.067 59.9466 54.875 59.904 54.683 59.84C54.4697 59.9253 54.2457 59.9893 54.011 60.032C53.7977 60.096 53.595 60.128 53.403 60.128ZM54.363 59.168C54.7257 58.8693 55.0457 58.432 55.323 57.856C55.6217 57.28 55.771 56.5226 55.771 55.584C55.771 54.752 55.6857 53.8666 55.515 52.928C55.3443 51.9893 55.259 51.1573 55.259 50.432C55.259 50.2826 55.259 50.1546 55.259 50.048C55.2803 49.92 55.3017 49.8026 55.323 49.696C55.0457 50.272 54.7257 50.944 54.363 51.712C54.0003 52.4586 53.6377 53.184 53.275 53.888C52.9123 54.592 52.603 55.1893 52.347 55.68C52.347 55.68 52.4003 55.6906 52.507 55.712C52.635 55.712 52.7523 55.7866 52.859 55.936C52.9657 56.064 53.0083 56.3306 52.987 56.736C52.9657 57.2693 53.083 57.7706 53.339 58.24C53.6163 58.688 53.9577 58.9973 54.363 59.168ZM53.147 59.616C53.275 59.616 53.3923 59.6053 53.499 59.584C53.6057 59.5413 53.7017 59.5093 53.787 59.488C53.467 59.2533 53.179 58.944 52.923 58.56C52.6883 58.1546 52.5497 57.6426 52.507 57.024C52.123 57.4293 51.931 57.8666 51.931 58.336C51.931 58.6773 52.0377 58.976 52.251 59.232C52.4643 59.488 52.763 59.616 53.147 59.616Z" fill="#A6992A"/>
<path d="M67.7977 60.096C67.5631 60.1173 67.2964 60.064 66.9977 59.936C66.6991 59.808 66.4324 59.5733 66.1977 59.232C65.9844 58.8906 65.8777 58.4106 65.8777 57.792C65.8777 57.28 65.9737 56.6613 66.1657 55.936C65.9097 56.3413 65.5791 56.8426 65.1737 57.44C64.7684 58.016 64.3311 58.528 63.8617 58.976C63.4564 59.36 63.0724 59.6373 62.7097 59.808C62.3471 59.9786 62.0164 60.064 61.7177 60.064C61.1631 60.064 60.7151 59.8186 60.3737 59.328C60.0324 58.816 59.8617 58.1546 59.8617 57.344C59.8617 56.4906 60.0751 55.52 60.5017 54.432C60.9284 53.344 61.6217 52.2133 62.5817 51.04C63.2004 50.2933 63.9471 49.696 64.8217 49.248C65.7177 48.7786 66.5924 48.544 67.4457 48.544C67.9364 48.544 68.4057 48.6293 68.8537 48.8C69.3017 48.9493 69.6964 49.2053 70.0377 49.568C70.1871 49.7173 70.2617 49.888 70.2617 50.08C70.2617 50.208 70.2084 50.3146 70.1017 50.4C69.9951 50.4853 69.8564 50.5066 69.6857 50.464C69.4511 49.7173 68.9497 49.344 68.1817 49.344C67.8191 49.344 67.4031 49.4613 66.9337 49.696C66.2084 50.08 65.4511 50.7093 64.6617 51.584C63.8937 52.4586 63.2217 53.3653 62.6457 54.304C62.5604 54.432 62.4217 54.6773 62.2297 55.04C62.0591 55.4026 61.8884 55.808 61.7177 56.256C61.5471 56.704 61.4297 57.1413 61.3657 57.568C61.3444 57.696 61.3337 57.792 61.3337 57.856C61.3337 57.8986 61.3337 57.9733 61.3337 58.08C61.3337 58.784 61.6004 59.136 62.1337 59.136C62.7737 59.136 63.4991 58.6666 64.3097 57.728C64.8644 57.0453 65.3657 56.3306 65.8137 55.584C66.2617 54.8373 66.7204 54.0373 67.1897 53.184C67.5097 52.608 67.8084 52.128 68.0857 51.744C68.3631 51.36 68.7577 51.168 69.2697 51.168C69.5044 51.168 69.7391 51.2 69.9737 51.264C70.2084 51.328 70.4537 51.3386 70.7097 51.296C70.5391 51.4666 70.3044 51.7866 70.0057 52.256C69.7284 52.7253 69.4297 53.2586 69.1097 53.856C68.7897 54.4533 68.5017 55.0613 68.2457 55.68C67.9897 56.2986 67.8084 56.832 67.7017 57.28C67.6804 57.408 67.6484 57.5893 67.6057 57.824C67.5844 58.0586 67.5737 58.2293 67.5737 58.336C67.5737 58.9333 67.7444 59.232 68.0857 59.232C68.4271 59.232 68.7897 59.0293 69.1737 58.624C69.5791 58.2186 69.9737 57.7173 70.3577 57.12C70.7417 56.5226 71.0937 55.9253 71.4137 55.328C71.7337 54.7093 71.9897 54.208 72.1817 53.824C72.2671 53.6106 72.3951 53.504 72.5657 53.504C72.6724 53.504 72.7257 53.5786 72.7257 53.728C72.7257 53.792 72.6937 53.9093 72.6297 54.08C72.3737 54.6133 72.0644 55.2213 71.7017 55.904C71.3391 56.5653 70.9444 57.216 70.5177 57.856C70.0911 58.4746 69.6431 58.9973 69.1737 59.424C68.7257 59.8293 68.2671 60.0533 67.7977 60.096Z" fill="#A6992A"/>
<path d="M69.0957 60.256C69.8637 58.6986 70.5997 57.1626 71.3037 55.648C72.0291 54.112 72.7651 52.6506 73.5117 51.264C73.9384 50.496 74.2904 49.9626 74.5677 49.664C74.8664 49.344 75.2611 49.184 75.7517 49.184C75.9224 49.184 76.1037 49.216 76.2957 49.28C76.4877 49.3226 76.6797 49.344 76.8717 49.344C76.9997 49.344 77.0957 49.3333 77.1597 49.312C76.8611 49.4826 76.4771 49.9093 76.0077 50.592C75.5384 51.2533 75.0584 52.0213 74.5677 52.896C74.0771 53.7706 73.6397 54.592 73.2557 55.36C73.6611 54.8693 74.0771 54.3786 74.5037 53.888C74.9517 53.3973 75.4424 52.928 75.9757 52.48C76.4877 52.032 77.0957 51.5733 77.7997 51.104C78.5251 50.6133 79.2291 50.208 79.9117 49.888C80.5944 49.568 81.1384 49.408 81.5437 49.408C81.6931 49.408 81.7997 49.4186 81.8637 49.44C81.8637 49.44 81.7464 49.6533 81.5117 50.08C81.2771 50.4853 80.9784 51.0293 80.6157 51.712C80.2744 52.3733 79.9224 53.088 79.5597 53.856C79.1971 54.6026 78.8664 55.328 78.5677 56.032C78.2904 56.7146 78.1091 57.2906 78.0237 57.76C77.9597 58.0373 77.9277 58.2933 77.9277 58.528C77.9277 58.8693 77.9917 59.0933 78.1197 59.2C78.2477 59.3066 78.3864 59.36 78.5357 59.36C78.9411 59.36 79.3677 59.1466 79.8157 58.72C80.2637 58.272 80.6904 57.728 81.0957 57.088C81.5224 56.448 81.8957 55.8293 82.2157 55.232C82.5571 54.6133 82.8024 54.144 82.9517 53.824C83.0371 53.6533 83.1011 53.5573 83.1437 53.536C83.1864 53.4933 83.2504 53.472 83.3357 53.472C83.4637 53.472 83.5277 53.5573 83.5277 53.728C83.5277 53.8346 83.4957 53.952 83.4317 54.08C83.1757 54.5706 82.8664 55.1573 82.5037 55.84C82.1624 56.5226 81.7677 57.1946 81.3197 57.856C80.8717 58.496 80.3811 59.04 79.8477 59.488C79.3144 59.9146 78.7384 60.128 78.1197 60.128C77.6931 60.128 77.2451 59.9786 76.7757 59.68C76.3277 59.3813 76.1037 58.8266 76.1037 58.016C76.1037 57.7813 76.1251 57.536 76.1677 57.28C76.2104 57.0026 76.2851 56.704 76.3917 56.384C76.5624 55.9573 76.7651 55.4986 76.9997 55.008C77.2344 54.5173 77.6184 53.8453 78.1517 52.992C78.3011 52.7573 78.3864 52.576 78.4077 52.448C78.4504 52.32 78.4717 52.2133 78.4717 52.128C78.4717 51.872 78.3544 51.744 78.1197 51.744C77.9277 51.744 77.6397 51.8506 77.2557 52.064C76.8931 52.2773 76.4344 52.6506 75.8797 53.184C75.3464 53.696 74.7064 54.4213 73.9597 55.36C73.2344 56.2986 72.3917 57.6853 71.4317 59.52C71.2824 59.7973 71.1117 59.9466 70.9197 59.968C70.7491 59.9893 70.5037 60.0106 70.1837 60.032C69.9704 60.0533 69.7677 60.064 69.5757 60.064C69.3837 60.0853 69.2237 60.1493 69.0957 60.256Z" fill="#A6992A"/>
<path d="M89.9577 60C89.3817 60 88.9017 59.712 88.5177 59.136C88.4111 58.9653 88.3151 58.7413 88.2297 58.464C88.1444 58.1866 88.1017 57.8773 88.1017 57.536C88.1017 57.344 88.1124 57.152 88.1337 56.96C88.1551 56.7466 88.1977 56.5333 88.2617 56.32C87.9631 56.7893 87.6111 57.312 87.2057 57.888C86.8217 58.4426 86.3737 58.9333 85.8617 59.36C85.3711 59.7653 84.8164 59.968 84.1977 59.968C83.9844 59.968 83.7604 59.936 83.5257 59.872C82.9497 59.7013 82.5337 59.4026 82.2777 58.976C82.0431 58.5493 81.9257 58.0373 81.9257 57.44C81.9257 56.7786 82.0537 56.0533 82.3097 55.264C82.5871 54.4746 82.9284 53.7066 83.3337 52.96C83.7604 52.2133 84.1977 51.5733 84.6457 51.04C85.2857 50.2933 86.0217 49.696 86.8537 49.248C87.6857 48.8 88.5284 48.576 89.3817 48.576C90.1497 48.576 90.8751 48.7786 91.5577 49.184C91.8777 48.5866 92.2191 47.9253 92.5817 47.2C92.9444 46.4533 93.3071 45.7173 93.6697 44.992C94.0324 44.2666 94.3524 43.6053 94.6297 43.008C94.9071 42.3893 95.1204 41.92 95.2697 41.6C95.5897 40.8533 95.8884 40.384 96.1657 40.192C96.4644 39.9786 96.8164 39.872 97.2217 39.872C97.4564 39.872 97.7124 39.904 97.9897 39.968C98.2884 40.0106 98.5764 40.0213 98.8537 40C98.7257 40.128 98.4591 40.5013 98.0537 41.12C97.6697 41.7173 97.2111 42.4853 96.6777 43.424C96.1444 44.3626 95.5684 45.3973 94.9497 46.528C94.3524 47.6373 93.7551 48.768 93.1577 49.92C92.5817 51.0506 92.0377 52.128 91.5257 53.152C91.0351 54.1546 90.6404 55.0186 90.3417 55.744C90.2564 55.9146 90.1284 56.2666 89.9577 56.8C89.8084 57.312 89.7337 57.76 89.7337 58.144C89.7337 58.4213 89.7977 58.6666 89.9257 58.88C90.0537 59.072 90.2671 59.168 90.5657 59.168C90.9711 59.168 91.3764 58.9653 91.7817 58.56C92.2084 58.1333 92.6137 57.6213 92.9977 57.024C93.3817 56.4053 93.7231 55.808 94.0217 55.232C94.3204 54.6346 94.5444 54.1653 94.6937 53.824C94.8004 53.5893 94.9284 53.472 95.0777 53.472C95.2057 53.472 95.2697 53.568 95.2697 53.76C95.2697 53.7813 95.2697 53.824 95.2697 53.888C95.2697 53.9306 95.2484 53.984 95.2057 54.048C95.0137 54.496 94.7471 55.0506 94.4057 55.712C94.0857 56.3733 93.7017 57.0346 93.2537 57.696C92.8057 58.3573 92.3044 58.912 91.7497 59.36C91.1951 59.7866 90.5977 60 89.9577 60ZM84.4217 59.04C84.7204 59.04 85.0937 58.88 85.5417 58.56C85.9897 58.2186 86.4697 57.6853 86.9817 56.96C87.5791 56.1066 88.2617 55.04 89.0297 53.76C89.7977 52.48 90.5551 51.1253 91.3017 49.696C91.0244 49.44 90.7044 49.312 90.3417 49.312C89.7444 49.312 89.0724 49.5893 88.3257 50.144C87.6004 50.6986 86.8857 51.4026 86.1817 52.256C85.4991 53.1093 84.9231 53.9733 84.4537 54.848C84.1337 55.4453 83.8991 55.9893 83.7497 56.48C83.6217 56.9706 83.5577 57.3973 83.5577 57.76C83.5577 58.6133 83.8457 59.04 84.4217 59.04Z" fill="#A6992A"/>
<path d="M98.5062 60.032C98.1009 60.032 97.6956 59.872 97.2902 59.552C96.8849 59.2106 96.6822 58.6666 96.6822 57.92C96.6822 57.344 96.8209 56.6826 97.0982 55.936C97.3542 55.2106 97.6956 54.5066 98.1222 53.824C98.5702 53.1413 98.8902 52.5866 99.0822 52.16C99.1462 51.9893 99.1782 51.84 99.1782 51.712C99.1782 51.328 98.9329 51.0506 98.4422 50.88C97.9729 50.7093 97.3542 50.6133 96.5862 50.592L96.2022 51.648C95.9676 52.3306 95.6369 53.1306 95.2102 54.048C94.8049 54.9653 94.3462 55.8506 93.8342 56.704C93.3436 57.5573 92.8316 58.24 92.2982 58.752C92.2556 58.7946 92.2022 58.816 92.1382 58.816C92.0529 58.816 91.9996 58.7626 91.9782 58.656C91.9356 58.5493 91.9782 58.4213 92.1062 58.272C92.9382 57.1626 93.6849 55.936 94.3462 54.592C95.0076 53.2266 95.5622 51.84 96.0102 50.432C96.4796 49.024 96.8209 47.7226 97.0342 46.528C97.0982 46.1866 97.2156 45.9413 97.3862 45.792C97.5569 45.6213 97.7382 45.536 97.9302 45.536C98.2076 45.536 98.4636 45.6746 98.6982 45.952C98.9329 46.208 99.0502 46.5813 99.0502 47.072C99.0502 47.1573 99.0396 47.2533 99.0182 47.36C99.0182 47.4666 99.0076 47.5733 98.9862 47.68C98.9009 48.128 98.6449 48.5546 98.2182 48.96C97.8129 49.344 97.4822 49.632 97.2262 49.824C97.4396 49.8453 97.6636 49.8666 97.8982 49.888C98.1329 49.888 98.3889 49.888 98.6662 49.888C99.6689 49.888 100.661 49.824 101.642 49.696C101.685 49.824 101.706 49.92 101.706 49.984C101.706 50.2613 101.621 50.6133 101.45 51.04C101.301 51.4666 101.141 51.8506 100.97 52.192C100.885 52.384 100.714 52.736 100.458 53.248C100.202 53.7386 99.9249 54.304 99.6262 54.944C99.3276 55.5626 99.0716 56.1813 98.8582 56.8C98.6662 57.3973 98.5702 57.9093 98.5702 58.336C98.5702 58.8906 98.7836 59.168 99.2102 59.168C99.5302 59.168 99.8822 58.9653 100.266 58.56C100.65 58.1333 101.024 57.6213 101.386 57.024C101.77 56.4053 102.112 55.808 102.41 55.232C102.73 54.6346 102.976 54.1653 103.146 53.824C103.232 53.6106 103.349 53.504 103.498 53.504C103.584 53.504 103.626 53.5786 103.626 53.728C103.626 53.8133 103.594 53.9413 103.53 54.112C103.296 54.6026 103.018 55.1573 102.698 55.776C102.378 56.3946 102.016 57.0026 101.61 57.6C101.226 58.1973 100.8 58.72 100.33 59.168C99.8822 59.5946 99.3916 59.872 98.8582 60C98.7942 60.0213 98.6769 60.032 98.5062 60.032Z" fill="#A6992A"/>
<path d="M109.954 60.096C109.719 60.1173 109.453 60.064 109.154 59.936C108.855 59.808 108.589 59.5733 108.354 59.232C108.141 58.8906 108.034 58.4106 108.034 57.792C108.034 57.28 108.13 56.6613 108.322 55.936C108.066 56.3413 107.735 56.8426 107.33 57.44C106.925 58.016 106.487 58.528 106.018 58.976C105.613 59.36 105.229 59.6373 104.866 59.808C104.503 59.9786 104.173 60.064 103.874 60.064C103.319 60.064 102.871 59.8186 102.53 59.328C102.189 58.816 102.018 58.1546 102.018 57.344C102.018 56.4906 102.231 55.52 102.658 54.432C103.085 53.344 103.778 52.2133 104.738 51.04C105.357 50.2933 106.103 49.696 106.978 49.248C107.874 48.7786 108.749 48.544 109.602 48.544C110.093 48.544 110.562 48.6293 111.01 48.8C111.458 48.9493 111.853 49.2053 112.194 49.568C112.343 49.7173 112.418 49.888 112.418 50.08C112.418 50.208 112.365 50.3146 112.258 50.4C112.151 50.4853 112.013 50.5066 111.842 50.464C111.607 49.7173 111.106 49.344 110.338 49.344C109.975 49.344 109.559 49.4613 109.09 49.696C108.365 50.08 107.607 50.7093 106.818 51.584C106.05 52.4586 105.378 53.3653 104.802 54.304C104.717 54.432 104.578 54.6773 104.386 55.04C104.215 55.4026 104.045 55.808 103.874 56.256C103.703 56.704 103.586 57.1413 103.522 57.568C103.501 57.696 103.49 57.792 103.49 57.856C103.49 57.8986 103.49 57.9733 103.49 58.08C103.49 58.784 103.757 59.136 104.29 59.136C104.93 59.136 105.655 58.6666 106.466 57.728C107.021 57.0453 107.522 56.3306 107.97 55.584C108.418 54.8373 108.877 54.0373 109.346 53.184C109.666 52.608 109.965 52.128 110.242 51.744C110.519 51.36 110.914 51.168 111.426 51.168C111.661 51.168 111.895 51.2 112.13 51.264C112.365 51.328 112.61 51.3386 112.866 51.296C112.695 51.4666 112.461 51.7866 112.162 52.256C111.885 52.7253 111.586 53.2586 111.266 53.856C110.946 54.4533 110.658 55.0613 110.402 55.68C110.146 56.2986 109.965 56.832 109.858 57.28C109.837 57.408 109.805 57.5893 109.762 57.824C109.741 58.0586 109.73 58.2293 109.73 58.336C109.73 58.9333 109.901 59.232 110.242 59.232C110.583 59.232 110.946 59.0293 111.33 58.624C111.735 58.2186 112.13 57.7173 112.514 57.12C112.898 56.5226 113.25 55.9253 113.57 55.328C113.89 54.7093 114.146 54.208 114.338 53.824C114.423 53.6106 114.551 53.504 114.722 53.504C114.829 53.504 114.882 53.5786 114.882 53.728C114.882 53.792 114.85 53.9093 114.786 54.08C114.53 54.6133 114.221 55.2213 113.858 55.904C113.495 56.5653 113.101 57.216 112.674 57.856C112.247 58.4746 111.799 58.9973 111.33 59.424C110.882 59.8293 110.423 60.0533 109.954 60.096Z" fill="#A6992A"/>
<path d="M149.42 61.344C148.823 61.344 148.226 61.2053 147.628 60.928C147.052 60.6506 146.508 60.2453 145.996 59.712C145.25 58.944 144.599 58.0266 144.044 56.96C143.511 55.872 143.052 54.7626 142.668 53.632C142.284 52.48 141.986 51.4346 141.772 50.496C141.559 49.536 141.41 48.8 141.324 48.288C140.535 49.8026 139.714 51.3066 138.86 52.8C138.028 54.272 136.962 55.7226 135.66 57.152C134.423 58.496 133.068 59.5093 131.596 60.192C130.124 60.896 128.599 61.248 127.02 61.248C126.53 61.248 126.028 61.216 125.516 61.152C124.108 60.9813 123.074 60.576 122.412 59.936C121.751 59.296 121.42 58.6133 121.42 57.888C121.42 57.0986 121.772 56.384 122.476 55.744C123.18 55.104 124.183 54.784 125.484 54.784C125.911 54.784 126.37 54.8266 126.86 54.912C127.351 54.9973 127.863 55.136 128.396 55.328C128.631 55.4133 128.748 55.5093 128.748 55.616C128.748 55.7013 128.663 55.744 128.492 55.744C128.386 55.744 128.3 55.7333 128.236 55.712C127.532 55.456 126.903 55.328 126.348 55.328C125.452 55.328 124.77 55.5946 124.3 56.128C123.831 56.64 123.596 57.2053 123.596 57.824C123.596 58.4213 123.852 58.976 124.364 59.488C124.876 60 125.666 60.256 126.732 60.256C128.076 60.256 129.314 59.9466 130.444 59.328C131.575 58.688 132.631 57.824 133.612 56.736C134.594 55.6266 135.532 54.3786 136.428 52.992C137.324 51.584 138.199 50.1226 139.052 48.608C140.482 46.0693 141.772 43.7653 142.924 41.696C144.098 39.6053 145.335 37.8346 146.636 36.384C146.06 36.32 145.474 36.2773 144.876 36.256C144.279 36.2346 143.671 36.224 143.052 36.224C141.708 36.224 140.311 36.2986 138.86 36.448C137.431 36.576 136.044 36.7893 134.7 37.088C132.887 37.472 131.33 38.048 130.028 38.816C128.727 39.5626 127.692 40.4053 126.924 41.344C126.178 42.2613 125.708 43.1893 125.516 44.128C125.452 44.4693 125.42 44.8 125.42 45.12C125.42 46.208 125.783 47.0506 126.508 47.648C127.234 48.2453 128.066 48.544 129.004 48.544C129.602 48.544 130.199 48.4266 130.796 48.192C131.415 47.936 131.97 47.5413 132.46 47.008C132.866 46.5813 133.164 46.1866 133.356 45.824C133.548 45.44 133.655 45.152 133.676 44.96C133.698 44.6613 133.762 44.512 133.868 44.512C133.932 44.512 133.986 44.5653 134.028 44.672C134.092 44.7786 134.114 44.8853 134.092 44.992C134.007 45.4826 133.858 45.9626 133.644 46.432C133.431 46.9013 133.175 47.296 132.876 47.616C132.279 48.2346 131.596 48.6933 130.828 48.992C130.06 49.2906 129.324 49.44 128.62 49.44C127.788 49.44 126.999 49.2586 126.252 48.896C125.527 48.5333 124.94 48.0106 124.492 47.328C124.044 46.624 123.82 45.76 123.82 44.736C123.82 43.5413 124.236 42.3253 125.068 41.088C125.9 39.8293 127.148 38.72 128.812 37.76C130.498 36.8 132.588 36.1386 135.084 35.776C136.343 35.6053 137.559 35.4773 138.732 35.392C139.927 35.2853 141.079 35.232 142.188 35.232C143.084 35.232 143.959 35.264 144.812 35.328C145.666 35.392 146.508 35.4773 147.34 35.584C147.895 35.008 148.268 34.72 148.46 34.72C148.61 34.72 148.684 34.8373 148.684 35.072C148.684 35.1573 148.674 35.264 148.652 35.392C148.631 35.52 148.599 35.648 148.556 35.776C149.132 35.8613 149.687 35.9573 150.22 36.064C150.775 36.1493 151.266 36.256 151.692 36.384C153.378 36.8533 154.604 37.472 155.372 38.24C156.162 38.9866 156.556 39.7973 156.556 40.672C156.556 41.6106 156.13 42.5493 155.276 43.488C154.444 44.4266 153.26 45.2586 151.724 45.984C150.21 46.7093 148.428 47.2426 146.38 47.584C145.719 47.6906 145.132 47.7653 144.62 47.808C144.13 47.8506 143.703 47.8826 143.34 47.904C143.383 48.1173 143.479 48.5653 143.628 49.248C143.778 49.9306 143.991 50.7413 144.268 51.68C144.546 52.5973 144.898 53.568 145.324 54.592C145.772 55.616 146.306 56.5866 146.924 57.504C147.415 58.2293 147.916 58.8266 148.428 59.296C148.94 59.7653 149.484 60 150.06 60C150.423 60 150.796 59.904 151.18 59.712C151.586 59.52 152.002 59.2106 152.428 58.784C152.94 58.272 153.399 57.696 153.804 57.056C154.231 56.3946 154.594 55.776 154.892 55.2C155.191 54.624 155.394 54.2186 155.5 53.984C155.671 53.6853 155.852 53.536 156.044 53.536C156.108 53.536 156.14 53.5786 156.14 53.664C156.14 53.7066 156.108 53.8133 156.044 53.984C155.938 54.2186 155.778 54.5813 155.564 55.072C155.351 55.5413 155.095 56.064 154.796 56.64C154.498 57.216 154.178 57.7813 153.836 58.336C153.495 58.8906 153.154 59.36 152.812 59.744C152.322 60.2773 151.767 60.672 151.148 60.928C150.551 61.2053 149.975 61.344 149.42 61.344ZM141.996 47.04C142.615 46.9333 143.276 46.8586 143.98 46.816C144.684 46.7733 145.378 46.7093 146.06 46.624C147.17 46.4746 148.215 46.1866 149.196 45.76C150.178 45.312 151.042 44.7786 151.788 44.16C152.556 43.5413 153.154 42.8906 153.58 42.208C154.007 41.504 154.22 40.832 154.22 40.192C154.22 38.7413 153.25 37.7386 151.308 37.184C150.924 37.0773 150.423 36.9706 149.804 36.864C149.207 36.7573 148.663 36.6613 148.172 36.576C147.148 38.3253 146.092 40.0426 145.004 41.728C143.938 43.4133 142.935 45.184 141.996 47.04Z" fill="#A6992A"/>
<path d="M156.566 60C156.331 60 156.043 59.9466 155.702 59.84C155.382 59.7333 155.094 59.5413 154.838 59.264C154.603 58.9653 154.486 58.528 154.486 57.952C154.486 57.3973 154.614 56.864 154.87 56.352C155.147 55.8186 155.403 55.3066 155.638 54.816C155.574 54.816 155.499 54.7946 155.414 54.752C155.35 54.7093 155.318 54.6453 155.318 54.56C155.318 54.4746 155.339 54.3893 155.382 54.304C155.467 54.1333 155.563 53.952 155.67 53.76C155.777 53.568 155.873 53.3653 155.958 53.152C156.278 52.4906 156.598 51.8613 156.918 51.264C157.238 50.6453 157.515 50.1013 157.75 49.632C157.985 49.1626 158.39 48.928 158.966 48.928H160.95C160.587 49.2053 160.257 49.5146 159.958 49.856C159.681 50.176 159.329 50.7733 158.902 51.648C158.902 51.648 158.827 51.7973 158.678 52.096C158.529 52.3946 158.337 52.7786 158.102 53.248C157.889 53.696 157.665 54.1546 157.43 54.624C157.217 55.0933 157.035 55.488 156.886 55.808C156.609 56.4053 156.427 56.8853 156.342 57.248C156.257 57.5893 156.214 57.9093 156.214 58.208C156.214 58.912 156.449 59.264 156.918 59.264C157.43 59.264 158.049 58.848 158.774 58.016C159.371 57.312 159.958 56.4693 160.534 55.488C161.11 54.5066 161.654 53.4933 162.166 52.448C162.699 51.4026 163.169 50.464 163.574 49.632C163.809 49.1626 164.225 48.928 164.822 48.928H166.582C166.262 49.184 165.995 49.4293 165.782 49.664C165.569 49.8773 165.355 50.176 165.142 50.56C164.95 50.9226 164.683 51.4453 164.342 52.128C164.065 52.704 163.766 53.3226 163.446 53.984C163.147 54.624 162.881 55.232 162.646 55.808C162.411 56.384 162.262 56.8533 162.198 57.216C162.177 57.4293 162.155 57.5893 162.134 57.696C162.113 57.8026 162.102 57.92 162.102 58.048C162.102 58.4533 162.166 58.7413 162.294 58.912C162.443 59.0826 162.614 59.168 162.806 59.168C163.318 59.168 163.83 58.88 164.342 58.304C164.875 57.728 165.377 57.024 165.846 56.192C166.337 55.36 166.753 54.5706 167.094 53.824C167.222 53.5893 167.339 53.472 167.446 53.472C167.574 53.472 167.638 53.5466 167.638 53.696C167.638 53.8026 167.595 53.9306 167.51 54.08C167.275 54.592 166.987 55.1786 166.646 55.84C166.305 56.5013 165.921 57.152 165.494 57.792C165.067 58.432 164.598 58.9653 164.086 59.392C163.574 59.7973 163.019 60 162.422 60C161.889 60 161.451 59.808 161.11 59.424C160.769 59.0186 160.598 58.4533 160.598 57.728C160.598 57.152 160.705 56.5333 160.918 55.872C160.555 56.512 160.139 57.152 159.67 57.792C159.201 58.432 158.699 58.9653 158.166 59.392C157.633 59.7973 157.099 60 156.566 60Z" fill="#A6992A"/>
<path d="M170.626 47.008C170.306 47.008 170.039 46.9013 169.826 46.688C169.634 46.4533 169.538 46.176 169.538 45.856C169.538 45.4506 169.698 45.0986 170.018 44.8C170.338 44.5013 170.69 44.352 171.074 44.352C171.415 44.352 171.693 44.4586 171.906 44.672C172.119 44.8853 172.226 45.1413 172.226 45.44C172.226 45.8453 172.066 46.208 171.746 46.528C171.426 46.848 171.053 47.008 170.626 47.008ZM168.034 60C167.245 60 166.69 59.776 166.37 59.328C166.05 58.8586 165.89 58.3253 165.89 57.728C165.89 57.408 165.922 57.088 165.986 56.768C166.071 56.4266 166.167 56.1173 166.274 55.84L168.418 50.368C168.482 50.1973 168.514 50.048 168.514 49.92C168.514 49.7066 168.461 49.5253 168.354 49.376C168.247 49.2053 168.173 49.088 168.13 49.024L169.89 48.96C170.21 48.9386 170.434 48.9813 170.562 49.088C170.711 49.1733 170.786 49.28 170.786 49.408C170.786 49.536 170.711 49.7706 170.562 50.112L167.906 56.352C167.906 56.352 167.842 56.4906 167.714 56.768C167.607 57.024 167.543 57.1946 167.522 57.28C167.458 57.6 167.415 57.8026 167.394 57.888C167.373 57.9733 167.362 58.0266 167.362 58.048C167.362 58.0693 167.362 58.1546 167.362 58.304C167.362 58.5813 167.426 58.816 167.554 59.008C167.703 59.2 167.949 59.296 168.29 59.296C168.503 59.296 168.749 59.232 169.026 59.104C169.303 58.976 169.506 58.848 169.634 58.72C170.167 58.1653 170.69 57.44 171.202 56.544C171.735 55.6266 172.226 54.72 172.674 53.824C172.759 53.6106 172.866 53.504 172.994 53.504C173.101 53.504 173.154 53.5786 173.154 53.728C173.154 53.8133 173.122 53.9413 173.058 54.112C172.845 54.56 172.578 55.1146 172.258 55.776C171.938 56.4373 171.554 57.0986 171.106 57.76C170.679 58.4 170.21 58.9333 169.698 59.36C169.186 59.7866 168.631 60 168.034 60Z" fill="#A6992A"/>
<path d="M172.091 60.384C171.707 60.384 171.515 60.224 171.515 59.904C171.515 59.6906 171.568 59.5093 171.675 59.36C171.739 59.232 171.963 59.0933 172.347 58.944C172.731 58.7733 173.126 58.6133 173.531 58.464C173.958 58.2933 174.246 58.1653 174.395 58.08C174.779 57.888 175.195 57.5253 175.643 56.992C176.112 56.4373 176.592 55.8186 177.083 55.136C177.574 54.432 178.054 53.7493 178.523 53.088C178.992 52.4266 179.44 51.872 179.867 51.424C179.483 51.3386 179.046 51.2426 178.555 51.136C178.064 51.0293 177.606 50.976 177.179 50.976C176.667 50.976 176.219 51.04 175.835 51.168C175.472 51.2746 175.11 51.5093 174.747 51.872C174.384 52.2133 174 52.7253 173.595 53.408C173.19 54.0906 172.699 54.9973 172.123 56.128C172.016 56.2986 171.888 56.384 171.739 56.384C171.632 56.384 171.579 56.32 171.579 56.192C171.579 56.1066 171.611 56 171.675 55.872C171.782 55.68 171.963 55.3386 172.219 54.848C172.475 54.336 172.731 53.824 172.987 53.312C173.243 52.7786 173.435 52.3946 173.563 52.16C174.096 51.2 174.608 50.496 175.099 50.048C175.611 49.6 176.102 49.312 176.571 49.184C177.062 49.056 177.52 48.992 177.947 48.992C178.31 48.992 178.651 49.0666 178.971 49.216C179.312 49.3653 179.643 49.5253 179.963 49.696C180.283 49.8453 180.603 49.92 180.923 49.92C181.328 49.92 181.627 49.8133 181.819 49.6C182.011 49.3866 182.182 49.28 182.331 49.28C182.48 49.28 182.608 49.344 182.715 49.472C182.822 49.6 182.875 49.76 182.875 49.952C182.875 50.2293 182.779 50.4106 182.587 50.496C182.416 50.5813 182.246 50.6773 182.075 50.784C181.499 51.104 180.944 51.584 180.411 52.224C179.899 52.8426 179.387 53.5253 178.875 54.272C178.384 55.0186 177.894 55.744 177.403 56.448C176.912 57.1306 176.422 57.696 175.931 58.144C176.358 58.272 176.88 58.4106 177.499 58.56C178.118 58.7093 178.683 58.784 179.195 58.784C179.323 58.784 179.43 58.784 179.515 58.784C179.622 58.7626 179.728 58.7413 179.835 58.72C180.326 58.592 180.784 58.304 181.211 57.856C181.638 57.3866 182.032 56.8533 182.395 56.256C182.758 55.6586 183.078 55.0613 183.355 54.464C183.654 53.8666 183.899 53.376 184.091 52.992C184.155 52.864 184.251 52.8 184.379 52.8C184.507 52.8 184.571 52.864 184.571 52.992C184.571 53.0986 184.55 53.1946 184.507 53.28C184.016 54.4533 183.472 55.584 182.875 56.672C182.278 57.7386 181.627 58.6026 180.923 59.264C180.24 59.9253 179.494 60.2453 178.683 60.224C177.766 60.1813 176.955 60.0853 176.251 59.936C175.547 59.7866 174.95 59.712 174.459 59.712C174.054 59.712 173.659 59.8186 173.275 60.032C172.912 60.2666 172.518 60.384 172.091 60.384Z" fill="#A6992A"/>
<path d="M65.7329 83H64.8523C64.8002 82.7467 64.709 82.5241 64.5788 82.3324C64.451 82.1406 64.2947 81.9796 64.1101 81.8494C63.9278 81.7168 63.7254 81.6174 63.5028 81.5511C63.2803 81.4848 63.0483 81.4517 62.8068 81.4517C62.3665 81.4517 61.9676 81.5629 61.6101 81.7855C61.255 82.008 60.9721 82.3359 60.7614 82.7691C60.553 83.2024 60.4489 83.7339 60.4489 84.3636C60.4489 84.9933 60.553 85.5248 60.7614 85.9581C60.9721 86.3913 61.255 86.7192 61.6101 86.9417C61.9676 87.1643 62.3665 87.2755 62.8068 87.2755C63.0483 87.2755 63.2803 87.2424 63.5028 87.1761C63.7254 87.1098 63.9278 87.0116 64.1101 86.8814C64.2947 86.7488 64.451 86.5866 64.5788 86.3949C64.709 86.2007 64.8002 85.9782 64.8523 85.7272H65.7329C65.6667 86.0989 65.5459 86.4316 65.3707 86.7251C65.1955 87.0187 64.9777 87.2684 64.7173 87.4744C64.4569 87.678 64.1645 87.8331 63.8402 87.9396C63.5182 88.0461 63.1738 88.0994 62.8068 88.0994C62.1865 88.0994 61.6349 87.9479 61.152 87.6449C60.669 87.3418 60.2891 86.911 60.0121 86.3522C59.7351 85.7935 59.5966 85.1307 59.5966 84.3636C59.5966 83.5966 59.7351 82.9337 60.0121 82.375C60.2891 81.8163 60.669 81.3854 61.152 81.0824C61.6349 80.7793 62.1865 80.6278 62.8068 80.6278C63.1738 80.6278 63.5182 80.6811 63.8402 80.7876C64.1645 80.8941 64.4569 81.0504 64.7173 81.2564C64.9777 81.46 65.1955 81.7085 65.3707 82.0021C65.5459 82.2933 65.6667 82.6259 65.7329 83Z" fill="#A6992A"/>
<path d="M67.1561 88V80.7272H69.6134C70.1816 80.7272 70.648 80.8243 71.0126 81.0184C71.3772 81.2102 71.6471 81.4742 71.8223 81.8103C71.9974 82.1465 72.085 82.5289 72.085 82.9574C72.085 83.3859 71.9974 83.7658 71.8223 84.0973C71.6471 84.4287 71.3784 84.6891 71.0161 84.8785C70.6539 85.0655 70.1911 85.1591 69.6277 85.1591H67.639V84.3636H69.5992C69.9875 84.3636 70.3 84.3068 70.5367 84.1932C70.7759 84.0795 70.9487 83.9185 71.0552 83.7102C71.1641 83.4995 71.2186 83.2486 71.2186 82.9574C71.2186 82.6662 71.1641 82.4117 71.0552 82.1939C70.9463 81.9761 70.7723 81.808 70.5332 81.6896C70.2941 81.5689 69.978 81.5085 69.585 81.5085H68.0367V88H67.1561ZM70.5794 84.7329L72.3691 88H71.3464L69.585 84.7329H70.5794Z" fill="#A6992A"/>
<path d="M73.5525 88V80.7272H77.9417V81.5085H74.4332V83.9659H77.7145V84.7471H74.4332V87.2187H77.9986V88H73.5525Z" fill="#A6992A"/>
<path d="M85.3814 83H84.5007C84.4486 82.7467 84.3575 82.5241 84.2273 82.3324C84.0994 82.1406 83.9432 81.9796 83.7585 81.8494C83.5762 81.7168 83.3738 81.6174 83.1513 81.5511C82.9287 81.4848 82.6967 81.4517 82.4552 81.4517C82.0149 81.4517 81.616 81.5629 81.2585 81.7855C80.9034 82.008 80.6205 82.3359 80.4098 82.7691C80.2015 83.2024 80.0973 83.7339 80.0973 84.3636C80.0973 84.9933 80.2015 85.5248 80.4098 85.9581C80.6205 86.3913 80.9034 86.7192 81.2585 86.9417C81.616 87.1643 82.0149 87.2755 82.4552 87.2755C82.6967 87.2755 82.9287 87.2424 83.1513 87.1761C83.3738 87.1098 83.5762 87.0116 83.7585 86.8814C83.9432 86.7488 84.0994 86.5866 84.2273 86.3949C84.3575 86.2007 84.4486 85.9782 84.5007 85.7272H85.3814C85.3151 86.0989 85.1944 86.4316 85.0192 86.7251C84.844 87.0187 84.6262 87.2684 84.3658 87.4744C84.1053 87.678 83.813 87.8331 83.4886 87.9396C83.1667 88.0461 82.8222 88.0994 82.4552 88.0994C81.835 88.0994 81.2834 87.9479 80.8004 87.6449C80.3175 87.3418 79.9375 86.911 79.6605 86.3522C79.3835 85.7935 79.245 85.1307 79.245 84.3636C79.245 83.5966 79.3835 82.9337 79.6605 82.375C79.9375 81.8163 80.3175 81.3854 80.8004 81.0824C81.2834 80.7793 81.835 80.6278 82.4552 80.6278C82.8222 80.6278 83.1667 80.6811 83.4886 80.7876C83.813 80.8941 84.1053 81.0504 84.3658 81.2564C84.6262 81.46 84.844 81.7085 85.0192 82.0021C85.1944 82.2933 85.3151 82.6259 85.3814 83Z" fill="#A6992A"/>
<path d="M87.6852 80.7272V88H86.8045V80.7272H87.6852Z" fill="#A6992A"/>
<path d="M89.9481 87.0696C89.773 87.0696 89.6226 87.0068 89.4971 86.8814C89.3717 86.7559 89.3089 86.6056 89.3089 86.4304C89.3089 86.2552 89.3717 86.1048 89.4971 85.9794C89.6226 85.8539 89.773 85.7912 89.9481 85.7912C90.1233 85.7912 90.2737 85.8539 90.3991 85.9794C90.5246 86.1048 90.5873 86.2552 90.5873 86.4304C90.5873 86.5464 90.5578 86.6529 90.4986 86.75C90.4417 86.847 90.3648 86.9252 90.2677 86.9843C90.173 87.0412 90.0665 87.0696 89.9481 87.0696ZM89.9481 83.3906C89.773 83.3906 89.6226 83.3279 89.4971 83.2024C89.3717 83.0769 89.3089 82.9266 89.3089 82.7514C89.3089 82.5762 89.3717 82.4259 89.4971 82.3004C89.6226 82.1749 89.773 82.1122 89.9481 82.1122C90.1233 82.1122 90.2737 82.1749 90.3991 82.3004C90.5246 82.4259 90.5873 82.5762 90.5873 82.7514C90.5873 82.8674 90.5578 82.9739 90.4986 83.071C90.4417 83.1681 90.3648 83.2462 90.2677 83.3054C90.173 83.3622 90.0665 83.3906 89.9481 83.3906Z" fill="#A6992A"/>
<path d="M94.7191 86.5085V85.7841L97.9151 80.7272H98.4407V81.8494H98.0856L95.6708 85.6704V85.7272H99.9748V86.5085H94.7191ZM98.1424 88V80.7272H98.9805V88H98.1424Z" fill="#A6992A"/>
<path d="M103.678 88.0994C103.143 88.0994 102.687 87.9538 102.311 87.6626C101.934 87.3691 101.646 86.9441 101.448 86.3878C101.249 85.829 101.149 85.1543 101.149 84.3636C101.149 83.5776 101.249 82.9065 101.448 82.3501C101.649 81.7914 101.938 81.3653 102.314 81.0717C102.693 80.7758 103.147 80.6278 103.678 80.6278C104.208 80.6278 104.661 80.7758 105.038 81.0717C105.417 81.3653 105.705 81.7914 105.904 82.3501C106.106 82.9065 106.206 83.5776 106.206 84.3636C106.206 85.1543 106.107 85.829 105.908 86.3878C105.709 86.9441 105.421 87.3691 105.045 87.6626C104.668 87.9538 104.213 88.0994 103.678 88.0994ZM103.678 87.3182C104.208 87.3182 104.62 87.0625 104.914 86.5511C105.207 86.0397 105.354 85.3106 105.354 84.3636C105.354 83.7339 105.286 83.1977 105.151 82.7549C105.019 82.3122 104.827 81.9749 104.576 81.7429C104.328 81.5109 104.028 81.3949 103.678 81.3949C103.152 81.3949 102.741 81.6541 102.445 82.1726C102.15 82.6887 102.002 83.419 102.002 84.3636C102.002 84.9933 102.068 85.5284 102.2 85.9687C102.333 86.4091 102.524 86.7441 102.772 86.9737C103.023 87.2033 103.325 87.3182 103.678 87.3182Z" fill="#A6992A"/>
<path d="M109.871 80.6278C110.169 80.6302 110.467 80.687 110.766 80.7983C111.064 80.9095 111.336 81.0942 111.583 81.3522C111.829 81.6079 112.026 81.9571 112.176 82.3998C112.325 82.8425 112.399 83.3977 112.399 84.0653C112.399 84.7116 112.338 85.2857 112.215 85.7876C112.094 86.2871 111.919 86.7085 111.689 87.0518C111.462 87.3951 111.185 87.6555 110.858 87.8331C110.534 88.0106 110.167 88.0994 109.757 88.0994C109.35 88.0994 108.987 88.0189 108.667 87.8579C108.35 87.6946 108.089 87.4685 107.886 87.1797C107.685 86.8885 107.556 86.5511 107.499 86.1676H108.365C108.443 86.5014 108.598 86.7772 108.83 86.995C109.065 87.2104 109.374 87.3182 109.757 87.3182C110.318 87.3182 110.761 87.0731 111.085 86.5831C111.412 86.093 111.575 85.4005 111.575 84.5057H111.519C111.386 84.7045 111.229 84.8762 111.046 85.0206C110.864 85.165 110.662 85.2762 110.439 85.3544C110.217 85.4325 109.98 85.4716 109.729 85.4716C109.312 85.4716 108.93 85.3686 108.582 85.1626C108.236 84.9543 107.959 84.669 107.751 84.3068C107.545 83.9422 107.442 83.5255 107.442 83.0568C107.442 82.6117 107.541 82.2045 107.74 81.8352C107.941 81.4635 108.223 81.1676 108.585 80.9474C108.95 80.7272 109.378 80.6207 109.871 80.6278ZM109.871 81.4091C109.573 81.4091 109.304 81.4836 109.065 81.6328C108.828 81.7796 108.64 81.9784 108.5 82.2294C108.363 82.478 108.294 82.7538 108.294 83.0568C108.294 83.3598 108.36 83.6356 108.493 83.8842C108.628 84.1304 108.811 84.3269 109.043 84.4737C109.278 84.6181 109.544 84.6903 109.842 84.6903C110.067 84.6903 110.277 84.6465 110.471 84.5589C110.665 84.469 110.834 84.347 110.979 84.1932C111.126 84.0369 111.24 83.8605 111.323 83.664C111.406 83.4652 111.448 83.258 111.448 83.0426C111.448 82.7585 111.379 82.4922 111.242 82.2436C111.107 81.995 110.92 81.7938 110.681 81.6399C110.444 81.486 110.174 81.4091 109.871 81.4091Z" fill="#A6992A"/>
<path d="M116.353 80.7272V88H115.472V81.6505H115.429L113.654 82.8295V81.9346L115.472 80.7272H116.353Z" fill="#A6992A"/>
<path d="M120.902 88.0994C120.433 88.0994 120.015 88.0189 119.648 87.8579C119.283 87.6969 118.993 87.4732 118.778 87.1868C118.565 86.8979 118.449 86.5629 118.43 86.1818H119.325C119.344 86.4162 119.424 86.6186 119.566 86.789C119.708 86.9571 119.894 87.0873 120.124 87.1797C120.354 87.272 120.608 87.3182 120.887 87.3182C121.2 87.3182 121.477 87.2637 121.718 87.1548C121.96 87.0459 122.149 86.8944 122.287 86.7003C122.424 86.5061 122.493 86.2812 122.493 86.0255C122.493 85.758 122.426 85.5225 122.294 85.3189C122.161 85.1129 121.967 84.9519 121.711 84.8359C121.456 84.7199 121.143 84.6619 120.774 84.6619H120.191V83.8807H120.774C121.063 83.8807 121.316 83.8286 121.534 83.7244C121.754 83.6202 121.926 83.4735 122.049 83.2841C122.174 83.0947 122.237 82.8721 122.237 82.6164C122.237 82.3702 122.182 82.156 122.073 81.9737C121.965 81.7914 121.811 81.6494 121.612 81.5476C121.415 81.4458 121.183 81.3949 120.916 81.3949C120.665 81.3949 120.428 81.441 120.206 81.5334C119.985 81.6233 119.806 81.7547 119.666 81.9275C119.526 82.098 119.45 82.3039 119.439 82.5454H118.586C118.6 82.1643 118.715 81.8305 118.931 81.544C119.146 81.2552 119.428 81.0303 119.776 80.8693C120.126 80.7083 120.511 80.6278 120.93 80.6278C121.38 80.6278 121.766 80.719 122.088 80.9012C122.41 81.0812 122.657 81.3191 122.83 81.615C123.003 81.911 123.089 82.2306 123.089 82.5738C123.089 82.9834 122.981 83.3326 122.766 83.6214C122.553 83.9102 122.263 84.1103 121.896 84.2216V84.2784C122.355 84.3541 122.714 84.5495 122.972 84.8643C123.23 85.1768 123.359 85.5639 123.359 86.0255C123.359 86.4209 123.251 86.776 123.036 87.0909C122.823 87.4034 122.532 87.6496 122.162 87.8295C121.793 88.0094 121.373 88.0994 120.902 88.0994Z" fill="#A6992A"/>
<path d="M124.939 88V80.7272H129.3V81.5085H125.82V83.9659H128.973V84.7471H125.82V88H124.939Z" fill="#A6992A"/>
<path d="M50.7329 67H49.8523C49.8002 66.7467 49.709 66.5241 49.5788 66.3324C49.451 66.1406 49.2947 65.9796 49.1101 65.8494C48.9278 65.7168 48.7254 65.6174 48.5028 65.5511C48.2803 65.4848 48.0483 65.4517 47.8068 65.4517C47.3665 65.4517 46.9676 65.5629 46.6101 65.7855C46.255 66.008 45.9721 66.3359 45.7614 66.7691C45.553 67.2024 45.4489 67.7339 45.4489 68.3636C45.4489 68.9933 45.553 69.5248 45.7614 69.9581C45.9721 70.3913 46.255 70.7192 46.6101 70.9417C46.9676 71.1643 47.3665 71.2755 47.8068 71.2755C48.0483 71.2755 48.2803 71.2424 48.5028 71.1761C48.7254 71.1098 48.9278 71.0116 49.1101 70.8814C49.2947 70.7488 49.451 70.5866 49.5788 70.3949C49.709 70.2007 49.8002 69.9782 49.8523 69.7272H50.7329C50.6667 70.0989 50.5459 70.4316 50.3707 70.7251C50.1955 71.0187 49.9777 71.2684 49.7173 71.4744C49.4569 71.678 49.1645 71.8331 48.8402 71.9396C48.5182 72.0461 48.1738 72.0994 47.8068 72.0994C47.1865 72.0994 46.6349 71.9479 46.152 71.6449C45.669 71.3418 45.2891 70.911 45.0121 70.3522C44.7351 69.7935 44.5966 69.1307 44.5966 68.3636C44.5966 67.5966 44.7351 66.9337 45.0121 66.375C45.2891 65.8163 45.669 65.3854 46.152 65.0824C46.6349 64.7793 47.1865 64.6278 47.8068 64.6278C48.1738 64.6278 48.5182 64.6811 48.8402 64.7876C49.1645 64.8941 49.4569 65.0504 49.7173 65.2564C49.9777 65.46 50.1955 65.7085 50.3707 66.0021C50.5459 66.2933 50.6667 66.6259 50.7329 67Z" fill="#A6992A"/>
<path d="M54.2583 72.1136C53.7659 72.1136 53.3339 71.9964 52.9622 71.762C52.5929 71.5277 52.304 71.1998 52.0957 70.7784C51.8897 70.357 51.7867 69.8646 51.7867 69.3011C51.7867 68.7329 51.8897 68.237 52.0957 67.8132C52.304 67.3894 52.5929 67.0603 52.9622 66.826C53.3339 66.5916 53.7659 66.4744 54.2583 66.4744C54.7508 66.4744 55.1816 66.5916 55.5509 66.826C55.9226 67.0603 56.2115 67.3894 56.4174 67.8132C56.6258 68.237 56.7299 68.7329 56.7299 69.3011C56.7299 69.8646 56.6258 70.357 56.4174 70.7784C56.2115 71.1998 55.9226 71.5277 55.5509 71.762C55.1816 71.9964 54.7508 72.1136 54.2583 72.1136ZM54.2583 71.3608C54.6324 71.3608 54.9402 71.2649 55.1816 71.0731C55.4231 70.8814 55.6018 70.6292 55.7178 70.3167C55.8339 70.0042 55.8919 69.6657 55.8919 69.3011C55.8919 68.9365 55.8339 68.5968 55.7178 68.2819C55.6018 67.9671 55.4231 67.7126 55.1816 67.5184C54.9402 67.3243 54.6324 67.2272 54.2583 67.2272C53.8843 67.2272 53.5765 67.3243 53.335 67.5184C53.0936 67.7126 52.9148 67.9671 52.7988 68.2819C52.6828 68.5968 52.6248 68.9365 52.6248 69.3011C52.6248 69.6657 52.6828 70.0042 52.7988 70.3167C52.9148 70.6292 53.0936 70.8814 53.335 71.0731C53.5765 71.2649 53.8843 71.3608 54.2583 71.3608Z" fill="#A6992A"/>
<path d="M58.0092 72V66.5454H58.8189V67.3693H58.8757C58.9751 67.0994 59.1551 66.8804 59.4155 66.7123C59.6759 66.5442 59.9694 66.4602 60.2962 66.4602C60.3577 66.4602 60.4346 66.4614 60.527 66.4637C60.6193 66.4661 60.6891 66.4697 60.7365 66.4744V67.3267C60.7081 67.3196 60.643 67.3089 60.5412 67.2947C60.4418 67.2781 60.3364 67.2699 60.2251 67.2699C59.96 67.2699 59.7232 67.3255 59.5149 67.4368C59.3089 67.5457 59.1456 67.6972 59.0248 67.8913C58.9065 68.0831 58.8473 68.3021 58.8473 68.5483V72H58.0092Z" fill="#A6992A"/>
<path d="M61.7299 72V66.5454H62.5396V67.3693H62.5964C62.6958 67.0994 62.8758 66.8804 63.1362 66.7123C63.3966 66.5442 63.6902 66.4602 64.0169 66.4602C64.0784 66.4602 64.1554 66.4614 64.2477 66.4637C64.34 66.4661 64.4099 66.4697 64.4572 66.4744V67.3267C64.4288 67.3196 64.3637 67.3089 64.2619 67.2947C64.1625 67.2781 64.0571 67.2699 63.9458 67.2699C63.6807 67.2699 63.4439 67.3255 63.2356 67.4368C63.0296 67.5457 62.8663 67.6972 62.7455 67.8913C62.6272 68.0831 62.568 68.3021 62.568 68.5483V72H61.7299Z" fill="#A6992A"/>
<path d="M67.5715 72.1136C67.046 72.1136 66.5926 71.9976 66.2115 71.7656C65.8327 71.5312 65.5403 71.2045 65.3343 70.7855C65.1307 70.3641 65.0289 69.874 65.0289 69.3153C65.0289 68.7566 65.1307 68.2642 65.3343 67.838C65.5403 67.4095 65.8268 67.0757 66.1937 66.8366C66.563 66.5951 66.9939 66.4744 67.4863 66.4744C67.7704 66.4744 68.0509 66.5218 68.3279 66.6164C68.6049 66.7111 68.8571 66.865 69.0843 67.0781C69.3116 67.2888 69.4927 67.5682 69.6277 67.9162C69.7626 68.2642 69.8301 68.6927 69.8301 69.2017V69.5568H65.6255V68.8324H68.9778C68.9778 68.5246 68.9162 68.25 68.7931 68.0085C68.6724 67.767 68.4996 67.5764 68.2747 67.4368C68.0521 67.2971 67.7893 67.2272 67.4863 67.2272C67.1525 67.2272 66.8637 67.3101 66.6198 67.4758C66.3784 67.6392 66.1925 67.8522 66.0623 68.115C65.9321 68.3778 65.867 68.6595 65.867 68.9602V69.4432C65.867 69.8551 65.938 70.2043 66.0801 70.4907C66.2245 70.7748 66.4245 70.9914 66.6802 71.1406C66.9359 71.2874 67.233 71.3608 67.5715 71.3608C67.7917 71.3608 67.9906 71.33 68.1681 71.2684C68.3481 71.2045 68.5031 71.1098 68.6333 70.9843C68.7635 70.8565 68.8642 70.6979 68.9352 70.5085L69.7448 70.7358C69.6596 71.0104 69.5164 71.2519 69.3152 71.4602C69.1139 71.6662 68.8653 71.8271 68.5694 71.9432C68.2735 72.0568 67.9409 72.1136 67.5715 72.1136Z" fill="#A6992A"/>
<path d="M73.4771 66.5454V67.2557H70.6504V66.5454H73.4771ZM71.4742 65.2386H72.3123V70.4375C72.3123 70.6742 72.3466 70.8518 72.4153 70.9701C72.4863 71.0861 72.5763 71.1643 72.6852 71.2045C72.7964 71.2424 72.9136 71.2613 73.0367 71.2613C73.1291 71.2613 73.2048 71.2566 73.264 71.2471C73.3232 71.2353 73.3705 71.2258 73.4061 71.2187L73.5765 71.9716C73.5197 71.9929 73.4404 72.0142 73.3386 72.0355C73.2368 72.0592 73.1078 72.071 72.9515 72.071C72.7148 72.071 72.4828 72.0201 72.2555 71.9183C72.0306 71.8165 71.8436 71.6614 71.6944 71.4531C71.5476 71.2448 71.4742 70.982 71.4742 70.6647V65.2386Z" fill="#A6992A"/>
<path d="M76.8951 72.1136C76.4026 72.1136 75.9706 71.9964 75.5989 71.762C75.2296 71.5277 74.9407 71.1998 74.7324 70.7784C74.5264 70.357 74.4235 69.8646 74.4235 69.3011C74.4235 68.7329 74.5264 68.237 74.7324 67.8132C74.9407 67.3894 75.2296 67.0603 75.5989 66.826C75.9706 66.5916 76.4026 66.4744 76.8951 66.4744C77.3875 66.4744 77.8183 66.5916 78.1877 66.826C78.5594 67.0603 78.8482 67.3894 79.0541 67.8132C79.2625 68.237 79.3666 68.7329 79.3666 69.3011C79.3666 69.8646 79.2625 70.357 79.0541 70.7784C78.8482 71.1998 78.5594 71.5277 78.1877 71.762C77.8183 71.9964 77.3875 72.1136 76.8951 72.1136ZM76.8951 71.3608C77.2691 71.3608 77.5769 71.2649 77.8184 71.0731C78.0598 70.8814 78.2386 70.6292 78.3546 70.3167C78.4706 70.0042 78.5286 69.6657 78.5286 69.3011C78.5286 68.9365 78.4706 68.5968 78.3546 68.2819C78.2386 67.9671 78.0598 67.7126 77.8184 67.5184C77.5769 67.3243 77.2691 67.2272 76.8951 67.2272C76.521 67.2272 76.2132 67.3243 75.9718 67.5184C75.7303 67.7126 75.5515 67.9671 75.4355 68.2819C75.3195 68.5968 75.2615 68.9365 75.2615 69.3011C75.2615 69.6657 75.3195 70.0042 75.4355 70.3167C75.5515 70.6292 75.7303 70.8814 75.9718 71.0731C76.2132 71.2649 76.521 71.3608 76.8951 71.3608Z" fill="#A6992A"/>
<path d="M80.6459 72V66.5454H81.4556V67.3693H81.5124C81.6119 67.0994 81.7918 66.8804 82.0522 66.7123C82.3126 66.5442 82.6062 66.4602 82.9329 66.4602C82.9944 66.4602 83.0714 66.4614 83.1637 66.4637C83.256 66.4661 83.3259 66.4697 83.3732 66.4744V67.3267C83.3448 67.3196 83.2797 67.3089 83.1779 67.2947C83.0785 67.2781 82.9731 67.2699 82.8618 67.2699C82.5967 67.2699 82.36 67.3255 82.1516 67.4368C81.9457 67.5457 81.7823 67.6972 81.6616 67.8913C81.5432 68.0831 81.484 68.3021 81.484 68.5483V72H80.6459Z" fill="#A6992A"/>
<path d="M85.9718 72.1278C85.6261 72.1278 85.3124 72.0627 85.0307 71.9325C84.749 71.7999 84.5253 71.6093 84.3595 71.3608C84.1938 71.1098 84.111 70.8068 84.111 70.4517C84.111 70.1392 84.1725 69.8859 84.2956 69.6917C84.4187 69.4952 84.5833 69.3414 84.7892 69.2301C84.9952 69.1188 85.2225 69.036 85.471 68.9815C85.722 68.9247 85.9741 68.8797 86.2274 68.8466C86.5589 68.8039 86.8276 68.772 87.0335 68.7507C87.2419 68.727 87.3934 68.6879 87.4881 68.6335C87.5852 68.579 87.6337 68.4843 87.6337 68.3494V68.321C87.6337 67.9706 87.5378 67.6984 87.346 67.5042C87.1567 67.3101 86.869 67.213 86.4831 67.213C86.083 67.213 85.7693 67.3006 85.5421 67.4758C85.3148 67.651 85.155 67.838 85.0627 68.0369L84.2672 67.7528C84.4093 67.4214 84.5987 67.1633 84.8354 66.9787C85.0745 66.7916 85.3349 66.6614 85.6166 66.588C85.9007 66.5123 86.1801 66.4744 86.4547 66.4744C86.6299 66.4744 86.8311 66.4957 87.0584 66.5383C87.288 66.5786 87.5094 66.6626 87.7225 66.7905C87.9379 66.9183 88.1166 67.1112 88.2587 67.3693C88.4007 67.6273 88.4718 67.973 88.4718 68.4062V72H87.6337V71.2613H87.5911C87.5343 71.3797 87.4396 71.5064 87.307 71.6413C87.1744 71.7763 86.998 71.8911 86.7779 71.9858C86.5577 72.0805 86.289 72.1278 85.9718 72.1278ZM86.0996 71.375C86.431 71.375 86.7104 71.3099 86.9377 71.1797C87.1673 71.0494 87.3401 70.8814 87.4561 70.6754C87.5745 70.4694 87.6337 70.2528 87.6337 70.0255V69.2585C87.5982 69.3011 87.5201 69.3402 87.3993 69.3757C87.2809 69.4088 87.1436 69.4384 86.9874 69.4645C86.8335 69.4881 86.6832 69.5094 86.5364 69.5284C86.392 69.545 86.2748 69.5592 86.1848 69.571C85.967 69.5994 85.7634 69.6456 85.574 69.7095C85.387 69.771 85.2355 69.8646 85.1195 69.99C85.0058 70.1131 84.949 70.2812 84.949 70.4943C84.949 70.7855 85.0568 71.0057 85.2722 71.1548C85.49 71.3016 85.7658 71.375 86.0996 71.375Z" fill="#A6992A"/>
<path d="M94.8736 72.1136C94.419 72.1136 94.0177 71.9988 93.6697 71.7691C93.3217 71.5371 93.0495 71.2104 92.853 70.789C92.6565 70.3653 92.5582 69.8646 92.5582 69.2869C92.5582 68.714 92.6565 68.2168 92.853 67.7954C93.0495 67.374 93.3229 67.0485 93.6733 66.8189C94.0237 66.5892 94.4285 66.4744 94.8878 66.4744C95.2429 66.4744 95.5234 66.5336 95.7294 66.652C95.9377 66.768 96.0963 66.9005 96.2052 67.0497C96.3165 67.1965 96.4029 67.3172 96.4645 67.4119H96.5355V64.7272H97.3736V72H96.5639V71.1619H96.4645C96.4029 71.2613 96.3153 71.3868 96.2017 71.5383C96.0881 71.6875 95.9259 71.8212 95.7152 71.9396C95.5045 72.0556 95.2239 72.1136 94.8736 72.1136ZM94.9872 71.3608C95.3234 71.3608 95.6075 71.2732 95.8395 71.098C96.0715 70.9204 96.2479 70.6754 96.3686 70.3629C96.4893 70.048 96.5497 69.6846 96.5497 69.2727C96.5497 68.8655 96.4905 68.5092 96.3721 68.2038C96.2538 67.896 96.0786 67.6569 95.8466 67.4865C95.6146 67.3137 95.3281 67.2272 94.9872 67.2272C94.6321 67.2272 94.3362 67.3184 94.0994 67.5007C93.865 67.6806 93.6887 67.9256 93.5703 68.2358C93.4543 68.5435 93.3963 68.8892 93.3963 69.2727C93.3963 69.661 93.4555 70.0137 93.5739 70.3309C93.6946 70.6458 93.8721 70.8968 94.1065 71.0838C94.3433 71.2684 94.6368 71.3608 94.9872 71.3608Z" fill="#A6992A"/>
<path d="M101.312 72.1136C100.786 72.1136 100.333 71.9976 99.9517 71.7656C99.5729 71.5312 99.2805 71.2045 99.0746 70.7855C98.871 70.3641 98.7692 69.874 98.7692 69.3153C98.7692 68.7566 98.871 68.2642 99.0746 67.838C99.2805 67.4095 99.567 67.0757 99.9339 66.8366C100.303 66.5951 100.734 66.4744 101.227 66.4744C101.511 66.4744 101.791 66.5218 102.068 66.6164C102.345 66.7111 102.597 66.865 102.825 67.0781C103.052 67.2888 103.233 67.5682 103.368 67.9162C103.503 68.2642 103.57 68.6927 103.57 69.2017V69.5568H99.3658V68.8324H102.718C102.718 68.5246 102.656 68.25 102.533 68.0085C102.413 67.767 102.24 67.5764 102.015 67.4368C101.792 67.2971 101.53 67.2272 101.227 67.2272C100.893 67.2272 100.604 67.3101 100.36 67.4758C100.119 67.6392 99.9328 67.8522 99.8025 68.115C99.6723 68.3778 99.6072 68.6595 99.6072 68.9602V69.4432C99.6072 69.8551 99.6783 70.2043 99.8203 70.4907C99.9647 70.7748 100.165 70.9914 100.42 71.1406C100.676 71.2874 100.973 71.3608 101.312 71.3608C101.532 71.3608 101.731 71.33 101.908 71.2684C102.088 71.2045 102.243 71.1098 102.374 70.9843C102.504 70.8565 102.604 70.6979 102.675 70.5085L103.485 70.7358C103.4 71.0104 103.257 71.2519 103.055 71.4602C102.854 71.6662 102.606 71.8271 102.31 71.9432C102.014 72.0568 101.681 72.1136 101.312 72.1136Z" fill="#A6992A"/>
<path d="M108.652 64.7272V72H107.771V64.7272H108.652Z" fill="#A6992A"/>
<path d="M110.304 72V66.5454H111.114V67.3977H111.185C111.298 67.1065 111.482 66.8804 111.735 66.7194C111.989 66.5561 112.293 66.4744 112.648 66.4744C113.008 66.4744 113.307 66.5561 113.546 66.7194C113.788 66.8804 113.976 67.1065 114.111 67.3977H114.168C114.307 67.116 114.517 66.8923 114.796 66.7265C115.076 66.5584 115.411 66.4744 115.801 66.4744C116.289 66.4744 116.688 66.6271 116.998 66.9325C117.308 67.2355 117.463 67.7078 117.463 68.3494V72H116.625V68.3494C116.625 67.9469 116.515 67.6593 116.295 67.4865C116.075 67.3137 115.816 67.2272 115.517 67.2272C115.134 67.2272 114.837 67.3432 114.626 67.5753C114.415 67.8049 114.31 68.0961 114.31 68.4488V72H113.458V68.2642C113.458 67.954 113.357 67.7043 113.156 67.5149C112.954 67.3231 112.695 67.2272 112.378 67.2272C112.16 67.2272 111.957 67.2852 111.767 67.4012C111.58 67.5173 111.429 67.6782 111.313 67.8842C111.199 68.0878 111.142 68.3234 111.142 68.5909V72H110.304Z" fill="#A6992A"/>
<path d="M121.211 72.1136C120.719 72.1136 120.287 71.9964 119.915 71.762C119.546 71.5277 119.257 71.1998 119.049 70.7784C118.843 70.357 118.74 69.8646 118.74 69.3011C118.74 68.7329 118.843 68.237 119.049 67.8132C119.257 67.3894 119.546 67.0603 119.915 66.826C120.287 66.5916 120.719 66.4744 121.211 66.4744C121.704 66.4744 122.135 66.5916 122.504 66.826C122.876 67.0603 123.165 67.3894 123.371 67.8132C123.579 68.237 123.683 68.7329 123.683 69.3011C123.683 69.8646 123.579 70.357 123.371 70.7784C123.165 71.1998 122.876 71.5277 122.504 71.762C122.135 71.9964 121.704 72.1136 121.211 72.1136ZM121.211 71.3608C121.586 71.3608 121.893 71.2649 122.135 71.0731C122.376 70.8814 122.555 70.6292 122.671 70.3167C122.787 70.0042 122.845 69.6657 122.845 69.3011C122.845 68.9365 122.787 68.5968 122.671 68.2819C122.555 67.9671 122.376 67.7126 122.135 67.5184C121.893 67.3243 121.586 67.2272 121.211 67.2272C120.837 67.2272 120.53 67.3243 120.288 67.5184C120.047 67.7126 119.868 67.9671 119.752 68.2819C119.636 68.5968 119.578 68.9365 119.578 69.3011C119.578 69.6657 119.636 70.0042 119.752 70.3167C119.868 70.6292 120.047 70.8814 120.288 71.0731C120.53 71.2649 120.837 71.3608 121.211 71.3608ZM120.828 65.8068L121.694 64.1591H122.675L121.567 65.8068H120.828Z" fill="#A6992A"/>
<path d="M129.227 66.5454L127.21 72H126.358L124.341 66.5454H125.25L126.756 70.892H126.812L128.318 66.5454H129.227Z" fill="#A6992A"/>
<path d="M132.425 72.1136C131.899 72.1136 131.446 71.9976 131.065 71.7656C130.686 71.5312 130.394 71.2045 130.188 70.7855C129.984 70.3641 129.882 69.874 129.882 69.3153C129.882 68.7566 129.984 68.2642 130.188 67.838C130.394 67.4095 130.68 67.0757 131.047 66.8366C131.417 66.5951 131.847 66.4744 132.34 66.4744C132.624 66.4744 132.904 66.5218 133.181 66.6164C133.458 66.7111 133.711 66.865 133.938 67.0781C134.165 67.2888 134.346 67.5682 134.481 67.9162C134.616 68.2642 134.684 68.6927 134.684 69.2017V69.5568H130.479V68.8324H133.831C133.831 68.5246 133.77 68.25 133.647 68.0085C133.526 67.767 133.353 67.5764 133.128 67.4368C132.906 67.2971 132.643 67.2272 132.34 67.2272C132.006 67.2272 131.717 67.3101 131.473 67.4758C131.232 67.6392 131.046 67.8522 130.916 68.115C130.786 68.3778 130.721 68.6595 130.721 68.9602V69.4432C130.721 69.8551 130.792 70.2043 130.934 70.4907C131.078 70.7748 131.278 70.9914 131.534 71.1406C131.789 71.2874 132.087 71.3608 132.425 71.3608C132.645 71.3608 132.844 71.33 133.022 71.2684C133.202 71.2045 133.357 71.1098 133.487 70.9843C133.617 70.8565 133.718 70.6979 133.789 70.5085L134.598 70.7358C134.513 71.0104 134.37 71.2519 134.169 71.4602C133.967 71.6662 133.719 71.8271 133.423 71.9432C133.127 72.0568 132.794 72.1136 132.425 72.1136Z" fill="#A6992A"/>
<path d="M135.958 72V66.5454H136.797V72H135.958ZM136.385 65.6363C136.221 65.6363 136.08 65.5807 135.962 65.4694C135.846 65.3582 135.788 65.2244 135.788 65.0682C135.788 64.9119 135.846 64.7781 135.962 64.6669C136.08 64.5556 136.221 64.5 136.385 64.5C136.548 64.5 136.688 64.5556 136.804 64.6669C136.922 64.7781 136.981 64.9119 136.981 65.0682C136.981 65.2244 136.922 65.3582 136.804 65.4694C136.688 65.5807 136.548 65.6363 136.385 65.6363Z" fill="#A6992A"/>
<path d="M142.195 67.767L141.442 67.9801C141.395 67.8546 141.325 67.7327 141.233 67.6143C141.143 67.4936 141.02 67.3941 140.863 67.316C140.707 67.2379 140.507 67.1988 140.263 67.1988C139.929 67.1988 139.651 67.2758 139.429 67.4297C139.209 67.5812 139.099 67.7741 139.099 68.0085C139.099 68.2168 139.174 68.3814 139.326 68.5021C139.477 68.6228 139.714 68.7235 140.036 68.8039L140.846 69.0028C141.333 69.1212 141.697 69.3023 141.936 69.5461C142.175 69.7876 142.295 70.0989 142.295 70.4801C142.295 70.7926 142.205 71.0719 142.025 71.3182C141.847 71.5644 141.599 71.7585 141.279 71.9005C140.959 72.0426 140.588 72.1136 140.164 72.1136C139.608 72.1136 139.147 71.9929 138.782 71.7514C138.418 71.5099 138.187 71.1572 138.09 70.6932L138.885 70.4943C138.961 70.7879 139.104 71.008 139.315 71.1548C139.528 71.3016 139.806 71.375 140.15 71.375C140.54 71.375 140.85 71.2921 141.08 71.1264C141.312 70.9583 141.428 70.7571 141.428 70.5227C141.428 70.3333 141.362 70.1747 141.229 70.0468C141.097 69.9166 140.893 69.8196 140.618 69.7557L139.709 69.5426C139.21 69.4242 138.843 69.2407 138.608 68.9922C138.376 68.7412 138.26 68.4275 138.26 68.0511C138.26 67.7433 138.347 67.4711 138.52 67.2343C138.695 66.9976 138.933 66.8118 139.233 66.6768C139.537 66.5419 139.88 66.4744 140.263 66.4744C140.803 66.4744 141.227 66.5928 141.535 66.8295C141.845 67.0663 142.065 67.3788 142.195 67.767Z" fill="#A6992A"/>
<path d="M186 37L93.5 1L1 37" stroke="#A6992A" stroke-width="2" stroke-linecap="round" stroke-linejoin="round"/>
</svg>
