<svg width="25" height="24" viewBox="0 0 25 24" fill="none" xmlns="http://www.w3.org/2000/svg">
<mask id="mask0_2_312" style="mask-type:alpha" maskUnits="userSpaceOnUse" x="0" y="0" width="25" height="24">
<rect x="0.76886" width="24" height="24" fill="#D9D9D9"/>
</mask>
<g mask="url(#mask0_2_312)">
<path d="M5.76884 21C5.4855 21 5.24784 20.904 5.05584 20.712C4.8645 20.5207 4.76884 20.2833 4.76884 20V19C3.9355 19 3.22717 18.7083 2.64384 18.125C2.0605 17.5417 1.76884 16.8333 1.76884 16V11C1.76884 10.1667 2.0605 9.45833 2.64384 8.875C3.22717 8.29167 3.9355 8 4.76884 8V6C4.76884 5.16667 5.0605 4.45833 5.64384 3.875C6.22717 3.29167 6.9355 3 7.76884 3H17.7688C18.6022 3 19.3105 3.29167 19.8938 3.875C20.4772 4.45833 20.7688 5.16667 20.7688 6V8C21.6022 8 22.3105 8.29167 22.8938 8.875C23.4772 9.45833 23.7688 10.1667 23.7688 11V16C23.7688 16.8333 23.4772 17.5417 22.8938 18.125C22.3105 18.7083 21.6022 19 20.7688 19V20C20.7688 20.2833 20.6728 20.5207 20.4808 20.712C20.2895 20.904 20.0522 21 19.7688 21C19.4855 21 19.2482 20.904 19.0568 20.712C18.8648 20.5207 18.7688 20.2833 18.7688 20V19H6.76884V20C6.76884 20.2833 6.67317 20.5207 6.48183 20.712C6.28983 20.904 6.05217 21 5.76884 21ZM4.76884 17H20.7688C21.0522 17 21.2895 16.904 21.4808 16.712C21.6728 16.5207 21.7688 16.2833 21.7688 16V11C21.7688 10.7167 21.6728 10.479 21.4808 10.287C21.2895 10.0957 21.0522 10 20.7688 10C20.4855 10 20.2482 10.0957 20.0568 10.287C19.8648 10.479 19.7688 10.7167 19.7688 11V15H5.76884V11C5.76884 10.7167 5.67317 10.479 5.48183 10.287C5.28983 10.0957 5.05217 10 4.76884 10C4.4855 10 4.24817 10.0957 4.05684 10.287C3.86484 10.479 3.76884 10.7167 3.76884 11V16C3.76884 16.2833 3.86484 16.5207 4.05684 16.712C4.24817 16.904 4.4855 17 4.76884 17ZM7.76884 13H17.7688V11C17.7688 10.55 17.8605 10.1417 18.0438 9.775C18.2272 9.40833 18.4688 9.08333 18.7688 8.8V6C18.7688 5.71667 18.6728 5.479 18.4808 5.287C18.2895 5.09567 18.0522 5 17.7688 5H7.76884C7.4855 5 7.24784 5.09567 7.05584 5.287C6.8645 5.479 6.76884 5.71667 6.76884 6V8.8C7.06884 9.08333 7.3105 9.40833 7.49383 9.775C7.67717 10.1417 7.76884 10.55 7.76884 11V13Z" fill="black"/>
</g>
</svg>
