<svg width="25" height="24" viewBox="0 0 25 24" fill="none" xmlns="http://www.w3.org/2000/svg">
<mask id="mask0_2_288" style="mask-type:alpha" maskUnits="userSpaceOnUse" x="0" y="0" width="25" height="24">
<rect x="0.76886" width="24" height="24" fill="#D9D9D9"/>
</mask>
<g mask="url(#mask0_2_288)">
<path d="M2.76884 19V13C2.76884 12.55 2.8605 12.1417 3.04384 11.775C3.22717 11.4083 3.46884 11.0833 3.76884 10.8V8C3.76884 7.16667 4.0605 6.45833 4.64384 5.875C5.22717 5.29167 5.9355 5 6.76884 5H10.7688C11.1522 5 11.5105 5.071 11.8438 5.213C12.1772 5.35433 12.4855 5.55 12.7688 5.8C13.0522 5.55 13.3605 5.35433 13.6938 5.213C14.0272 5.071 14.3855 5 14.7688 5H18.7688C19.6022 5 20.3105 5.29167 20.8938 5.875C21.4772 6.45833 21.7688 7.16667 21.7688 8V10.8C22.0688 11.0833 22.3105 11.4083 22.4938 11.775C22.6772 12.1417 22.7688 12.55 22.7688 13V19H20.7688V17H4.76884V19H2.76884ZM13.7688 10H19.7688V8C19.7688 7.71667 19.6728 7.479 19.4808 7.287C19.2895 7.09567 19.0522 7 18.7688 7H14.7688C14.4855 7 14.2482 7.09567 14.0568 7.287C13.8648 7.479 13.7688 7.71667 13.7688 8V10ZM5.76884 10H11.7688V8C11.7688 7.71667 11.6732 7.479 11.4818 7.287C11.2898 7.09567 11.0522 7 10.7688 7H6.76884C6.4855 7 6.24784 7.09567 6.05584 7.287C5.8645 7.479 5.76884 7.71667 5.76884 8V10ZM4.76884 15H20.7688V13C20.7688 12.7167 20.6728 12.479 20.4808 12.287C20.2895 12.0957 20.0522 12 19.7688 12H5.76884C5.4855 12 5.24784 12.0957 5.05584 12.287C4.8645 12.479 4.76884 12.7167 4.76884 13V15Z" fill="black"/>
</g>
</svg>
