<svg width="52" height="53" viewBox="0 0 52 53" fill="none" xmlns="http://www.w3.org/2000/svg">
<g clip-path="url(#clip0_74_73)">
<mask id="mask0_74_73" style="mask-type:luminance" maskUnits="userSpaceOnUse" x="0" y="0" width="52" height="53">
<path d="M0 0.399292H52V52.5898H0V0.399292Z" fill="white"/>
</mask>
<g mask="url(#mask0_74_73)">
<path d="M51.9999 26.8132C51.9999 12.3142 40.3584 0.558777 25.9999 0.558777C11.6414 0.558777 -0.00012207 12.3142 -0.00012207 26.8132C-0.00012207 39.9174 9.50613 50.7785 21.9374 52.7476V34.4023H15.335V26.8099H21.9374V21.0306C21.9374 14.4506 25.8211 10.8144 31.7589 10.8144C34.6026 10.8144 37.578 11.3296 37.578 11.3296V17.7899H34.2988C31.0683 17.7899 30.0608 19.8131 30.0608 21.8905V26.8132H37.2709L36.1171 34.404H30.0624V52.7492C42.492 50.7785 51.9999 39.9158 51.9999 26.8132Z" fill="#FFFEF2"/>
</g>
</g>
<defs>
<clipPath id="clip0_74_73">
<rect width="52" height="52.1905" fill="white" transform="translate(0 0.399292)"/>
</clipPath>
</defs>
</svg>
