<svg width="52" height="53" viewBox="0 0 52 53" fill="none" xmlns="http://www.w3.org/2000/svg">
<g clip-path="url(#clip0_74_79)">
<mask id="mask0_74_79" style="mask-type:luminance" maskUnits="userSpaceOnUse" x="0" y="0" width="52" height="53">
<path d="M0 0.399292H52V52.5898H0V0.399292Z" fill="white"/>
</mask>
<g mask="url(#mask0_74_79)">
<path d="M26 0.399292C18.9361 0.399292 18.0538 0.431911 15.2815 0.555863C12.5125 0.68634 10.6275 1.12343 8.97 1.76929C7.2344 2.4237 5.66214 3.45067 4.36312 4.7784C3.0391 6.08123 2.0157 7.65952 1.365 9.40215C0.7215 11.0657 0.284375 12.9576 0.156 15.7368C0.026 18.5208 0 19.4064 0 26.4945C0 33.5843 0.0325 34.4699 0.156 37.2523C0.286 40.0298 0.7215 41.9233 1.365 43.5869C2.01759 45.3286 3.04073 46.9065 4.36312 48.2107C5.6618 49.5388 7.23416 50.5658 8.97 51.2198C10.6291 51.864 12.5141 52.3043 15.2815 52.4332C18.0554 52.5637 18.9377 52.5898 26 52.5898C33.0639 52.5898 33.9463 52.5571 36.7185 52.4332C39.4859 52.3027 41.3725 51.8624 43.03 51.2198C44.7649 50.564 46.3369 49.5372 47.6369 48.2107C48.9606 46.9076 49.984 45.3294 50.635 43.5869C51.2769 41.9233 51.7156 40.0298 51.844 37.2523C51.974 34.4683 52 33.5826 52 26.4945C52 19.4048 51.9675 18.5192 51.844 15.7368C51.714 12.9593 51.2752 11.0641 50.635 9.40215C49.9821 7.66061 48.959 6.08277 47.6369 4.7784C46.3392 3.44907 44.7665 2.42186 43.03 1.76929C41.3725 1.12343 39.4859 0.684709 36.7185 0.555863C33.9446 0.425387 33.0623 0.399292 26 0.399292ZM26 5.09643C32.9387 5.09643 33.7675 5.13068 36.5089 5.25137C39.0439 5.37043 40.4186 5.79285 41.3335 6.15329C42.5523 6.62627 43.4135 7.19058 44.3284 8.10228C45.2351 9.01561 45.799 9.88328 46.2686 11.1049C46.6245 12.0231 47.0486 13.4045 47.164 15.9488C47.2875 18.7002 47.3151 19.5271 47.3151 26.4945C47.3151 33.462 47.2826 34.2905 47.1559 37.0419C47.0226 39.5862 46.6001 40.966 46.2426 41.8842C45.7584 43.1074 45.2059 43.9718 44.2959 44.89C43.4554 45.7536 42.4341 46.4188 41.3059 46.8374C40.3959 47.1946 38.9984 47.6202 36.4634 47.736C33.7025 47.86 32.89 47.8877 25.935 47.8877C18.9784 47.8877 18.1659 47.8551 15.4066 47.7279C12.87 47.5942 11.4725 47.1701 10.5625 46.8113C9.32912 46.3253 8.4825 45.7708 7.57412 44.8574C6.7044 44.0196 6.03736 42.9931 5.62412 41.8565C5.26662 40.9431 4.84738 39.5405 4.71413 36.9962C4.61663 34.2562 4.5825 33.4098 4.5825 26.4619C4.5825 19.5124 4.61663 18.6643 4.71413 15.8917C4.84738 13.3474 5.26662 11.9464 5.62412 11.0331C6.07912 9.79358 6.6625 8.94548 7.57412 8.03052C8.4825 7.11881 9.32912 6.53167 10.5625 6.07501C11.4725 5.7162 12.8391 5.29215 15.3741 5.16167C18.1366 5.06382 18.9491 5.0312 25.9025 5.0312L26 5.09643ZM26 13.0946C24.2467 13.0944 22.5105 13.4409 20.8905 14.1142C19.2706 14.7875 17.7987 15.7745 16.5589 17.0189C15.3191 18.2632 14.3357 19.7405 13.6649 21.3664C12.994 22.9922 12.6488 24.7348 12.649 26.4945C12.649 33.899 18.629 39.8944 26 39.8944C33.3775 39.8944 39.351 33.8925 39.351 26.4945C39.351 19.09 33.371 13.0946 26 13.0946ZM26 35.194C24.8618 35.1942 23.7346 34.9694 22.683 34.5322C21.6314 34.0951 20.6759 33.4543 19.8711 32.6464C19.0663 31.8385 18.428 30.8794 17.9926 29.8238C17.5573 28.7683 17.3334 27.6369 17.3339 26.4945C17.3337 25.3522 17.5577 24.2211 17.9931 23.1657C18.4285 22.1104 19.0669 21.1514 19.8716 20.3437C20.6764 19.536 21.6318 18.8953 22.6834 18.4583C23.7349 18.0213 24.8619 17.7964 26 17.7967C27.1381 17.7964 28.2651 18.0213 29.3166 18.4583C30.3682 18.8953 31.3236 19.536 32.1284 20.3437C32.9331 21.1514 33.5715 22.1104 34.0069 23.1657C34.4423 24.2211 34.6663 25.3522 34.6661 26.4945C34.6663 27.6368 34.4423 28.7679 34.0069 29.8233C33.5715 30.8787 32.9331 31.8376 32.1284 32.6453C31.3236 33.453 30.3682 34.0937 29.3166 34.5307C28.2651 34.9678 27.1381 35.1942 26 35.194ZM42.9991 12.5662C42.9991 14.295 41.6 15.6976 39.8791 15.6976C38.1566 15.6976 36.7591 14.2934 36.7591 12.5662C36.7853 11.7532 37.1254 10.9822 37.7077 10.4164C38.29 9.85058 39.0687 9.53422 39.8791 9.53422C40.6896 9.53422 41.4683 9.85058 42.0505 10.4164C42.6328 10.9822 42.973 11.7532 42.9991 12.5662Z" fill="#FFFEF2"/>
</g>
</g>
<defs>
<clipPath id="clip0_74_79">
<rect width="52" height="52.1905" fill="white" transform="translate(0 0.399292)"/>
</clipPath>
</defs>
</svg>
