<svg width="25" height="24" viewBox="0 0 25 24" fill="none" xmlns="http://www.w3.org/2000/svg">
<mask id="mask0_2_306" style="mask-type:alpha" maskUnits="userSpaceOnUse" x="0" y="0" width="25" height="24">
<rect x="0.706024" width="24" height="24" fill="#D9D9D9"/>
</mask>
<g mask="url(#mask0_2_306)">
<path d="M6.70601 22C6.15601 22 5.68534 21.8043 5.29401 21.413C4.90201 21.021 4.70601 20.55 4.70601 20V4C4.70601 3.45 4.90201 2.979 5.29401 2.587C5.68534 2.19567 6.15601 2 6.70601 2H18.706C19.256 2 19.727 2.19567 20.119 2.587C20.5103 2.979 20.706 3.45 20.706 4V20C20.706 20.55 20.5103 21.021 20.119 21.413C19.727 21.8043 19.256 22 18.706 22H6.70601ZM6.70601 20H18.706V4H6.70601V20ZM12.706 19C14.0893 19 15.2687 18.5127 16.244 17.538C17.2187 16.5627 17.706 15.3833 17.706 14C17.706 12.6167 17.2187 11.4373 16.244 10.462C15.2687 9.48733 14.0893 9 12.706 9C11.3227 9 10.1437 9.48733 9.16901 10.462C8.19368 11.4373 7.70601 12.6167 7.70601 14C7.70601 15.3833 8.19368 16.5627 9.16901 17.538C10.1437 18.5127 11.3227 19 12.706 19ZM12.706 17.3C12.2727 17.3 11.852 17.2207 11.444 17.062C11.0353 16.904 10.6727 16.6667 10.356 16.35L15.056 11.65C15.3727 11.9667 15.61 12.3293 15.768 12.738C15.9267 13.146 16.006 13.5667 16.006 14C16.006 14.9167 15.6853 15.6957 15.044 16.337C14.402 16.979 13.6227 17.3 12.706 17.3ZM8.70601 7C8.98934 7 9.22701 6.90433 9.41901 6.713C9.61034 6.521 9.70601 6.28333 9.70601 6C9.70601 5.71667 9.61034 5.479 9.41901 5.287C9.22701 5.09567 8.98934 5 8.70601 5C8.42268 5 8.18501 5.09567 7.99301 5.287C7.80168 5.479 7.70601 5.71667 7.70601 6C7.70601 6.28333 7.80168 6.521 7.99301 6.713C8.18501 6.90433 8.42268 7 8.70601 7ZM11.706 7C11.9893 7 12.227 6.90433 12.419 6.713C12.6103 6.521 12.706 6.28333 12.706 6C12.706 5.71667 12.6103 5.479 12.419 5.287C12.227 5.09567 11.9893 5 11.706 5C11.4227 5 11.1853 5.09567 10.994 5.287C10.802 5.479 10.706 5.71667 10.706 6C10.706 6.28333 10.802 6.521 10.994 6.713C11.1853 6.90433 11.4227 7 11.706 7Z" fill="black"/>
</g>
</svg>
