<svg width="24" height="24" viewBox="0 0 24 24" fill="none" xmlns="http://www.w3.org/2000/svg">
<mask id="mask0_2_294" style="mask-type:alpha" maskUnits="userSpaceOnUse" x="0" y="0" width="24" height="24">
<rect width="24" height="24" fill="#D9D9D9"/>
</mask>
<g mask="url(#mask0_2_294)">
<path d="M4.99998 21V11C4.44998 11 3.97898 10.804 3.58698 10.412C3.19565 10.0207 2.99998 9.55 2.99998 9V3.7C2.99998 3.5 3.06665 3.33333 3.19998 3.2C3.33332 3.06667 3.49998 3 3.69998 3C3.89998 3 4.06665 3.06667 4.19998 3.2C4.33332 3.33333 4.39998 3.5 4.39998 3.7V7H5.29999V3.7C5.29999 3.5 5.36665 3.33333 5.49998 3.2C5.63332 3.06667 5.79999 3 5.99999 3C6.19999 3 6.36665 3.06667 6.49999 3.2C6.63332 3.33333 6.69999 3.5 6.69999 3.7V7H7.59999V3.7C7.59999 3.5 7.66665 3.33333 7.79999 3.2C7.93332 3.06667 8.09999 3 8.29999 3C8.49999 3 8.66665 3.06667 8.79999 3.2C8.93332 3.33333 8.99999 3.5 8.99999 3.7V9C8.99999 9.55 8.80399 10.0207 8.41198 10.412C8.02065 10.804 7.54999 11 6.99999 11V21H4.99998ZM12 21V10.9C11.3 10.5667 10.7917 10.0457 10.475 9.337C10.1583 8.629 9.99999 7.88333 9.99999 7.1C9.99999 6.05 10.2627 5.104 10.788 4.262C11.3127 3.42067 12.05 3 13 3C13.95 3 14.6877 3.42067 15.213 4.262C15.7377 5.104 16 6.05 16 7.1C16 7.88333 15.8417 8.629 15.525 9.337C15.2083 10.0457 14.7 10.5667 14 10.9V21H12ZM17 21V3C18.1 3 19.0417 3.39167 19.825 4.175C20.6083 4.95833 21 5.9 21 7V13H19V21H17Z" fill="black"/>
</g>
</svg>
