<svg width="60" height="60" viewBox="0 0 60 60" fill="none" xmlns="http://www.w3.org/2000/svg">
<g clip-path="url(#clip0_74_85)" filter="url(#filter0_d_74_85)">
<path d="M56.6642 25.8231C56.6642 39.8634 45.0897 51.2453 30.8086 51.2453C26.2767 51.2453 22.0195 50.0966 18.3136 48.085L4 52.5898L8.66588 38.9461C6.31319 35.1169 4.95825 30.6206 4.95825 25.8214C4.95997 11.7812 16.5311 0.399292 30.8121 0.399292C45.0914 0.402696 56.6642 11.7829 56.6642 25.8231ZM30.8069 4.45309C18.8219 4.45309 9.07288 14.0413 9.07288 25.8283C9.07288 30.5049 10.6116 34.8344 13.2133 38.3572L10.5 46.2929L18.8494 43.6636C22.284 45.8964 26.3935 47.1966 30.8069 47.1966C42.7919 47.1966 52.5444 37.6101 52.5444 25.8231C52.5478 14.0413 42.7936 4.45309 30.8069 4.45309ZM43.8652 31.6792C43.7038 31.4222 43.2813 31.2656 42.6494 30.9525C42.0191 30.6394 38.8988 29.1332 38.3201 28.929C37.7362 28.7197 37.3138 28.6142 36.8913 29.2387C36.474 29.8633 35.2582 31.2656 34.8855 31.6843C34.5163 32.1013 34.1471 32.154 33.5134 31.846C32.8797 31.5294 30.8361 30.8759 28.4147 28.7537C26.5309 27.0995 25.2584 25.0624 24.8909 24.4378C24.5182 23.815 24.8531 23.478 25.1673 23.1683C25.4507 22.8875 25.801 22.4399 26.1187 22.074C26.4364 21.7115 26.5412 21.4545 26.7524 21.0376C26.9602 20.6206 26.8554 20.2581 26.6992 19.9433C26.5412 19.6301 25.2755 16.5668 24.7449 15.3194C24.2177 14.0736 23.6905 14.2795 23.3195 14.2795C22.9503 14.2795 22.5279 14.2285 22.1054 14.2285C21.683 14.2285 20.996 14.3799 20.4173 15.0045C19.8386 15.6291 18.2003 17.1352 18.2003 20.202C18.2003 23.2721 20.4688 26.2316 20.7865 26.6468C21.1059 27.0604 25.1725 33.5597 31.6141 36.0546C38.0591 38.5478 38.0591 37.7156 39.2199 37.6101C40.3843 37.5046 42.9705 36.104 43.496 34.6506C44.0249 33.1904 44.0249 31.9396 43.8652 31.6792Z" fill="#D9D9D9"/>
</g>
<defs>
<filter id="filter0_d_74_85" x="0.570533" y="0.399292" width="58.8589" height="59.0494" filterUnits="userSpaceOnUse" color-interpolation-filters="sRGB">
<feFlood flood-opacity="0" result="BackgroundImageFix"/>
<feColorMatrix in="SourceAlpha" type="matrix" values="0 0 0 0 0 0 0 0 0 0 0 0 0 0 0 0 0 0 127 0" result="hardAlpha"/>
<feOffset dy="3.42947"/>
<feGaussianBlur stdDeviation="1.71473"/>
<feComposite in2="hardAlpha" operator="out"/>
<feColorMatrix type="matrix" values="0 0 0 0 0 0 0 0 0 0 0 0 0 0 0 0 0 0 0.25 0"/>
<feBlend mode="normal" in2="BackgroundImageFix" result="effect1_dropShadow_74_85"/>
<feBlend mode="normal" in="SourceGraphic" in2="effect1_dropShadow_74_85" result="shape"/>
</filter>
<clipPath id="clip0_74_85">
<rect width="52" height="52.1905" fill="white" transform="translate(4 0.399292)"/>
</clipPath>
</defs>
</svg>
