<svg width="52" height="52" viewBox="0 0 52 52" fill="none" xmlns="http://www.w3.org/2000/svg">
<g clip-path="url(#clip0_1_86)">
<path d="M52 25.3311C52 39.3201 40.5714 50.6605 26.4705 50.6605C21.9958 50.6605 17.7923 49.5159 14.1331 47.5117L0 52L4.60704 38.4061C2.28402 34.5909 0.946164 30.1111 0.946164 25.3294C0.947859 11.3404 12.373 0 26.4739 0C40.5731 0.00339127 52 11.3421 52 25.3311ZM26.4688 4.039C14.635 4.039 5.0089 13.5922 5.0089 25.3362C5.0089 29.9958 6.52819 34.3095 9.09707 37.8194L6.41797 45.7262L14.6621 43.1064C18.0534 45.3311 22.1111 46.6265 26.4688 46.6265C38.3027 46.6265 47.9322 37.075 47.9322 25.3311C47.9356 13.5922 38.3044 4.039 26.4688 4.039ZM39.3624 31.1657C39.2031 30.9097 38.7859 30.7537 38.1619 30.4417C37.5396 30.1297 34.4587 28.6291 33.8872 28.4256C33.3107 28.217 32.8936 28.1119 32.4765 28.7342C32.0644 29.3565 30.8639 30.7537 30.496 31.1708C30.1314 31.5863 29.7669 31.6388 29.1412 31.3319C28.5155 31.0165 26.4977 30.3654 24.1068 28.251C22.2467 26.6028 20.9903 24.5731 20.6274 23.9508C20.2594 23.3302 20.5901 22.9945 20.9004 22.6859C21.1802 22.4061 21.5261 21.9602 21.8398 21.5956C22.1535 21.2344 22.2569 20.9784 22.4655 20.563C22.6706 20.1475 22.5672 19.7864 22.4129 19.4727C22.2569 19.1607 21.0072 16.1085 20.4833 14.8656C19.9627 13.6244 19.4421 13.8296 19.0759 13.8296C18.7113 13.8296 18.2942 13.7787 17.8771 13.7787C17.4599 13.7787 16.7817 13.9296 16.2103 14.5519C15.6388 15.1742 14.0212 16.6749 14.0212 19.7304C14.0212 22.7893 16.2611 25.738 16.5748 26.1518C16.8902 26.5638 20.9055 33.0394 27.2658 35.5252C33.6295 38.0093 33.6295 37.1802 34.7758 37.075C35.9254 36.9699 38.479 35.5744 38.9979 34.1263C39.5201 32.6715 39.5201 31.4252 39.3624 31.1657Z" fill="#FFFEF2"/>
</g>
<defs>
<clipPath id="clip0_1_86">
<rect width="52" height="52" fill="white"/>
</clipPath>
</defs>
</svg>
